<svg width="1708" height="930" viewBox="0 0 1708 930" fill="none" xmlns="http://www.w3.org/2000/svg">
<g clip-path="url(#clip0_208_2169)">
<path d="M-56.7972 -1032.36L1606.55 630.468L-56.7972 2293.3L-1720.15 630.467L-56.7972 -1032.36Z" fill="#562FF1" fill-opacity="0.1"/>
<path d="M-56.797 -931.585L1505.75 630.465L-56.797 2192.52L-1619.34 630.467L-56.797 -931.584V-931.585Z" fill="#682DF3" fill-opacity="0.2"/>
<path d="M-56.7971 -830.807L1404.93 630.467L-56.7971 2091.74L-1518.53 630.467L-56.7971 -830.807Z" fill="#772AF4" fill-opacity="0.3"/>
<path d="M-56.7971 -730.03L1304.13 630.467L-56.7971 1990.96L-1417.71 630.467L-56.7971 -730.03Z" fill="#8427F6" fill-opacity="0.4"/>
<path d="M-56.7972 -629.251L1203.32 630.467L-56.7972 1890.18L-1316.91 630.467L-56.7972 -629.251Z" fill="#9023F7" fill-opacity="0.5"/>
<path d="M-56.7972 -528.475L1102.51 630.467L-56.7972 1789.4L-1216.1 630.467L-56.7972 -528.475Z" fill="#9B20F8" fill-opacity="0.6"/>
<path d="M-56.7971 -427.698L1001.7 630.468L-56.7983 1688.64L-1115.29 630.467L-56.7983 -427.699L-56.7971 -427.698Z" fill="#A61BFA" fill-opacity="0.7"/>
<path d="M-56.7972 -326.919L900.889 630.467L-56.7972 1587.86L-1014.48 630.467L-56.7959 -326.919H-56.7972Z" fill="#B016FB" fill-opacity="0.8"/>
<path d="M-56.7973 -226.142L800.079 630.467L-56.796 1487.08L-913.673 630.467L-56.796 -226.142H-56.7973Z" fill="#B910FD" fill-opacity="0.9"/>
<path d="M-56.7972 -125.364L699.275 630.467L-56.7972 1386.3L-812.864 630.467L-56.7959 -125.364H-56.7972Z" fill="#C200FF"/>
<path d="M-56.7972 -125.364L699.275 630.467L-56.7972 1386.3L-812.864 630.467L-56.7959 -125.364H-56.7972Z" fill="#C200FF"/>
</g>
<defs>
<clipPath id="clip0_208_2169">
<rect width="1708" height="2394.43" fill="white"/>
</clipPath>
</defs>
</svg>
