<svg width="336" height="288" viewBox="0 0 336 288" fill="none" xmlns="http://www.w3.org/2000/svg">
<path d="M176.441 94.8593L184.102 76.0787L229.37 8.63654L275.746 30.9856L230.575 97.4251L213.763 111.937L214.451 112.93L233.237 104.832L321.755 83.4555L334.914 126.584L246.405 147.959L225.413 148.795L225.355 149.959L248.238 155.33L324.944 192.3L297.627 232.448L220.485 195.326L203.145 182.376L202.296 183.159L212.76 197.721L235.955 273.746L182.985 286.538L159.791 210.518L160.784 193.192L159.603 192.901L152.495 211.75L107.046 278.574L60.6377 256.13L105.808 189.723L121.762 174.972L121.056 173.994L99.7563 183.374L13.925 204.102L0.766249 160.973L90.0459 139.413L110.131 138.122L110.174 136.958L88.1634 131.82L11.427 94.8349L38.7395 54.6941L110.392 89.2344L132.92 105.399L133.778 104.637L121.79 85.9657L99.791 13.8633L152.761 1.07114L174.756 73.1607L175.265 94.6015L176.441 94.8593Z" stroke="#F2751A" stroke-width="1.2"/>
</svg>
