<?xml version="1.0" standalone="no"?>
<!DOCTYPE svg PUBLIC "-//W3C//DTD SVG 20010904//EN"
 "http://www.w3.org/TR/2001/REC-SVG-20010904/DTD/svg10.dtd">
<svg version="1.0" xmlns="http://www.w3.org/2000/svg"
 width="512.000000pt" height="512.000000pt" viewBox="0 0 512.000000 512.000000"
 preserveAspectRatio="xMidYMid meet">
<metadata>
Created by potrace 1.14, written by Peter Selinger 2001-2017
</metadata>
<g transform="translate(0.000000,512.000000) scale(0.100000,-0.100000)"
fill="#000000" stroke="none">
<path d="M3100 4750 c-202 -44 -327 -113 -466 -256 -153 -158 -235 -356 -240
-582 -2 -98 1 -126 27 -224 48 -178 100 -270 227 -401 106 -110 292 -211 428
-233 21 -3 47 -9 58 -13 32 -12 223 -6 291 8 215 45 413 170 531 335 l21 29
102 -102 101 -101 0 363 0 364 -117 -1 -118 -1 -1 -50 c-5 -145 -15 -185 -73
-300 -36 -71 -63 -107 -127 -170 -44 -44 -94 -87 -110 -95 -16 -8 -31 -17 -34
-20 -3 -3 -23 -13 -45 -24 -194 -90 -417 -86 -610 11 -69 34 -109 65 -185 142
-63 65 -142 194 -154 251 -3 14 -12 59 -21 100 -20 89 -15 199 14 307 50 182
182 342 355 427 93 46 172 66 276 71 223 10 425 -81 562 -253 29 -37 62 -84
72 -104 l19 -38 98 0 c113 0 108 -10 48 108 -113 219 -315 379 -557 442 -111
29 -268 33 -372 10z"/>
<path d="M3168 4544 c-2 -2 -22 -6 -44 -10 -21 -3 -47 -10 -56 -15 -10 -5 -18
-8 -18 -5 0 6 -113 -45 -120 -54 -3 -4 -17 -13 -31 -21 -15 -8 -46 -32 -70
-55 -145 -134 -219 -298 -219 -481 0 -281 166 -516 434 -616 70 -26 97 -30
196 -33 156 -4 259 25 385 109 158 104 268 293 281 485 l7 87 -232 1 -231 0
121 -119 c115 -114 121 -121 110 -145 -39 -84 -153 -182 -261 -223 -64 -24
-192 -33 -259 -18 -225 50 -396 273 -378 493 7 86 14 111 50 185 40 81 133
176 210 214 189 92 404 60 545 -81 l57 -57 97 3 c110 3 110 3 54 77 -107 141
-217 218 -372 261 -72 19 -243 32 -256 18z"/>
<path d="M2069 3846 c-2 -2 -35 -7 -73 -10 -38 -3 -78 -8 -90 -11 -11 -3 -32
-7 -46 -9 -114 -21 -291 -97 -407 -177 -371 -253 -567 -730 -475 -1159 11 -52
30 -119 41 -147 11 -29 18 -53 15 -53 -16 0 137 -259 159 -268 4 -2 7 -9 7
-16 0 -6 8 -19 18 -27 9 -9 38 -38 63 -65 209 -221 521 -352 834 -347 303 5
575 121 792 338 130 131 239 308 279 453 43 157 54 223 55 331 1 73 -3 91 -28
140 -38 74 -102 118 -235 161 -57 18 -136 44 -177 57 -177 57 -253 111 -320
228 -29 50 -43 85 -107 270 -72 205 -140 288 -246 301 -23 3 -45 7 -49 9 -3 3
-8 3 -10 1z m166 -709 c69 -20 190 -98 201 -129 3 -10 9 -18 14 -18 18 0 71
-102 89 -172 57 -221 -47 -444 -250 -536 -71 -32 -126 -42 -220 -37 -74 3 -97
9 -162 39 -223 106 -323 358 -232 586 54 135 199 255 337 279 61 11 165 5 223
-12z"/>
<path d="M959 1569 c-16 -9 6 -200 35 -304 7 -27 20 -75 29 -106 19 -69 94
-221 156 -314 61 -94 218 -250 313 -314 42 -28 81 -51 87 -51 5 0 16 -6 23
-13 24 -22 184 -82 263 -98 100 -20 122 -22 225 -22 195 -1 340 32 497 115
391 204 640 610 655 1068 2 48 15 45 -224 44 -123 -1 -228 -2 -233 -3 -6 0
-12 -26 -13 -57 -2 -69 -23 -148 -61 -242 -140 -340 -520 -511 -841 -379 -99
41 -154 79 -236 163 -125 128 -186 263 -203 448 l-6 71 -228 0 c-126 0 -233
-2 -238 -6z"/>
</g>
</svg>
