<svg width="43" height="49" viewBox="0 0 43 49" fill="none" xmlns="http://www.w3.org/2000/svg">
<g clip-path="url(#clip0_542_268)">
<path d="M1.33998 11.6598C1.25998 11.6398 1.22998 11.5798 1.24998 11.4998C1.26998 11.4198 1.35998 11.4998 1.41998 11.6098C1.45998 11.7198 1.44998 11.7298 1.33998 11.6598ZM2.43998 11.4398C2.43998 11.4398 2.40998 11.4598 2.41998 11.4398C2.43998 11.4398 2.44998 11.4198 2.46998 11.4098L2.43998 11.4298V11.4398ZM1.96998 11.8498H1.94998H1.97998C1.99998 11.8498 1.97998 11.8498 1.95998 11.8498H1.96998ZM2.72998 11.6198C2.66998 11.5598 2.63998 11.5064 2.63998 11.4598C2.63998 11.3898 2.74998 11.4598 2.80998 11.5698C2.88998 11.6598 2.81998 11.6998 2.72998 11.6198ZM1.95998 12.2698L1.90998 12.2298C1.88998 12.1964 1.88665 12.1764 1.89998 12.1698C1.89998 12.1698 1.91998 12.1698 1.94998 12.2098V12.2698H1.95998ZM2.01998 12.4498C1.93998 12.3598 1.92998 12.2898 1.98998 12.3298C2.01998 12.3098 2.04998 12.3598 2.07998 12.4198C2.11998 12.5298 2.08998 12.5498 2.00998 12.4598L2.01998 12.4498ZM2.34998 13.0198C2.28998 12.9198 2.27998 12.8498 2.36998 12.8698C2.42998 12.8998 2.44998 12.8898 2.44998 12.9598C2.42998 13.0398 2.37998 13.0698 2.34998 13.0198ZM15.39 7.00977C15.46 6.96977 15.57 6.83977 15.67 6.77977C15.8 6.69977 15.85 6.67977 15.82 6.54977C15.82 6.47977 15.84 6.46977 15.84 6.46977C15.89 6.50977 16.06 6.46977 16.33 6.32977C16.87 6.08977 17 6.00977 17.02 5.85977C17.02 5.85977 17.04 5.77977 17.07 5.75977C17.07 5.61977 17.07 5.55977 16.97 5.46977C16.92 5.42977 16.94 5.41977 16.96 5.40977C17.01 5.37977 16.96 5.26977 16.88 5.10977C16.85 5.05977 16.84 4.99977 16.82 4.92977C16.81 4.86977 16.78 4.81977 16.72 4.70977C16.64 4.61977 16.58 4.50977 16.55 4.45977C16.46 4.29977 16.36 4.01977 16.33 3.88977C16.33 3.88977 16.32 3.82977 16.3 3.83977C16.3 3.83977 16.26 3.72977 16.23 3.59977C16.17 3.41977 16.16 3.35977 16.13 3.37977C16.13 3.37977 16.1033 3.34977 16.05 3.28977C15.95 3.06977 15.92 2.94977 15.95 2.92977C15.95 2.92977 15.95 2.85977 15.92 2.80977C15.89 2.68977 15.62 2.08977 15.59 2.02977H15.61C15.61 2.02977 15.58 1.96977 15.55 1.91977C15.52 1.86977 15.46 1.75977 15.45 1.69977C15.43 1.66643 15.4133 1.6531 15.4 1.65977C15.4 1.65977 15.34 1.62977 15.32 1.63977C15.27 1.59977 15.21 1.55977 15.15 1.52977C15.12 1.54977 15.09 1.49977 15.06 1.43977C15.05 1.37977 15.02 1.32977 14.86 1.20977C14.74 1.06977 14.48 1.14977 14.27 1.40977C14.19 1.45977 14.1 1.57977 14.04 1.60977C13.99 1.63977 13.94 1.73977 13.9 1.75977C13.87 1.77977 13.86 1.84977 13.85 1.85977C13.83 1.85977 13.85 1.92977 13.81 1.94977C13.81 2.01977 13.72 2.06977 13.51 2.11977C13.26 2.25977 13.07 2.36977 12.73 2.62977C12.39 2.95977 12.31 3.00977 12.21 3.05977C11.31 3.50977 11.08 3.56977 11.06 3.57977C11 3.54977 10.68 3.72977 10.58 3.84977C10.54 3.93977 10.49 3.96977 10.45 3.92977C10.45 3.92977 10.38 3.96977 10.35 4.05977C10.3 4.15977 10.2 4.21977 10.15 4.23977C10.1 4.26977 9.96998 4.26977 9.91998 4.29977C9.86998 4.32977 9.76998 4.30977 9.70998 4.27977C9.64998 4.24977 9.53998 4.23977 9.25998 4.39977C9.05998 4.50977 8.84998 4.70977 8.72998 4.76977C8.60998 4.83977 8.39998 5.02977 8.21998 5.12977C7.84998 5.40977 7.68998 5.49977 7.72998 5.61977C7.73998 5.67977 7.67998 5.71977 7.62998 5.67977C7.54998 5.58977 7.31998 5.85977 7.37998 5.95977C7.38998 6.01977 7.33998 6.04977 7.30998 5.99977C7.27998 5.94977 7.15998 6.00977 7.02998 6.08977C6.89998 6.16977 6.68998 6.21977 6.61998 6.24977C5.96998 6.48977 4.89998 7.09977 4.89998 7.29977C4.87998 7.29977 4.82998 7.33977 4.76998 7.37977C4.68998 7.35977 4.58998 7.47977 4.50998 7.52977C4.45998 7.62977 4.38998 7.73977 4.36998 7.74977C4.33998 7.76977 4.27998 7.86977 4.21998 7.90977C4.16998 8.00977 4.09998 7.97977 4.08998 7.98977C4.03998 7.94977 3.95998 7.91977 3.91998 7.94977C3.84998 7.98977 3.76998 7.95977 3.75998 7.96977C3.73998 7.96977 3.65998 8.02977 3.58998 8.13977C3.48998 8.24643 3.32665 8.33977 3.09998 8.41977C2.86998 8.47977 2.73998 8.55977 2.66998 8.65977C2.51998 8.81977 2.48998 8.82977 2.40998 8.80977C2.30998 8.86977 1.92998 9.22977 1.86998 9.31977C1.78998 9.56977 1.52998 9.85977 1.13998 10.1498C1.03998 10.2098 0.969982 10.3198 0.959982 10.3198C0.959982 10.3898 0.939982 10.3998 0.859982 10.3798C0.829982 10.3998 0.779982 10.4298 0.739982 10.4498C0.739982 10.5198 0.649982 10.5698 0.589982 10.6098C0.459982 10.6098 0.469982 10.6798 0.499982 10.7998C0.509982 10.8598 0.539982 10.9798 0.519982 10.9898C0.469982 11.0198 0.539982 11.2498 0.689982 11.5198C0.749982 11.6198 0.819982 11.7898 0.879982 11.8898C0.919982 11.9998 0.969982 12.0498 1.01998 12.0898C1.07998 12.1198 1.10998 12.1798 1.13998 12.2298C1.16998 12.2798 1.21998 12.3198 1.22998 12.3198C1.27998 12.3598 1.30998 12.4098 1.33998 12.4698L1.36998 12.5198C1.36998 12.5198 1.42998 12.5498 1.45998 12.6098C1.51998 12.7098 1.80998 12.9598 1.90998 12.9798C2.00998 12.9898 2.14998 13.0498 2.18998 13.1698C2.21998 13.2198 2.23998 13.2098 2.28998 13.1798C2.33998 13.1498 2.33998 13.1498 2.31998 13.1598L2.29998 13.2398L2.40998 13.3198C2.40998 13.3198 2.51998 13.3998 2.53998 13.3898C2.55998 13.3898 2.58998 13.3598 2.61998 13.4098C2.64998 13.4598 2.93998 13.5098 3.04998 13.4398C3.11998 13.3998 3.17998 13.4398 3.23998 13.4698C3.32998 13.5598 3.39998 13.5898 3.40998 13.5798C3.43998 13.5598 3.50998 13.5198 3.58998 13.5498C3.68998 13.5598 3.76998 13.5198 3.83998 13.4098C3.90998 13.3698 4.15998 13.1598 4.41998 13.0098C4.84998 12.7698 4.87998 12.7498 4.91998 12.5898C4.91998 12.4498 4.97998 12.4198 5.13998 12.3298C5.31998 12.2298 5.43998 12.1598 5.85998 12.1298C6.08998 12.0698 6.80998 11.7998 7.14998 11.5998C7.88998 11.1098 8.03998 11.0198 8.12998 10.8998C8.29998 10.7298 9.04998 10.2998 9.35998 10.1898C9.53998 10.0898 9.63998 10.0298 9.76998 9.94977C9.81998 9.84977 9.91998 9.71977 10.02 9.66977C10.07 9.56977 10.16 9.51977 10.13 9.46977C10.15 9.46977 10.18 9.43977 10.21 9.41977C10.34 9.48977 10.83 9.19977 10.98 9.04977C11.07 8.92977 11.39 8.73977 11.57 8.70977C11.6 8.68977 11.83 8.55977 12.08 8.41977C12.36 8.32977 12.6 8.18977 12.68 8.20977C12.73 8.17977 12.86 8.17977 12.95 8.18977C13 8.15977 13.19 8.11977 13.34 8.02977C13.47 7.94977 13.62 7.93977 13.63 7.92977C13.63 7.92977 13.71 7.87977 13.78 7.76977C13.86 7.71977 14.03 7.62977 14.14 7.55977C14.26 7.48977 14.34 7.44977 14.35 7.43977C14.29 7.33977 14.47 7.15977 14.5 7.20977C14.53 7.25977 14.65 7.19977 14.63 7.12977C14.65 7.12977 14.66 7.10977 14.68 7.09977C14.73 7.13977 14.85 7.13977 14.98 7.12977C15.06 7.07977 15.17 7.08977 15.17 7.08977C15.19 7.08977 15.24 7.04977 15.32 7.00977H15.39Z" fill="#6C2BD9"/>
<path d="M1.6 14.5791C1.5 14.5191 1.5 14.4591 1.6 14.3991C1.7 14.3391 1.76 14.4691 1.76 14.5891C1.72 14.7091 1.69 14.7091 1.59 14.5891L1.6 14.5791ZM3.45 14.9991C3.40334 14.9991 3.39334 14.9991 3.42 14.9991H3.52C3.52 14.9991 3.52 14.9991 3.45 14.9991ZM2.38 15.0791H2.35H2.42C2.45 15.0791 2.42 15.0791 2.39 15.0791H2.38ZM3.74 15.3091C3.7 15.2291 3.7 15.1691 3.74 15.1291C3.81 15.0691 3.9 15.1991 3.9 15.3191C3.93 15.4391 3.8 15.4391 3.73 15.3191L3.74 15.3091ZM2 15.4291L1.97 15.3691C1.97 15.3291 1.98334 15.3091 2.01 15.3091C2.01 15.3091 2.04 15.3091 2.04 15.3691L2 15.4291ZM1.93 15.6091C1.9 15.4891 1.93 15.4291 2 15.4891C2.07 15.4891 2.06 15.5491 2.06 15.6091C2.02 15.7291 1.96 15.7291 1.93 15.6091ZM1.91 16.2691C1.91 16.1491 1.95 16.0891 2.08 16.1591C2.14 16.2191 2.18 16.2191 2.11 16.2791C2.01 16.3391 1.91 16.3291 1.91 16.2791V16.2691ZM20.03 5.52906C20.03 5.39906 19.97 5.09906 19.97 4.89906C19.97 4.62906 19.97 4.52906 19.85 4.46906C19.79 4.39906 19.79 4.36906 19.79 4.36906C19.85 4.33906 19.91 4.03906 19.91 3.49906C19.97 2.46906 19.97 2.19906 19.85 2.02906C19.85 2.02906 19.79 1.92906 19.79 1.85906C19.67 1.72906 19.61 1.68906 19.49 1.75906C19.43 1.78906 19.43 1.75906 19.43 1.72906C19.43 1.62906 19.31 1.59906 19.13 1.59906C19.07 1.59906 19.01 1.56906 18.95 1.52906C18.89 1.49906 18.83 1.49906 18.71 1.49906C18.59 1.52906 18.47 1.52906 18.41 1.52906C18.23 1.52906 17.93 1.42906 17.81 1.35906C17.81 1.35906 17.75 1.32906 17.75 1.35906C17.75 1.35906 17.63 1.32906 17.51 1.25906C17.33 1.18906 17.27 1.15906 17.27 1.22906C17.23 1.24906 17.19 1.25906 17.15 1.25906C16.91 1.22906 16.79 1.15906 16.79 1.08906C16.79 1.08906 16.73 1.01906 16.67 1.01906C16.55 0.949062 15.89 0.849063 15.83 0.849063V0.819062H15.71C15.65 0.819062 15.53 0.819062 15.47 0.789062C15.43 0.789062 15.41 0.799062 15.41 0.819062C15.41 0.819062 15.35 0.889062 15.35 0.919062C15.29 0.949062 15.23 1.01906 15.17 1.08906C15.17 1.15906 15.11 1.15906 15.05 1.15906C14.99 1.12906 14.93 1.12906 14.75 1.25906C14.57 1.32906 14.51 1.78906 14.63 2.32906C14.63 2.49906 14.69 2.72906 14.69 2.85906C14.69 2.95906 14.75 3.12906 14.75 3.18906C14.75 3.24906 14.81 3.31906 14.81 3.35906C14.81 3.39906 14.87 3.42906 14.87 3.48906C14.93 3.55906 14.93 3.71906 14.87 4.08906C14.87 4.58906 14.87 4.98906 14.93 5.71906C15.05 6.51906 15.05 6.68906 15.05 6.88906C15.02 7.76906 14.99 8.30906 14.97 8.63906C14.95 8.92906 14.93 9.07906 14.93 9.08906C14.87 9.15906 14.87 9.78906 14.93 10.0591C14.99 10.1891 14.99 10.2891 14.93 10.3291C14.93 10.3291 14.93 10.4591 14.99 10.5991C15.05 10.7691 15.05 10.9691 15.05 11.0691C15.05 11.1691 14.99 11.3691 14.99 11.4691C14.99 11.5691 14.93 11.6991 14.87 11.7691C14.84 11.7991 14.81 11.8591 14.79 11.9791C14.78 12.0391 14.77 12.1191 14.76 12.2091C14.76 12.3091 14.76 12.3991 14.75 12.4991C14.75 12.5191 14.81 12.5791 14.81 12.5991C14.81 12.6191 14.87 12.6991 14.87 12.7491C14.88 12.7891 14.9 12.8191 14.91 12.8491C14.89 12.8791 14.87 12.8991 14.94 12.9891C14.98 13.0491 14.95 13.0491 14.9 12.9891C14.81 12.8691 14.8 12.9891 14.84 13.1091C14.86 13.1691 14.84 13.1691 14.81 13.1091C14.78 13.0491 14.74 13.0491 14.69 13.0491C14.61 13.0491 14.61 12.9891 14.49 12.9791C13.29 12.8191 11.13 12.7491 10.96 12.9191C10.93 12.9191 10.83 12.9191 10.69 12.9191C10.59 12.8591 10.32 12.9091 10.16 12.8991C9.99 12.9491 9.79 13.0091 9.76 13.0091C9.69 13.0091 9.52 13.0591 9.39 13.0591C9.22 13.1091 9.16 13.0591 9.12 13.0591C9.09 12.9991 8.99 12.9391 8.89 12.9291C8.76 12.9291 8.66 12.8591 8.63 12.8591C8.6 12.8591 8.43 12.8591 8.23 12.9091C7.98334 12.9424 7.65 12.9324 7.23 12.8791C6.83 12.8091 6.57 12.7991 6.36 12.8491C5.99 12.8991 5.92 12.8991 5.83 12.8291C5.63 12.8291 4.73 12.9091 4.56 12.9691C4.22 13.1391 3.55 13.2391 2.72 13.2691C2.52 13.2691 2.32 13.3191 2.28 13.3191C2.21 13.3791 2.18 13.3791 2.08 13.3191C2.01 13.3191 1.91 13.3191 1.85 13.3191C1.78 13.3791 1.61 13.3691 1.48 13.3691C1.28 13.2991 1.25 13.3691 1.18 13.4791C1.14 13.5391 1.07 13.6591 1.04 13.6591C0.940004 13.6591 0.830004 13.8891 0.820004 14.1891C0.810004 14.3091 0.790004 14.4891 0.770004 14.6091C0.730004 14.7291 0.770004 14.7891 0.800004 14.8491C0.860004 14.9091 0.860004 14.9691 0.860004 15.0291C0.860004 15.0891 0.890004 15.1491 0.920004 15.1491C0.950004 15.2091 0.950004 15.2691 0.950004 15.3291V15.3891C0.980004 15.4491 1.01 15.4491 1.01 15.5091C1.01 15.6291 1.23 15.9991 1.36 16.0591C1.49 16.1191 1.65 16.2491 1.62 16.3691C1.62 16.4291 1.65 16.4291 1.75 16.4291C1.85 16.4291 1.85 16.4291 1.82 16.4291L1.72 16.4891L1.82 16.6091C1.85 16.6691 1.92 16.7291 1.95 16.7291C1.98 16.7291 2.05 16.7291 2.05 16.7891C2.05 16.8491 2.44 17.0391 2.67 17.0491C2.8 17.0491 2.87 17.1191 2.93 17.1791C2.99 17.2991 3.06 17.3591 3.09 17.3691C3.16 17.3691 3.29 17.3691 3.39 17.4391C3.52 17.4991 3.69 17.5091 3.89 17.4591C4.02 17.4591 4.59 17.4191 5.12 17.4391C5.99 17.4691 6.05 17.4691 6.26 17.3591C6.4 17.2391 6.5 17.2491 6.83 17.2591C7.2 17.2691 7.43 17.2791 8.09 17.4791C8.49 17.5491 9.82 17.7191 10.52 17.7391C12.09 17.7391 12.39 17.7391 12.62 17.6891C12.82 17.6691 13.3 17.6691 13.81 17.6891C14.09 17.6991 14.38 17.7191 14.67 17.7291C15.02 17.7491 15.38 17.7791 15.77 17.7991C16.47 17.8191 16.85 17.8391 17.36 17.8491C17.65 17.7991 18.11 17.7491 18.48 17.7691C18.74 17.7191 19.05 17.7291 19 17.6691H19.3C19.36 17.6991 19.48 17.7291 19.62 17.7391C19.68 17.2091 19.68 15.8291 19.62 15.2491C19.56 14.7791 19.56 13.5791 19.62 13.0291V11.7691C19.68 11.2691 19.68 10.7691 19.74 10.6691C19.74 10.5691 19.8 10.3691 19.86 10.2391C19.86 10.1391 19.92 9.80906 19.92 9.50906C19.92 9.23906 19.98 9.00906 19.98 8.97906C19.98 8.97906 19.98 8.80906 19.92 8.60906V7.43906C19.8 7.43906 19.74 7.00906 19.8 7.00906C19.86 7.00906 19.86 6.77906 19.8 6.73906V6.63906C19.86 6.60906 19.92 6.40906 19.98 6.20906C19.98 6.03906 20.04 5.87906 20.04 5.87906V5.57906L20.03 5.52906Z" fill="#6C2BD9"/>
<path d="M17.88 1.91953C17.43 1.85953 17.43 1.79953 17.88 1.73953C18.33 1.67953 18.63 1.79953 18.63 1.91953C18.48 2.03953 18.33 2.03953 17.88 1.91953ZM26.29 2.27953C26.09 2.27953 26.04 2.27953 26.14 2.27953H26.59H26.29ZM21.48 2.39953H21.33H21.63C21.78 2.39953 21.63 2.39953 21.48 2.39953ZM27.64 2.57953C27.44 2.49953 27.44 2.43953 27.64 2.39953C27.94 2.33953 28.39 2.45953 28.39 2.57953C28.54 2.69953 27.94 2.69953 27.64 2.57953ZM19.83 2.75953C19.68 2.75953 19.68 2.69953 19.68 2.69953C19.68 2.65953 19.73 2.63953 19.83 2.63953C19.83 2.63953 19.98 2.63953 19.98 2.69953L19.83 2.75953ZM19.53 2.93953C19.38 2.81953 19.53 2.75953 19.83 2.81953C20.13 2.81953 20.13 2.87953 20.13 2.93953C19.98 3.05953 19.68 3.05953 19.53 2.93953ZM19.53 3.59953C19.53 3.47953 19.68 3.41953 20.28 3.47953C20.58 3.53953 20.73 3.53953 20.43 3.59953C19.98 3.65953 19.53 3.65953 19.53 3.59953ZM5.45999 31.1995C5.44999 30.6395 5.41999 29.1895 5.39999 28.3495C5.39999 27.1495 5.39999 26.6995 5.27999 26.3995C5.21999 26.0995 5.21999 25.9495 5.21999 25.9495C5.27999 25.7995 5.33999 24.4495 5.33999 22.0395C5.39999 17.3795 5.39999 16.1795 5.27999 15.4295C5.27999 15.4295 5.21999 14.9795 5.21999 14.6795C5.09999 14.0795 5.03999 13.9295 4.91999 14.2295C4.85999 14.3795 4.85999 14.2295 4.85999 14.0795C4.85999 13.6295 4.73999 13.4795 4.55999 13.4795C4.49999 13.4795 4.43999 13.3295 4.37999 13.1795C4.31999 13.0295 4.25999 13.0295 4.13999 13.0295C4.01999 13.1795 3.89999 13.1795 3.83999 13.1795C3.65999 13.1795 3.35999 12.7295 3.23999 12.4295C3.23999 12.4295 3.17999 12.2795 3.17999 12.4295C3.17999 12.4295 3.05999 12.2795 2.93999 11.9795C2.75999 11.6795 2.69999 11.5295 2.69999 11.8295C2.65999 11.9295 2.61999 11.9795 2.57999 11.9795C2.33999 11.8295 2.21999 11.5295 2.21999 11.2295C2.21999 11.2295 2.15999 10.9295 2.09999 10.9295C1.97999 10.6295 1.31999 10.1795 1.25999 10.1795V10.0295H1.13999C1.07999 10.0295 0.95999 10.0295 0.89999 9.87953C0.85999 9.87953 0.83999 9.92953 0.83999 10.0295C0.83999 10.1795 0.77999 10.3295 0.77999 10.4795C0.71999 10.6295 0.65999 10.9295 0.59999 11.2295C0.59999 11.5295 0.53999 11.5295 0.47999 11.5295C0.41999 11.3795 0.35999 11.3795 0.17999 11.9795C-1.03116e-05 12.2795 -0.0600103 14.3795 0.0599897 16.7895C0.0799897 17.4795 0.10999 18.6395 0.11999 19.1895C0.11999 19.6395 0.17999 20.3895 0.17999 20.6895C0.17999 20.9895 0.23999 21.2895 0.23999 21.4395C0.23999 21.5895 0.29999 21.7395 0.29999 22.0395C0.35999 22.3395 0.35999 23.0895 0.29999 24.7395C0.29999 26.9895 0.29999 28.7995 0.35999 32.0995C0.47999 35.7095 0.47999 36.4595 0.47999 37.3595C0.45999 39.3395 0.44999 40.9495 0.43999 42.2495V42.4895V42.6095V42.7995C0.44999 43.0495 0.46999 43.2895 0.50999 43.5195C0.56999 43.9795 0.69999 44.3995 0.83999 44.7795C1.12999 45.5395 1.53999 46.1295 1.92999 46.5795C2.72999 47.4795 3.46999 47.8595 3.93999 48.0795C4.41999 48.2895 4.63999 48.3495 4.69999 48.3695C4.81999 48.4195 5.18999 48.5395 5.72999 48.6095C5.96999 48.6295 6.38999 48.6595 6.53999 48.6495C6.74999 48.6495 6.95999 48.6495 7.18999 48.6495C8.08999 48.6495 9.10999 48.6395 9.70999 48.6095C10.31 48.5495 10.76 48.5495 10.91 48.6095C10.91 48.6095 11.51 48.6095 12.11 48.5495C12.86 48.4895 13.76 48.4895 14.21 48.4895C14.6 48.4995 15.62 48.5395 16.01 48.5495C16.46 48.5495 17.06 48.6095 17.36 48.6695C17.66 48.7295 18.41 48.7895 20.97 48.7895C22.74 48.7695 25.05 48.7395 26.08 48.7295C27.11 48.7195 29.42 48.6895 31.04 48.6695C34.65 48.6095 36.15 48.6095 36.3 48.4895C36.45 48.4295 37 48.4395 37.37 48.4695C37.48 48.5395 38.69 48.4195 39.68 47.8395C40.69 47.2895 41.35 46.3895 41.3 46.3595C41.42 46.1495 41.82 45.5695 41.86 45.5895C41.88 45.6095 42.14 45.2595 42.38 44.6395C42.5 44.3295 42.61 43.9495 42.68 43.5295C42.76 43.1395 42.76 42.5495 42.76 42.3295C42.78 41.1795 42.81 39.4495 42.82 38.8695C42.94 33.4595 42.94 23.6995 42.76 22.9395V21.7395C42.82 21.2895 42.76 20.0895 42.76 19.3395C42.7 18.5895 42.64 17.6895 42.64 17.5395C42.64 17.2395 42.58 16.4895 42.58 15.8895C42.52 15.1395 42.58 14.8395 42.58 14.6895C42.64 14.5395 42.7 14.0895 42.7 13.6395C42.7 13.0395 42.76 12.5895 42.76 12.4395C42.76 12.2895 42.76 11.5395 42.7 10.6395C42.66 9.53953 42.66 8.0362 42.7 6.12953C42.7 6.01953 42.7 5.90953 42.71 5.79953C42.71 5.62953 42.71 5.46953 42.7 5.30953C42.67 4.97953 42.64 4.66953 42.56 4.36953C42.42 3.77953 42.2 3.25953 41.93 2.81953C41.4 1.93953 40.76 1.36953 40.15 0.999531C39.03 0.319531 38.23 0.199531 37.71 0.119531C37.45 0.0695312 37.24 0.0795312 37.06 0.0595312C36.96 0.0595312 36.84 0.0395312 36.68 0.0195312C35.78 0.0195312 31.72 0.139531 30.97 0.199531C29.47 0.379531 26.46 0.499531 22.71 0.559531C21.81 0.559531 20.91 0.619531 20.76 0.619531C20.46 0.679531 20.31 0.679531 19.86 0.619531H18.81C18.51 0.679531 17.76 0.679531 17.16 0.679531C16.26 0.619531 16.11 0.679531 15.81 0.799531C15.66 0.859531 15.36 0.979531 15.21 0.979531C14.76 0.979531 14.31 1.21953 14.31 1.51953C14.31 1.63953 14.16 1.81953 14.16 1.93953C14.01 2.05953 14.16 2.11953 14.31 2.17953C14.61 2.23953 14.61 2.29953 14.61 2.35953C14.61 2.41953 14.76 2.47953 14.91 2.47953C15.06 2.53953 15.06 2.59953 15.06 2.65953V2.71953C15.21 2.77953 15.36 2.77953 15.36 2.83953C15.36 2.95953 16.41 3.31953 17.01 3.37953C17.61 3.43953 18.36 3.55953 18.21 3.67953C18.21 3.73953 18.36 3.73953 18.81 3.73953C19.26 3.73953 19.26 3.73953 19.11 3.73953L18.66 3.79953L19.11 3.91953C19.26 3.97953 19.56 4.03953 19.71 4.03953C19.86 4.03953 20.16 4.03953 20.16 4.09953C20.16 4.15953 21.96 4.33953 23.01 4.33953C23.61 4.33953 23.91 4.39953 24.21 4.45953C24.51 4.57953 24.81 4.63953 24.96 4.63953C25.26 4.63953 25.86 4.63953 26.31 4.69953C26.91 4.75953 27.66 4.75953 28.56 4.69953C29.15 4.69953 31.76 4.66953 34.12 4.63953C35.1 4.63953 35.85 4.63953 36.44 4.63953C36.59 4.63953 36.73 4.63953 36.85 4.63953C36.91 4.63953 36.97 4.63953 37.02 4.63953C37.09 4.63953 37.15 4.63953 37.2 4.65953C37.34 4.68953 37.45 4.70953 37.67 4.75953C37.89 4.79953 38.11 4.90953 38.27 5.44953C38.29 5.52953 38.3 5.59953 38.3 5.66953V5.79953V6.07953C38.3 6.44953 38.29 6.81953 38.28 7.25953C38.26 8.10953 38.21 9.11953 38.12 10.6195C38.06 12.4195 37.94 18.4295 37.94 21.5895C38 28.6495 38 29.9995 38.06 31.0495C38.12 32.8495 38.12 39.7595 38.06 42.3195C38.06 42.4195 38.06 42.5095 38.06 42.6095C38.06 42.6395 38.06 42.6695 38.06 42.6995C38.06 42.7595 38.05 42.8095 38.03 42.8595C38.01 42.9595 37.97 43.0495 37.93 43.1295C37.84 43.2895 37.73 43.4195 37.58 43.5295C37.5 43.6195 37.37 43.7195 37.21 43.7795C37.13 43.8095 37.04 43.8295 36.96 43.8395C36.82 43.8495 36.5 43.8495 36.3 43.8495C35.55 43.9095 34.8 43.9095 34.8 43.9695H34.05C33.45 43.8495 28.94 43.8495 27.29 43.9095C26.24 43.9695 23.23 43.9695 21.88 43.9095H17.22C14.97 43.8495 12.71 43.8495 12.26 43.7895C11.81 43.7895 10.91 43.7295 10.31 43.6695C9.85999 43.6695 8.35999 43.6095 6.99999 43.6095C6.84999 43.6095 6.69999 43.6095 6.55999 43.6095H6.36999L6.30999 43.5995C6.22999 43.5995 6.16999 43.5695 6.11999 43.5495C6.00999 43.5095 5.94999 43.4495 5.92999 43.4495C5.92999 43.4495 5.74999 43.3695 5.54999 43.1995C5.48999 43.1095 5.40999 42.9795 5.37999 42.8095C5.37999 42.7695 5.35999 42.7295 5.36999 42.6795C5.36999 42.6395 5.36999 42.6195 5.36999 42.4195V39.6095C5.24999 39.6095 5.18999 37.6595 5.24999 37.6595C5.30999 37.6595 5.30999 36.6095 5.24999 36.4595V36.0095C5.30999 35.8595 5.36999 34.9595 5.42999 34.0595C5.42999 33.3095 5.48999 32.5595 5.48999 32.5595V31.2095L5.45999 31.1995Z" fill="#6C2BD9"/>
<path d="M12.87 25.6191C12.81 25.5591 12.81 25.4991 12.87 25.4391C12.93 25.3791 12.97 25.4991 12.97 25.6191C12.95 25.7391 12.93 25.7391 12.87 25.6191ZM14 25.9791C14 25.9791 13.96 25.9791 13.98 25.9791H14.04H14ZM13.35 26.0991H13.33H13.37C13.37 26.0991 13.37 26.0991 13.35 26.0991ZM14.18 26.2791C14.1533 26.1991 14.1533 26.1391 14.18 26.0991C14.22 26.0391 14.28 26.1591 14.28 26.2791C14.3 26.3991 14.22 26.3991 14.18 26.2791ZM13.13 26.4591L13.11 26.3991C13.11 26.3591 13.1166 26.3391 13.13 26.3391C13.13 26.3391 13.15 26.3391 13.15 26.3991L13.13 26.4591ZM13.09 26.6391C13.07 26.5191 13.09 26.4591 13.13 26.5191C13.17 26.5191 13.17 26.5791 13.17 26.6391C13.15 26.7591 13.11 26.7591 13.09 26.6391ZM13.09 27.2991C13.09 27.1791 13.11 27.1191 13.19 27.1791C13.23 27.2391 13.25 27.2391 13.21 27.2991C13.15 27.3591 13.09 27.3591 13.09 27.2991ZM28.33 28.5591C28.41 28.5591 28.59 28.4991 28.71 28.4991C28.87 28.4991 28.93 28.4991 28.97 28.3791C29.01 28.3191 29.03 28.3191 29.03 28.3191C29.05 28.3791 29.23 28.4391 29.56 28.4391C30.19 28.4991 30.35 28.4991 30.45 28.3791C30.45 28.3791 30.51 28.3191 30.55 28.3191C30.63 28.1991 30.65 28.1391 30.61 28.0191C30.59 27.9591 30.61 27.9591 30.63 27.9591C30.69 27.9591 30.71 27.8391 30.71 27.6591C30.71 27.5991 30.73 27.5391 30.75 27.4791C30.77 27.4191 30.77 27.3591 30.77 27.2391C30.75 27.1191 30.75 26.9991 30.75 26.9391C30.75 26.7591 30.81 26.4591 30.85 26.3391C30.85 26.3391 30.87 26.2791 30.85 26.2791C30.85 26.2791 30.87 26.1591 30.91 26.0391C30.95 25.8591 30.97 25.7991 30.93 25.7991C30.9166 25.7591 30.91 25.7191 30.91 25.6791C30.93 25.4391 30.97 25.3191 31.01 25.3191C31.01 25.3191 31.05 25.2591 31.05 25.1991C31.09 25.0791 31.15 24.4191 31.15 24.3591H31.17V24.2391C31.17 24.1791 31.17 24.0591 31.19 23.9991C31.19 23.9591 31.1833 23.9391 31.17 23.9391C31.17 23.9391 31.13 23.8791 31.11 23.8791C31.09 23.8191 31.05 23.7591 31.01 23.6991C30.97 23.6991 30.97 23.6391 30.97 23.5791C30.99 23.5191 30.99 23.4591 30.91 23.2791C30.87 23.0991 30.59 23.0391 30.26 23.1591C30.16 23.1591 30.02 23.2191 29.94 23.2191C29.88 23.2191 29.78 23.2791 29.74 23.2791C29.7 23.2791 29.66 23.3391 29.64 23.3391C29.62 23.3391 29.6 23.3991 29.56 23.3991C29.52 23.4591 29.42 23.4591 29.2 23.3991C28.9 23.3991 28.65 23.3991 28.21 23.4591C27.72 23.5791 27.62 23.5791 27.5 23.5791C26.43 23.5191 26.19 23.4591 26.17 23.4591C26.13 23.3991 25.75 23.3991 25.58 23.4591C25.5 23.5191 25.44 23.5191 25.42 23.4591C25.42 23.4591 25.34 23.4591 25.26 23.5191C25.16 23.5791 25.04 23.5791 24.98 23.5791C24.92 23.5791 24.8 23.5191 24.74 23.5191C24.68 23.5191 24.6 23.4591 24.56 23.3991C24.52 23.3391 24.42 23.2791 24.07 23.2791C23.83 23.2791 23.52 23.3391 23.38 23.3391C23.24 23.3391 22.94 23.3991 22.71 23.3991C22.22 23.4591 22.02 23.4591 22 23.5791C21.98 23.6391 21.9 23.6391 21.88 23.5791C21.86 23.4591 21.5 23.5791 21.5 23.6991C21.48 23.7591 21.42 23.7591 21.42 23.6991C21.42 23.6391 21.28 23.6391 21.12 23.6391C20.96 23.6391 20.74 23.5791 20.66 23.5791C19.93 23.4591 18.62 23.4591 18.52 23.6391H18.36C18.3 23.5791 18.14 23.6391 18.04 23.6391C17.94 23.6991 17.82 23.7591 17.8 23.7591C17.76 23.7591 17.66 23.8191 17.58 23.8191C17.48 23.8791 17.44 23.8191 17.42 23.8191C17.4 23.7591 17.34 23.6991 17.28 23.6991C17.2 23.6991 17.14 23.6391 17.12 23.6391C17.1 23.6391 17 23.6391 16.88 23.6991C16.7333 23.7391 16.53 23.7391 16.27 23.6991C16.03 23.6391 15.87 23.6391 15.74 23.6991C15.52 23.7591 15.48 23.7591 15.42 23.6991C15.3 23.6991 14.75 23.8191 14.65 23.8791C14.45 24.0591 14.04 24.1791 13.54 24.2391C13.42 24.2391 13.3 24.2991 13.28 24.2991C13.24 24.3591 13.22 24.3591 13.16 24.2991H13.02C12.98 24.3591 12.88 24.3591 12.8 24.3591C12.68 24.2991 12.66 24.3591 12.62 24.4791C12.6 24.5391 12.56 24.6591 12.54 24.6591C12.48 24.6591 12.42 24.8991 12.42 25.1991C12.42 25.3191 12.4 25.4991 12.4 25.6191C12.38 25.7391 12.4 25.7991 12.42 25.8591C12.46 25.9191 12.46 25.9791 12.46 26.0391C12.46 26.0991 12.48 26.1591 12.5 26.1591C12.52 26.2191 12.52 26.2791 12.52 26.3391V26.3991C12.54 26.4591 12.56 26.4591 12.56 26.5191C12.56 26.6391 12.7 26.9991 12.78 27.0591C12.86 27.1191 12.96 27.2391 12.94 27.3591C12.94 27.4191 12.96 27.4191 13.02 27.4191C13.08 27.4191 13.08 27.4191 13.06 27.4191L13 27.4791L13.06 27.5991C13.08 27.6591 13.12 27.7191 13.14 27.7191C13.16 27.7191 13.2 27.7191 13.2 27.7791C13.2 27.8391 13.44 28.0191 13.58 28.0191C13.66 28.0191 13.7 28.0791 13.74 28.1391C13.78 28.2591 13.82 28.3191 13.84 28.3191C13.88 28.3191 13.96 28.3191 14.02 28.3791C14.1 28.4391 14.2 28.4391 14.32 28.3791C14.4 28.3791 14.74 28.3191 15.07 28.3191C15.6 28.3191 15.64 28.3191 15.76 28.1991C15.84 28.0791 15.9 28.0791 16.1 28.0791C16.32 28.0791 16.46 28.0791 16.87 28.2591C17.11 28.3191 17.92 28.4391 18.35 28.4391C19.3 28.3791 19.48 28.3791 19.62 28.3191C19.86 28.2591 20.79 28.2591 21.14 28.3191H21.65C21.75 28.2591 21.91 28.1991 22.03 28.1991C22.13 28.1391 22.23 28.1391 22.23 28.0791H22.33C22.41 28.1991 23.02 28.1991 23.24 28.1391C23.38 28.0791 23.79 28.0791 23.97 28.1391H24.6C24.9 28.1991 25.21 28.1991 25.27 28.2591C25.33 28.2591 25.45 28.3191 25.53 28.3791C25.59 28.3791 25.79 28.4391 25.97 28.4391C26.13 28.4391 26.27 28.4991 26.29 28.4991C26.29 28.4991 26.39 28.4991 26.51 28.4391H27.22C27.22 28.3191 27.48 28.2591 27.48 28.3191C27.48 28.3791 27.62 28.3791 27.64 28.3191H27.7C27.72 28.3791 27.84 28.4391 27.96 28.4991C28.06 28.4991 28.16 28.5591 28.16 28.5591H28.34H28.33Z" fill="#6C2BD9"/>
<path d="M31.42 34.1695C31.48 34.2295 31.48 34.2895 31.42 34.3495C31.36 34.4095 31.32 34.2895 31.32 34.1695C31.34 34.0495 31.36 34.0495 31.42 34.1695ZM30.29 33.8095C30.29 33.8095 30.33 33.8095 30.31 33.8095H30.25H30.29ZM30.94 33.6895H30.96H30.92C30.92 33.6895 30.92 33.6895 30.94 33.6895ZM30.11 33.5095C30.1366 33.5895 30.1366 33.6495 30.11 33.6895C30.07 33.7495 30.01 33.6295 30.01 33.5095C29.99 33.3895 30.07 33.3895 30.11 33.5095ZM31.16 33.3295L31.18 33.3895C31.18 33.4295 31.1733 33.4495 31.16 33.4495C31.16 33.4495 31.14 33.4495 31.14 33.3895L31.16 33.3295ZM31.2 33.1495C31.22 33.2695 31.2 33.3295 31.16 33.2695C31.12 33.2695 31.12 33.2095 31.12 33.1495C31.14 33.0295 31.18 33.0295 31.2 33.1495ZM31.2 32.4895C31.2 32.6095 31.18 32.6695 31.1 32.6095C31.06 32.5495 31.04 32.5495 31.08 32.4895C31.14 32.4295 31.2 32.4295 31.2 32.4895ZM15.96 31.2295C15.88 31.2295 15.7 31.2895 15.58 31.2895C15.42 31.2895 15.36 31.2895 15.32 31.4095C15.28 31.4695 15.26 31.4695 15.26 31.4695C15.24 31.4095 15.06 31.3495 14.73 31.3495C14.1 31.2895 13.94 31.2895 13.84 31.4095C13.84 31.4095 13.78 31.4695 13.74 31.4695C13.66 31.5895 13.64 31.6495 13.68 31.7695C13.7 31.8295 13.68 31.8295 13.66 31.8295C13.6 31.8295 13.58 31.9495 13.58 32.1295C13.58 32.1895 13.56 32.2495 13.54 32.3095C13.52 32.3695 13.52 32.4295 13.52 32.5495C13.54 32.6695 13.54 32.7895 13.54 32.8495C13.54 33.0295 13.48 33.3295 13.44 33.4495C13.44 33.4495 13.42 33.5095 13.44 33.5095C13.44 33.5095 13.42 33.6295 13.38 33.7495C13.34 33.9295 13.32 33.9895 13.36 33.9895C13.3733 34.0295 13.38 34.0695 13.38 34.1095C13.36 34.3495 13.32 34.4695 13.28 34.4695C13.28 34.4695 13.24 34.5295 13.24 34.5895C13.2 34.7095 13.14 35.3695 13.14 35.4295H13.12V35.5495C13.12 35.6095 13.12 35.7295 13.1 35.7895C13.1 35.8295 13.1066 35.8495 13.12 35.8495C13.12 35.8495 13.16 35.9095 13.18 35.9095C13.2 35.9695 13.24 36.0295 13.28 36.0895C13.32 36.0895 13.32 36.1495 13.32 36.2095C13.3 36.2695 13.3 36.3295 13.38 36.5095C13.42 36.6895 13.7 36.7495 14.03 36.6295C14.13 36.6295 14.27 36.5695 14.35 36.5695C14.41 36.5695 14.51 36.5095 14.55 36.5095C14.59 36.5095 14.63 36.4495 14.65 36.4495C14.67 36.4495 14.69 36.3895 14.73 36.3895C14.77 36.3295 14.87 36.3295 15.09 36.3895C15.39 36.3895 15.64 36.3895 16.08 36.3295C16.56 36.2095 16.67 36.2095 16.79 36.2095C17.86 36.2695 18.1 36.3295 18.12 36.3295C18.16 36.3895 18.54 36.3895 18.71 36.3295C18.79 36.2695 18.85 36.2695 18.87 36.3295C18.87 36.3295 18.95 36.3295 19.03 36.2695C19.13 36.2095 19.25 36.2095 19.31 36.2095C19.37 36.2095 19.49 36.2695 19.55 36.2695C19.61 36.2695 19.69 36.3295 19.73 36.3895C19.77 36.4495 19.87 36.5095 20.22 36.5095C20.46 36.5095 20.77 36.4495 20.91 36.4495C21.05 36.4495 21.35 36.3895 21.58 36.3895C22.07 36.3295 22.27 36.3295 22.29 36.2095C22.31 36.1495 22.39 36.1495 22.41 36.2095C22.43 36.3295 22.79 36.2095 22.79 36.0895C22.81 36.0295 22.87 36.0295 22.87 36.0895C22.87 36.1495 23.01 36.1495 23.17 36.1495C23.33 36.1495 23.55 36.2095 23.63 36.2095C24.36 36.3295 25.67 36.3295 25.77 36.1495H25.93C25.99 36.2095 26.15 36.1495 26.25 36.1495C26.35 36.0895 26.47 36.0295 26.49 36.0295C26.53 36.0295 26.63 35.9695 26.71 35.9695C26.81 35.9095 26.85 35.9695 26.87 35.9695C26.89 36.0295 26.95 36.0895 27.01 36.0895C27.09 36.0895 27.15 36.1495 27.17 36.1495C27.19 36.1495 27.29 36.1495 27.41 36.0895C27.5566 36.0495 27.76 36.0495 28.02 36.0895C28.26 36.1495 28.42 36.1495 28.55 36.0895C28.77 36.0295 28.81 36.0295 28.87 36.0895C28.99 36.0895 29.54 35.9695 29.64 35.9095C29.84 35.7295 30.25 35.6095 30.75 35.5495C30.87 35.5495 30.99 35.4895 31.01 35.4895C31.05 35.4295 31.07 35.4295 31.13 35.4895H31.27C31.31 35.4295 31.41 35.4295 31.49 35.4295C31.61 35.4895 31.63 35.4295 31.67 35.3095C31.69 35.2495 31.73 35.1295 31.75 35.1295C31.81 35.1295 31.87 34.8895 31.87 34.5895C31.87 34.4695 31.89 34.2895 31.89 34.1695C31.91 34.0495 31.89 33.9895 31.87 33.9295C31.83 33.8695 31.83 33.8095 31.83 33.7495C31.83 33.6895 31.81 33.6295 31.79 33.6295C31.77 33.5695 31.77 33.5095 31.77 33.4495V33.3895C31.75 33.3295 31.73 33.3295 31.73 33.2695C31.73 33.1495 31.59 32.7895 31.51 32.7295C31.43 32.6695 31.33 32.5495 31.35 32.4295C31.35 32.3695 31.33 32.3695 31.27 32.3695C31.21 32.3695 31.21 32.3695 31.23 32.3695L31.29 32.3095L31.23 32.1895C31.21 32.1295 31.17 32.0695 31.15 32.0695C31.13 32.0695 31.09 32.0695 31.09 32.0095C31.09 31.9495 30.85 31.7695 30.71 31.7695C30.63 31.7695 30.59 31.7095 30.55 31.6495C30.51 31.5295 30.47 31.4695 30.45 31.4695C30.41 31.4695 30.33 31.4695 30.27 31.4095C30.19 31.3495 30.09 31.3495 29.97 31.4095C29.89 31.4095 29.55 31.4695 29.22 31.4695C28.69 31.4695 28.65 31.4695 28.53 31.5895C28.45 31.7095 28.39 31.7095 28.19 31.7095C27.97 31.7095 27.83 31.7095 27.42 31.5295C27.18 31.4695 26.37 31.3495 25.94 31.3495C24.99 31.4095 24.81 31.4095 24.67 31.4695C24.43 31.5295 23.5 31.5295 23.15 31.4695H22.64C22.54 31.5295 22.38 31.5895 22.26 31.5895C22.16 31.6495 22.06 31.6495 22.06 31.7095H21.96C21.88 31.5895 21.27 31.5895 21.05 31.6495C20.91 31.7095 20.5 31.7095 20.32 31.6495H19.69C19.39 31.5895 19.08 31.5895 19.02 31.5295C18.96 31.5295 18.84 31.4695 18.76 31.4095C18.7 31.4095 18.5 31.3495 18.32 31.3495C18.16 31.3495 18.02 31.2895 18 31.2895C18 31.2895 17.9 31.2895 17.78 31.3495H17.07C17.07 31.4695 16.81 31.5295 16.81 31.4695C16.81 31.4095 16.67 31.4095 16.65 31.4695H16.59C16.57 31.4095 16.45 31.3495 16.33 31.2895C16.23 31.2895 16.13 31.2295 16.13 31.2295H15.95H15.96Z" fill="#6C2BD9"/>
</g>
<defs>
<clipPath id="clip0_542_268">
<rect width="42.88" height="48.77" fill="white"/>
</clipPath>
</defs>
</svg>
