<svg width="50" height="49" viewBox="0 0 50 49" fill="none" xmlns="http://www.w3.org/2000/svg">
<g clip-path="url(#clip0_542_275)">
<path d="M36.49 5.82022C36.13 5.54022 36.16 5.49022 36.58 5.67022C37.01 5.85022 37.21 6.11022 37.14 6.21022C36.94 6.23022 36.82 6.16022 36.49 5.83022V5.82022ZM42.48 11.6602C42.36 11.5002 42.33 11.4602 42.39 11.5402L42.66 11.8902L42.48 11.6502V11.6602ZM39.12 8.31022L39.01 8.21022L39.23 8.41022C39.34 8.51022 39.23 8.41022 39.12 8.31022ZM43.03 12.9102C42.97 12.5902 42.97 12.5902 43.18 12.8102C43.39 13.0302 43.52 13.4702 43.42 13.5302C43.4 13.7202 43.09 13.2202 43.03 12.9102ZM37.63 7.60022C37.51 7.51022 37.55 7.47022 37.55 7.47022C37.55 7.47022 37.6 7.48356 37.7 7.51022C37.7 7.51022 37.82 7.60022 37.78 7.64022L37.63 7.60022ZM37.29 7.58022C37.24 7.40022 37.39 7.43022 37.59 7.65022C37.83 7.82022 37.79 7.87022 37.75 7.92022C37.56 7.93022 37.33 7.76022 37.28 7.58022H37.29ZM36.91 8.12022C36.98 8.02022 37.13 8.06022 37.55 8.44022C37.74 8.65022 37.86 8.73022 37.59 8.62022C37.21 8.42022 36.87 8.18022 36.91 8.13022V8.12022ZM13.99 8.36022C14.2 8.23022 14.56 8.00022 14.96 7.75022C15.35 7.50022 15.81 7.31022 16.16 7.13022C17.1 6.65022 17.51 6.60022 17.71 6.37022C17.94 6.22022 18.07 6.18022 18.07 6.18022C18.15 6.20022 18.46 6.07022 19.03 5.97022C19.6 5.86022 20.4 5.62022 21.45 5.49022C23.49 5.21022 24.79 5.30022 25.65 5.34022C26.51 5.34022 26.94 5.45022 27.28 5.41022C27.28 5.41022 27.69 5.41022 27.95 5.44022C28.5 5.40022 28.64 5.41022 28.4 5.22022C28.28 5.13022 28.41 5.16022 28.54 5.19022C28.94 5.29022 29.1 5.19022 29.14 5.02022C29.15 4.96022 29.3 4.94022 29.45 4.91022C29.6 4.88022 29.61 4.83022 29.64 4.71022C29.53 4.56022 29.56 4.44022 29.57 4.39022C29.61 4.21022 30.11 4.02022 30.43 3.98022C30.43 3.98022 30.59 3.96022 30.45 3.92022C30.45 3.92022 30.63 3.82022 30.94 3.81022C31.27 3.73022 31.44 3.73022 31.15 3.63022C31.07 3.55689 31.0333 3.50356 31.04 3.47022C31.25 3.29022 31.58 3.27022 31.87 3.37022C31.87 3.37022 32.18 3.41022 32.2 3.36022C32.53 3.35022 33.21 2.88022 33.23 2.83022L33.38 2.88022L33.42 2.77022C33.44 2.71022 33.49 2.60022 33.66 2.60022C33.6733 2.56022 33.63 2.52356 33.53 2.49022C33.38 2.44022 33.25 2.33022 33.09 2.27022C32.96 2.16022 32.67 2.00022 32.38 1.83022C32.07 1.72022 32.09 1.67022 32.11 1.61022C32.28 1.61022 32.31 1.55022 31.73 1.16022C31.47 0.900224 29.2 0.170224 26.51 0.0502243C25.67 0.0302243 24.5 0.000224311 23.83 0.0402243C23.33 0.0702243 22.5 0.180224 22.17 0.200224C21.84 0.200224 21.51 0.320224 21.35 0.350224C21.19 0.380224 21.03 0.460224 20.7 0.510224C20.38 0.630224 19.55 0.690224 17.78 1.13022C17.17 1.26022 16.62 1.48022 16.06 1.68022C15.5 1.89022 14.93 2.06022 14.36 2.35022C13.79 2.63022 13.17 2.89022 12.53 3.26022C11.9 3.65022 11.19 4.04022 10.45 4.58022C8.84 5.77022 8 6.63022 7.4 7.19022C6.8 7.76022 6.53 8.13022 6.18 8.49022C3.22 11.7602 2.25 14.3802 1.6 15.8402C1.06 17.3602 0.85 17.8702 0.85 17.9602C0.78 18.1102 0.57 18.9602 0.35 19.9402C0.18 20.9202 0.07 22.0502 0.03 22.7102C0.07 23.3802 0.06 23.8802 0 24.0402C0 24.0402 0 24.1902 0 24.4602C0 24.7102 0 25.0402 0.07 25.3702C0.2 26.1902 0.24 27.1902 0.34 27.6702C0.4 28.1002 0.57 29.2102 0.63 29.6402C0.75 30.1202 0.88 30.7702 0.91 31.1102C0.95 31.4402 1.04 32.3002 2.22 34.8902C2.45 35.3302 2.69 35.8002 2.93 36.2902C3.2 36.7502 3.5 37.2002 3.78 37.6302C4.3 38.5102 4.92 39.1902 5.27 39.6602C5.95 40.6202 7.74 42.3602 9.15 43.5202C9.95 44.1202 10.65 44.5902 11.24 45.0102C11.85 45.3602 12.35 45.6402 12.78 45.8802C13.58 46.3502 14.03 46.4702 14.13 46.4602C14.31 46.4802 14.9 46.7502 15.03 46.8702C15.1 47.1302 17.96 47.9702 17.99 47.8502C18.16 47.8502 18.64 47.9702 18.62 48.0302C18.62 48.0602 18.89 48.1402 19.32 48.2502C19.76 48.3502 20.35 48.5402 21 48.6202C21.63 48.7102 22.4 48.8202 23.12 48.9302C23.83 48.9702 24.45 49.0102 24.76 49.0202C26.24 49.0902 28.03 48.9702 29.86 48.6602C30.77 48.5002 31.69 48.2402 32.59 48.0002C33.47 47.6702 34.36 47.4202 35.16 47.0302C38.42 45.6102 40.64 43.6602 40.89 43.3402C41.01 43.2302 41.38 42.9002 41.87 42.4602C42.31 42.2002 43.15 41.1702 43.71 40.5602C44.23 39.9202 44.72 39.0502 44.84 38.9302C45.05 38.6702 45.48 37.9702 45.79 37.4002C46.16 36.6702 46.38 36.4102 46.46 36.2702C46.61 36.1702 46.86 35.7402 47.07 35.2902C47.35 34.6902 47.61 34.2702 47.68 34.1202C47.77 33.9802 48.02 33.1902 48.29 32.2402C48.58 31.3802 48.61 30.9202 48.76 30.3202C48.83 30.0302 48.91 29.6902 49.02 29.2202C49.09 28.7602 49.17 28.1802 49.29 27.4002C49.52 25.4402 49.47 24.1002 49.32 23.1202C49.24 22.2202 49.13 21.6902 49.06 21.3302C49 20.9702 48.97 20.7602 48.96 20.5102C48.91 20.0202 48.51 18.7102 48.1 17.4502C47.6 16.2102 47.07 15.0202 46.83 14.6802C46.61 14.3402 46.34 13.9002 46.04 13.3902C45.66 12.8402 45.27 12.2902 44.88 11.7202C44.44 11.1102 43.88 10.4802 43.33 9.78022C42.71 9.14022 42.07 8.42022 41.33 7.75022C40.61 7.11022 39.86 6.51022 39.72 6.43022C39.42 6.29022 39.3 6.20022 38.94 5.87022C38.68 5.68022 38.29 5.40022 38.03 5.21022C37.74 5.07022 37.04 4.69022 36.49 4.36022C35.7 3.81022 35.51 3.83022 35.17 3.80022C35 3.79022 34.66 3.76022 34.52 3.70022C34.09 3.50022 33.57 3.53022 33.46 3.81022C33.41 3.92022 33.21 4.02022 33.16 4.14022C32.98 4.19022 33.09 4.31022 33.21 4.43022C33.46 4.61022 33.44 4.67022 33.41 4.72022C33.39 4.78022 33.5 4.89022 33.63 4.95022C33.74 5.07022 33.72 5.12022 33.69 5.18022L33.67 5.23022C33.78 5.35022 33.91 5.41022 33.89 5.46022C33.84 5.58022 34.62 6.28022 35.06 6.65022C35.52 6.99022 36.07 7.45022 35.88 7.48022C35.84 7.54022 35.98 7.59022 36.32 7.82022C36.5467 7.98689 36.6233 8.04022 36.55 7.98022L36.18 7.78022L36.45 8.12022C36.53 8.25022 36.72 8.46022 36.83 8.54022C36.94 8.62022 37.16 8.78022 37.13 8.83022C37.1 8.86022 37.43 9.12022 37.79 9.51022C38.15 9.90022 38.6 10.3602 38.96 10.6702C39.34 11.0602 39.47 11.3102 39.61 11.5402C39.71 11.8202 39.84 12.0502 39.93 12.1502C40.13 12.3302 40.43 12.7802 40.63 13.1202C40.77 13.3502 40.94 13.5902 41.14 13.8602C41.33 14.1302 41.52 14.4402 41.76 14.7602C42.08 15.1802 43.23 17.1502 43.89 19.1902C44.4 20.8502 44.5 21.7802 44.63 22.3602C44.75 22.9502 44.75 23.2102 44.86 23.6102C44.94 23.8702 44.99 24.1002 45.03 24.4402C45.06 24.7702 45.03 25.2102 45.03 25.8802C44.94 27.3402 44.89 28.3202 43.97 30.8302C43.7 31.5802 43.09 33.2102 42.07 34.7802C41.62 35.6002 40.98 36.3402 40.44 37.0702C40.13 37.4102 39.83 37.7302 39.55 38.0302C39.28 38.3402 39.01 38.6202 38.74 38.8402C38.16 39.3602 37.67 39.8502 37.15 40.2002C36.64 40.5702 36.21 40.9402 35.77 41.1702C35.34 41.4302 34.97 41.6602 34.63 41.8602C34.28 42.0302 33.97 42.1802 33.7 42.3102C32.64 42.8702 32.11 42.9802 31.69 43.1902C30.96 43.5202 29.07 44.0202 27.06 44.2302C25.04 44.4602 22.93 44.1802 21.82 43.9802C20.38 43.6802 19.59 43.5202 18.59 43.1402C18.27 43.0502 17.83 42.9602 17.41 42.8002C16.99 42.6302 16.56 42.4502 16.19 42.2802C15.53 42.0802 14.98 41.6902 14.94 41.7502C14.82 41.6802 14.59 41.5502 14.36 41.4102C13.74 40.9402 13.06 40.4302 12.22 39.8002C11.75 39.3802 11.26 38.9502 10.81 38.5502C10.4 38.1202 10.03 37.7402 9.77 37.4802C9.39 37.1802 8.88 36.4202 8.29 35.6902C7.8 34.8802 7.24 34.0802 7.03 33.5002C6.97 33.3802 6.73 32.9002 6.39 32.2202C6.14 31.5102 5.71 30.6202 5.49 29.6402C5.2 28.6702 5.1 27.6702 4.96 26.8802C4.89 26.0802 4.88 25.4802 4.89 25.2802C4.82 24.8802 4.95 24.0802 5.01 23.5602C4.98 23.1602 5.19 21.8502 5.4 20.6902C5.52 20.2102 5.64 19.7302 5.74 19.3302C5.84 18.9702 5.97 18.7302 5.98 18.6602C5.98 18.6602 6.19 18.0402 6.39 17.2702C6.69 16.6802 7.17 15.4502 7.7 14.6802C8.15 13.8702 8.55 13.3502 8.63 13.2502C8.53 13.1802 9.51 11.7602 9.6 11.8302C9.65 11.8702 10.27 11.1902 10.31 11.0502C10.4 10.9502 10.48 10.8502 10.58 10.7602C10.72 10.7102 11.36 10.2302 11.98 9.75022C12.5 9.34022 13.07 9.01022 13.07 9.01022C13.18 8.94022 13.47 8.67022 14.05 8.35022L13.99 8.36022Z" fill="#6C2BD9"/>
<path d="M37.78 25.2801C37.83 25.1501 37.89 25.1501 37.96 25.2801C38.02 25.4101 37.91 25.4901 37.79 25.4901C37.67 25.4501 37.67 25.4101 37.79 25.2801H37.78ZM37.2 27.5601C37.2067 27.5068 37.2067 27.4935 37.2 27.5201L37.18 27.6401V27.5601H37.2ZM37.26 26.2501V26.2101V26.2901C37.26 26.3301 37.26 26.2901 37.26 26.2501ZM36.84 27.8501C36.98 27.8001 36.98 27.8001 37.02 27.8901C37.06 27.9801 36.91 28.0701 36.79 28.0401C36.66 28.0401 36.7 27.9001 36.84 27.8501ZM36.92 25.7901L36.98 25.7501C37.02 25.7501 37.04 25.7635 37.04 25.7901C37.04 25.7901 37.04 25.8301 36.98 25.8301L36.92 25.7901ZM36.75 25.7101C36.87 25.6801 36.93 25.7101 36.86 25.7901C36.86 25.8701 36.8 25.8701 36.74 25.8601C36.62 25.8201 36.63 25.7401 36.75 25.7101ZM36.09 25.6901C36.21 25.6901 36.27 25.7301 36.2 25.8801C36.14 25.9501 36.13 25.9901 36.08 25.9101C36.03 25.8001 36.03 25.6901 36.09 25.6901ZM16.9 30.5001C16.83 30.3901 16.63 30.1701 16.53 30.0101C16.39 29.7901 16.37 29.7001 16.23 29.7001C16.15 29.6701 16.13 29.6401 16.13 29.6401C16.18 29.5801 16.07 29.3001 15.89 28.8201C15.58 27.8601 15.6 27.6001 15.42 27.4701C15.42 27.4701 15.34 27.3901 15.32 27.3201C15.17 27.2201 15.12 27.1901 15 27.2801C14.95 27.3301 14.94 27.2901 14.94 27.2601C14.93 27.1601 14.8 27.1501 14.63 27.1801C14.57 27.1901 14.51 27.1701 14.44 27.1401C14.37 27.1101 14.32 27.1201 14.2 27.1401C14.09 27.2001 13.97 27.2201 13.91 27.2301C13.73 27.2601 13.42 27.1901 13.29 27.1301C13.29 27.1301 13.23 27.1001 13.23 27.1301C13.23 27.1301 13.11 27.1101 12.98 27.0401C12.79 26.9801 12.72 26.9501 12.74 27.0401C12.7067 27.0735 12.67 27.0935 12.63 27.1001C12.39 27.1001 12.26 27.0201 12.24 26.9401C12.24 26.9401 12.17 26.8601 12.11 26.8701C11.98 26.8001 11.3 26.7301 11.24 26.7401V26.6901C11.24 26.6901 11.17 26.6901 11.11 26.7001C11.05 26.7001 10.93 26.7201 10.86 26.6801C10.82 26.6801 10.8033 26.6968 10.81 26.7301C10.81 26.7301 10.76 26.8301 10.77 26.8801C10.72 26.9301 10.67 27.0401 10.62 27.1401C10.63 27.2401 10.57 27.2401 10.51 27.2501C10.44 27.2101 10.38 27.2101 10.23 27.4401C10.07 27.5601 10.08 28.2901 10.43 29.0501C10.5 29.3001 10.63 29.6301 10.7 29.8201C10.75 29.9601 10.89 30.1801 10.93 30.2801C10.96 30.3801 11.06 30.4501 11.07 30.5001C11.09 30.5501 11.16 30.5701 11.2 30.6701C11.29 30.7401 11.36 30.9801 11.56 31.5001C11.87 32.1801 12.17 32.7101 12.82 33.5901C13.85 34.7201 13.87 34.7401 13.99 34.8701C14.41 35.3701 14.77 35.7501 15.09 36.0401C15.4 36.3301 15.62 36.5701 15.81 36.7101C16.15 36.9901 16.31 37.1301 16.32 37.1401C16.34 37.1901 16.54 37.3601 16.79 37.5301C17.04 37.6801 17.34 37.8401 17.52 37.9201C17.72 37.9701 17.85 38.0401 17.86 38.1201C17.86 38.1201 18.03 38.2201 18.24 38.2501C18.49 38.3001 18.75 38.4301 18.89 38.4901C19.02 38.5501 19.26 38.7401 19.4 38.7901C19.54 38.8401 19.7 38.9601 19.77 39.0601C19.85 39.1401 20.05 39.3201 20.86 39.5501C21.44 39.7101 22.18 39.8301 22.53 39.8601C22.87 39.9201 23.62 39.9701 24.16 39.9801C24.75 40.0001 25.17 39.9801 25.45 39.9301C25.73 39.9001 25.86 39.8601 25.88 39.8001C25.93 39.7401 26.12 39.7301 26.17 39.7901C26.23 39.9301 27.09 39.6901 27.07 39.5701C27.11 39.5001 27.25 39.4801 27.26 39.5401C27.26 39.6001 27.61 39.5601 27.99 39.4901C28.37 39.4001 28.9 39.3301 29.09 39.2801C29.53 39.2101 30.03 39.0301 30.55 38.8601C31.07 38.6701 31.59 38.4201 32.06 38.1901C32.51 37.9201 32.92 37.6701 33.22 37.4601C33.5 37.2401 33.68 37.0601 33.71 36.9901C33.75 36.9601 33.87 36.8801 34.03 36.7601C34.19 36.7301 34.46 36.4401 34.64 36.2701C34.79 36.0601 34.96 35.8301 35 35.7901C35.07 35.7201 35.22 35.5301 35.35 35.3901C35.47 35.1701 35.58 35.1401 35.62 35.1101C35.7 35.1101 35.84 35.0501 35.94 34.9401C36.07 34.8001 36.22 34.7301 36.25 34.6901C36.29 34.6601 36.44 34.4701 36.57 34.2001C36.84 33.7301 36.88 33.7701 37.42 33.0201C37.79 32.5601 37.99 32.2201 38.06 31.9301C38.25 31.4201 38.29 31.3401 38.41 31.2301C38.55 30.9701 38.91 29.6901 38.9 29.4401C38.88 29.1801 38.9 28.8101 38.96 28.3701C39.01 27.7401 39.05 27.2301 39.09 26.8001C39.11 26.5201 39.07 26.2301 39.07 26.1901C39.02 26.0901 39.02 26.0501 39.09 25.9101C39.09 25.8201 39.1 25.6801 39.11 25.5801C39.06 25.4901 39.04 25.2501 39.04 25.0701C39.09 24.7901 39.03 24.7401 38.9 24.6601C38.84 24.6201 38.71 24.5301 38.71 24.4901C38.71 24.3501 38.46 24.2401 38.16 24.2601C38.04 24.2701 37.86 24.2401 37.74 24.2601C37.62 24.2301 37.56 24.2801 37.5 24.3201C37.44 24.4101 37.38 24.4101 37.32 24.4201C37.26 24.4201 37.2 24.4701 37.2 24.5101C37.14 24.5501 37.08 24.5601 37.02 24.5601H36.96C36.9 24.6101 36.9 24.6501 36.84 24.6501C36.72 24.6601 36.37 24.9501 36.32 25.0901C36.27 25.2401 36.15 25.4201 36.03 25.3901C35.97 25.3901 35.98 25.4301 35.97 25.5301C35.97 25.6035 35.97 25.6268 35.97 25.6001L35.92 25.4901L35.79 25.5901C35.73 25.6201 35.66 25.6901 35.66 25.7301C35.66 25.7601 35.66 25.8301 35.59 25.8301C35.53 25.8301 35.32 26.2301 35.31 26.4601C35.29 26.5901 35.22 26.6501 35.14 26.7101C35.01 26.7601 34.94 26.8101 34.93 26.8501C34.92 26.9101 34.9 27.0401 34.82 27.1301C34.75 27.2501 34.72 27.4101 34.71 27.6101C34.67 27.7301 34.61 28.3001 34.4 28.7801C34.09 29.5801 34 29.6101 34.04 29.8501C34.09 30.0301 34.04 30.1201 33.86 30.4001C33.66 30.7101 33.54 30.9301 32.98 31.3401C32.71 31.6401 31.69 32.5001 31.13 32.9001C29.91 33.8501 29.59 33.9201 29.41 34.0801C29.1 34.3601 27.62 34.8301 27.05 34.8701C26.69 34.9201 26.49 34.9501 26.22 34.9901C26.06 35.0801 25.8 35.1601 25.59 35.1601C25.42 35.2301 25.25 35.2301 25.25 35.2901C25.22 35.2901 25.15 35.2901 25.08 35.2901C25.01 35.2501 24.72 35.2001 24.41 35.1701C24.09 35.1501 23.75 35.1401 23.56 35.1301C23.44 35.1401 23.21 35.1301 22.97 35.0901C22.74 35.0401 22.5 34.9601 22.36 34.8901C22.29 34.8801 21.83 34.7601 21.36 34.5701C20.89 34.3601 20.46 34.0901 20.39 34.0201C20.3 33.9801 20.15 33.8401 20.07 33.7101C19.98 33.6601 19.73 33.4401 19.48 33.2901C19.27 33.1301 19.12 32.9501 19.09 32.9301C19.09 32.9301 18.96 32.8301 18.76 32.7701C18.63 32.6701 18.39 32.4401 18.22 32.2901C18.04 32.1401 17.93 32.0201 17.91 32.0001C17.83 32.0801 17.49 31.8101 17.53 31.7701C17.57 31.7301 17.42 31.5601 17.35 31.5801L17.28 31.5101C17.31 31.4401 17.24 31.2501 17.17 31.0601C17.07 30.9301 17.02 30.7701 17.02 30.7701C17 30.7401 16.93 30.6701 16.86 30.5301L16.9 30.5001Z" fill="#6C2BD9"/>
<mask id="mask0_542_275" style="mask-type:luminance" maskUnits="userSpaceOnUse" x="14" y="16" width="8" height="8">
<path d="M16.03 20.3501C16.03 20.3501 16.08 20.3001 16.12 20.3201C16.16 20.3401 16.11 20.3801 16.05 20.4001C15.99 20.4001 15.98 20.4001 16.03 20.3501ZM16.09 21.2101C16.12 21.1501 16.12 21.1501 16.17 21.1501C16.21 21.1501 16.18 21.2201 16.14 21.2601C16.1 21.3101 16.07 21.2601 16.1 21.2101H16.09ZM15.56 20.6601C15.62 20.6201 15.65 20.6301 15.63 20.6601C15.64 20.6901 15.61 20.7001 15.58 20.7101C15.51 20.7201 15.5 20.6901 15.56 20.6601ZM15.23 20.7901C15.29 20.7701 15.32 20.7701 15.32 20.8401C15.3 20.8801 15.32 20.9001 15.27 20.8801C15.22 20.8501 15.2 20.8001 15.23 20.7901ZM18.68 16.3001C18.61 16.2801 18.43 16.2901 18.32 16.2801C18.17 16.2601 18.11 16.2601 18.07 16.3301C18.03 16.3601 16.39 16.8201 15.95 17.3901C15.51 17.9501 16 18.2101 15 19.7601C14.94 19.7601 14.9 20.4401 14.88 20.5201C14.87 20.5901 15.22 20.6701 15.15 20.6701C15.12 20.6701 15.13 20.7001 15.15 20.7401C15.15 20.7401 15.1533 20.7501 15.16 20.7701L15.11 20.7301L15.07 20.8001C15.07 20.8001 15.03 20.8701 15.03 20.8901C15.03 20.9101 15.05 20.9401 15.03 20.9501C15 20.9501 15 21.2001 15.06 21.3201C15.1 21.3801 15.09 21.4301 15.08 21.4801C15.05 21.5501 15.04 21.6001 15.05 21.6101C15.07 21.6401 15.11 21.7101 15.12 21.7701C15.14 21.8501 15.2 21.9301 15.29 22.0001C15.34 22.0601 15.58 22.2701 15.81 22.4601C16.19 22.7501 16.23 22.7501 16.36 22.7501C16.45 22.7301 16.5 22.7501 16.66 22.8301C16.84 22.9101 16.95 22.9601 17.28 23.1501C17.38 23.2001 17.62 23.2701 17.9 23.3001C18.18 23.3401 18.49 23.3201 18.7 23.2801C18.94 23.2301 19.12 23.1601 19.26 23.1001C19.41 23.0401 19.5 22.9801 19.58 22.9401C19.74 22.8501 19.8 22.8001 19.85 22.7501C19.94 22.6701 20.16 22.5001 20.36 22.3001C20.56 22.1001 20.74 21.8701 20.84 21.7501C20.95 21.5801 21 21.4801 21.07 21.3501C21.09 21.2501 21.11 21.1101 21.15 21.0101C21.15 20.9101 21.18 20.8301 21.15 20.8201C21.15 20.8001 21.17 20.7701 21.18 20.7401C21.27 20.7001 21.39 20.1601 21.35 19.9501C21.33 19.8201 21.32 19.4501 21.32 19.2801C21.32 19.2401 21.28 18.9801 21.18 18.7001C21.12 18.4101 20.96 18.1501 20.96 18.0801C20.93 18.0301 20.89 17.9101 20.87 17.8301C20.84 17.7801 20.74 17.6001 20.61 17.4701C20.56 17.4101 20.41 17.2301 20.4 17.2301C20.4 17.2301 20.32 17.1601 20.21 17.1101C20.13 17.0501 19.98 16.9401 19.86 16.8701C19.74 16.8101 19.66 16.7601 19.64 16.7501C19.61 16.8001 19.38 16.7301 19.39 16.7001C19.4 16.6701 19.28 16.6201 19.25 16.6401C19.23 16.6401 19.22 16.6201 19.2 16.6201C19.2 16.5801 19.1 16.5201 19 16.4501C18.91 16.4201 18.83 16.3701 18.83 16.3701C18.81 16.3701 18.76 16.3501 18.66 16.3301L18.68 16.3001Z" fill="white"/>
</mask>
<g mask="url(#mask0_542_275)">
<path d="M21.9467 14.9227L13.4391 15.667L14.2288 24.6925L22.7363 23.9482L21.9467 14.9227Z" fill="#6C2BD9"/>
</g>
<mask id="mask1_542_275" style="mask-type:luminance" maskUnits="userSpaceOnUse" x="27" y="15" width="7" height="8">
<path d="M28.4 19.27C28.4 19.27 28.45 19.22 28.49 19.24C28.53 19.26 28.48 19.3 28.42 19.32C28.36 19.32 28.35 19.32 28.4 19.27ZM28.46 20.13C28.49 20.07 28.49 20.07 28.54 20.07C28.58 20.07 28.55 20.14 28.51 20.18C28.47 20.23 28.44 20.18 28.47 20.13H28.46ZM27.93 19.58C27.99 19.54 28.02 19.55 28 19.58C28.01 19.61 27.98 19.62 27.95 19.63C27.88 19.64 27.87 19.61 27.93 19.58ZM27.6 19.71C27.66 19.69 27.69 19.69 27.69 19.76C27.67 19.8 27.69 19.82 27.64 19.8C27.59 19.77 27.57 19.72 27.6 19.71ZM31.05 15.22C30.98 15.2 30.8 15.21 30.69 15.2C30.54 15.18 30.48 15.18 30.44 15.25C30.4 15.28 28.76 15.74 28.32 16.31C27.88 16.87 28.37 17.13 27.37 18.68C27.31 18.68 27.27 19.36 27.25 19.44C27.24 19.51 27.59 19.59 27.52 19.59C27.49 19.59 27.5 19.62 27.52 19.66C27.52 19.66 27.5233 19.67 27.53 19.69L27.48 19.65L27.44 19.72C27.44 19.72 27.4 19.79 27.4 19.81C27.4 19.83 27.42 19.86 27.4 19.87C27.37 19.87 27.37 20.12 27.43 20.24C27.47 20.3 27.46 20.35 27.45 20.4C27.42 20.47 27.41 20.52 27.42 20.53C27.44 20.56 27.48 20.63 27.49 20.69C27.51 20.77 27.57 20.85 27.66 20.92C27.71 20.98 27.95 21.19 28.18 21.38C28.56 21.67 28.6 21.67 28.73 21.67C28.82 21.65 28.87 21.67 29.03 21.75C29.21 21.83 29.32 21.88 29.65 22.07C29.75 22.12 29.99 22.19 30.27 22.22C30.55 22.26 30.86 22.24 31.07 22.2C31.31 22.15 31.49 22.08 31.63 22.02C31.78 21.96 31.87 21.9 31.95 21.86C32.11 21.77 32.17 21.72 32.22 21.67C32.31 21.59 32.53 21.42 32.73 21.22C32.93 21.02 33.11 20.79 33.21 20.67C33.32 20.5 33.37 20.4 33.44 20.27C33.46 20.17 33.48 20.03 33.52 19.93C33.52 19.83 33.55 19.75 33.52 19.74C33.52 19.72 33.54 19.69 33.55 19.66C33.64 19.62 33.76 19.08 33.72 18.87C33.7 18.74 33.69 18.37 33.69 18.2C33.69 18.16 33.65 17.9 33.55 17.62C33.49 17.33 33.33 17.07 33.33 17C33.3 16.95 33.26 16.83 33.24 16.75C33.21 16.7 33.11 16.52 32.98 16.39C32.93 16.33 32.78 16.15 32.77 16.15C32.77 16.15 32.69 16.08 32.58 16.03C32.5 15.97 32.35 15.86 32.23 15.79C32.11 15.73 32.03 15.68 32.01 15.67C31.98 15.72 31.75 15.65 31.76 15.62C31.77 15.59 31.65 15.54 31.62 15.56C31.6 15.56 31.59 15.54 31.57 15.54C31.57 15.5 31.47 15.44 31.37 15.37C31.28 15.34 31.2 15.29 31.2 15.29C31.18 15.29 31.13 15.27 31.03 15.25L31.05 15.22Z" fill="white"/>
</mask>
<g mask="url(#mask1_542_275)">
<path d="M34.3154 13.8485L25.8079 14.5928L26.5976 23.6183L35.1051 22.874L34.3154 13.8485Z" fill="#6C2BD9"/>
</g>
</g>
<defs>
<clipPath id="clip0_542_275">
<rect width="49.42" height="49.01" fill="white"/>
</clipPath>
</defs>
</svg>
