<svg width="51" height="46" viewBox="0 0 51 46" fill="none" xmlns="http://www.w3.org/2000/svg">
<g id="Healthcare" clip-path="url(#clip0_540_239)">
<g id="Layer_1-2">
<path id="Vector" d="M27.75 5.61998C27.35 5.83998 27.31 5.79998 27.64 5.47998C27.97 5.15998 28.29 5.07998 28.36 5.17998C28.31 5.36998 28.19 5.44998 27.75 5.62998V5.61998ZM35.57 3.06998C35.28 3.07998 35.28 3.07998 35.42 3.06998C35.57 3.05998 35.71 3.06998 35.86 3.06998H35.57ZM31.05 4.19998L30.92 4.25998C31.05 4.19998 31.19 4.14998 31.19 4.14998C31.32 4.08998 31.19 4.14998 31.06 4.20998L31.05 4.19998ZM36.85 3.44998C36.58 3.28998 36.58 3.28998 36.87 3.26998C37.17 3.23998 37.58 3.42998 37.55 3.55998C37.67 3.69998 37.12 3.58998 36.84 3.44998H36.85ZM29.8 5.23998C29.68 5.31998 29.65 5.25998 29.65 5.25998C29.63 5.22665 29.66 5.18332 29.74 5.12998C29.74 5.12998 29.86 5.04998 29.89 5.10998L29.8 5.23998ZM29.65 5.54998C29.47 5.51998 29.56 5.39998 29.83 5.29998C30.07 5.14998 30.11 5.20998 30.13 5.25998C30.06 5.41998 29.83 5.57998 29.65 5.54998ZM30 6.10998C29.94 6.01998 30.01 5.85998 30.52 5.65998C30.79 5.58998 30.91 5.52998 30.7 5.69998C30.37 5.92998 30.03 6.15998 30 6.09998V6.10998ZM8.57 8.23998C8.88 7.86998 9.62 7.07998 10.19 6.67998C10.57 6.40998 10.83 6.23998 11.03 6.12998C11.22 5.99998 11.33 5.89998 11.41 5.80998C11.59 5.65998 11.69 5.60998 11.69 5.60998C11.82 5.62998 12.76 5.16998 14.5 5.09998C16.2 5.13998 17.28 5.59998 17.99 5.88998C18.71 6.17998 19.06 6.39998 19.37 6.47998C19.37 6.47998 19.72 6.63998 19.93 6.77998C20.43 6.94998 20.56 6.99998 20.42 6.73998C20.34 6.61998 20.46 6.67998 20.56 6.76998C20.88 7.00998 21.05 6.99998 21.16 6.84998C21.2 6.79998 21.34 6.83998 21.49 6.86998C21.64 6.90998 21.67 6.85998 21.75 6.75998C21.71 6.57998 21.79 6.48998 21.83 6.43998C21.94 6.28998 22.47 6.31998 22.76 6.43998C22.76 6.43998 22.91 6.48998 22.8 6.38998C22.8 6.38998 22.99 6.38998 23.29 6.49998C23.63 6.55998 23.79 6.61998 23.56 6.41998C23.5133 6.32665 23.5033 6.26332 23.53 6.22998C23.8 6.14998 24.12 6.24998 24.34 6.46998C24.34 6.46998 24.6 6.63998 24.64 6.59998C24.94 6.72998 25.74 6.59998 25.79 6.54998L25.9 6.65998C25.9 6.65998 25.94 6.61998 25.99 6.57998C26.03 6.53998 26.12 6.44998 26.28 6.52998C26.28 6.52998 26.2567 6.47998 26.21 6.37998C26.1 6.26998 26.03 6.10998 25.91 5.99998C25.84 5.83998 25.65 5.56998 25.46 5.29998C25.23 5.06998 25.26 5.03998 25.3 4.98998C25.46 5.04998 25.51 5.00998 25.13 4.43998C25.01 4.09998 23.29 2.41998 20.67 1.25998C19.86 0.869983 18.65 0.479983 17.93 0.309983C17.66 0.249983 17.3 0.169983 16.96 0.119983C16.59 0.0799832 16.25 0.0399832 16.1 0.0299832C15.73 -0.0300168 15.35 0.0299832 15.17 0.0199832C14.98 0.0199832 14.8 0.0499832 14.42 0.0599832C14.05 0.159983 13.1 0.0699832 11.11 0.579983C9.78 0.999983 8.66 1.55998 7.53 2.33998C6.41 3.11998 5.27 4.13998 4.11 5.64998C2.88 7.31998 2.4 8.45998 2.04 9.21998C1.69 9.98998 1.54 10.42 1.35 10.89C-0.180001 15.08 -0.0300007 17.96 0.0499993 19.53C0.0499993 20.34 0.179999 20.89 0.209999 21.24C0.259999 21.59 0.279999 21.75 0.279999 21.79C0.249999 21.96 0.429999 22.84 0.719999 23.83C0.829999 24.33 1.06 24.84 1.24 25.31C1.44 25.77 1.59 26.21 1.78 26.5C2.15 27.08 2.38 27.53 2.41 27.71C2.41 27.71 2.48 27.87 2.63 28.08C2.77 28.29 2.97 28.56 3.18 28.83C3.67 29.52 4.3 30.27 4.61 30.66C4.9 31.07 5.53 31.8 5.86 32.16C6.18 32.53 6.6 33.01 6.79 33.27C6.98 33.53 7.5 34.17 9.54 35.87C10.98 37.05 12.84 38.39 13.69 39.01C14.52 39.61 16.39 40.95 17.71 41.89C19.15 42.92 20.15 43.63 20.86 44.14C20.95 44.2 21.03 44.26 21.11 44.31C21.23 44.39 21.34 44.46 21.45 44.53C21.66 44.66 21.85 44.76 22.01 44.83C22.33 44.97 22.51 45.02 22.58 45.01C22.81 45.07 23.72 45.31 23.96 45.38C24.06 45.47 25.24 45.61 26.31 45.28C27.4 44.98 28.23 44.3 28.18 44.26C28.21 44.22 28.29 44.15 28.35 44.1C28.4 44.06 28.45 44.01 28.5 43.97C28.6 43.89 28.7 43.84 28.72 43.86C28.76 43.91 29.59 43.29 30.55 42.57C31.48 41.9 32.88 40.89 33.35 40.55C35.55 38.97 38.6 36.66 41.06 34.44C43.53 32.24 45.36 30.11 45.52 29.71C45.62 29.59 45.93 29.21 46.34 28.72C46.66 28.34 47.42 27.29 47.82 26.55C48.02 26.16 48.22 25.75 48.38 25.44C48.54 25.1 48.64 24.82 48.68 24.74C48.81 24.42 49.16 23.67 49.35 23.01C49.56 22.18 49.73 21.88 49.77 21.71C49.86 21.56 50.03 21.06 50.13 20.55C50.29 19.87 50.35 19.35 50.37 19.18C50.37 19.02 50.49 18.1 50.37 17.12C50.3 16.2 50.23 15.75 50.14 15.13C50.04 14.51 49.96 13.72 49.52 12.18C48.98 10.23 48.31 9.01998 47.74 8.17998C46.7 6.61998 46.42 6.40998 46.17 5.95998C45.83 5.56998 44.87 4.51998 43.72 3.68998C42.59 2.82998 41.29 2.26998 40.89 2.10998C40.05 1.84998 38.8 1.42998 37.17 1.28998C35.55 1.12998 33.57 1.28998 31.58 2.00998C30.61 2.31998 29.75 2.81998 29.6 2.90998C29.34 3.11998 29.18 3.17998 28.73 3.37998C28.45 3.54998 28.04 3.81998 27.76 3.98998C27.54 4.23998 26.86 4.68998 26.38 5.11998C25.6 5.68998 25.53 5.84998 25.38 6.15998C25.31 6.30998 25.16 6.61998 25.05 6.72998C24.97 6.80998 24.89 6.89998 24.83 6.99998C24.96 7.12998 25.11 7.27998 25.27 7.44998V7.46998L25.29 7.48998L25.26 7.53998C25.22 7.59998 25.16 7.64998 25.12 7.69998C24.97 7.70998 24.97 7.83998 25.1 7.96998C25.4 8.10998 25.46 8.07998 25.46 8.15998C25.46 8.23998 25.76 8.17998 25.89 8.02998C26.04 7.96998 26.08 8.00998 26.12 8.04998L26.16 8.08998C26.31 8.02998 26.41 7.92998 26.45 7.96998C26.54 8.04998 27.5 7.60998 27.97 7.31998C28.43 6.98998 29.07 6.69998 29.02 6.86998C29.06 6.91998 29.17 6.83998 29.49 6.59998C29.83 6.37998 29.83 6.38998 29.72 6.45998C29.62 6.54998 29.51 6.62998 29.42 6.72998C29.55 6.67998 29.69 6.63998 29.82 6.60998C29.97 6.58998 30.22 6.49998 30.33 6.42998C30.44 6.35998 30.66 6.21998 30.7 6.27998C30.72 6.30998 31.09 6.17998 31.55 5.99998C32.02 5.84998 32.58 5.66998 32.99 5.54998C33.46 5.38998 33.71 5.42998 33.95 5.41998C34.21 5.48998 34.44 5.52998 34.56 5.50998C34.79 5.45998 35.25 5.44998 35.59 5.48998C36.04 5.56998 36.6 5.57998 37.27 5.66998C37.49 5.71998 38.08 5.81998 38.8 6.11998C39.52 6.40998 40.38 6.88998 41.13 7.49998C42.34 8.50998 42.83 9.24998 43.19 9.67998C43.52 10.13 43.69 10.32 43.92 10.63C44.28 11.01 44.48 11.34 44.98 12.53C45.23 13.2 45.41 13.75 45.55 14.46C45.7 15.17 45.81 16.05 45.79 17.34C45.81 18.14 45.71 19.66 45.11 21.3C44.54 22.93 43.45 24.61 42.6 25.73C40.67 28.25 39.13 29.59 38.21 30.47C37.33 31.29 36.93 31.65 36.46 32.08C35.23 33.28 29.85 37.41 27.75 38.86C27.09 39.35 26.58 39.73 26.12 40.07C26 40.16 25.89 40.24 25.78 40.32L25.61 40.44L25.53 40.5C25.44 40.56 25.35 40.61 25.26 40.65C25.05 40.81 24.61 40.9 24.29 40.76C24.15 40.73 24.01 40.67 23.9 40.61C23.68 40.47 23.51 40.36 23.5 40.38C23.38 40.29 23.14 40.11 22.9 39.93C22.49 39.46 18.86 36.8 17.51 35.89C16.64 35.32 14.27 33.56 13.31 32.69C13.09 32.51 11.48 31.26 9.99 29.8C8.54 28.3 7.32 26.73 7.21 26.35C6.99 26.03 6.61 25.35 6.46 24.86C6.26 24.53 5.78 23.37 5.5 22.28C5.2 21.33 5.18 20.42 5.15 20.3C5.15 20.3 5.03 19.68 4.96 18.9C4.9 18.24 4.91 16.97 5.04 16.08C5.16 15.19 5.31 14.57 5.33 14.44C5.26 14.43 5.33 14.01 5.42 13.6C5.52 13.19 5.66 12.8 5.68 12.8C5.72 12.81 6.06 11.98 6.05 11.84L6.21 11.49C6.31 11.4 6.69 10.73 7.14 10.12C7.46 9.57998 7.88 9.11998 7.88 9.11998C7.95 9.00998 8.18 8.72998 8.57 8.26998V8.23998Z" fill="#6C2BD9"/>
<path id="Vector_2" d="M1.28 19.89C1.13 19.83 1.13 19.77 1.28 19.71C1.43 19.65 1.52 19.77 1.52 19.89C1.47 20.01 1.42 20.01 1.28 19.89ZM4.01 20.25C3.94333 20.25 3.92667 20.25 3.96 20.25H4.11H4.01ZM2.45 20.37H2.4H2.5C2.5 20.37 2.5 20.37 2.45 20.37ZM4.45 20.55C4.38333 20.47 4.38333 20.41 4.45 20.37C4.55 20.31 4.69 20.43 4.69 20.55C4.74 20.67 4.54 20.67 4.45 20.55ZM1.91 20.73L1.86 20.67C1.86 20.63 1.87666 20.61 1.91 20.61C1.91 20.61 1.96 20.61 1.96 20.67L1.91 20.73ZM1.81 20.91C1.76 20.79 1.81 20.73 1.91 20.79C2.01 20.79 2.01 20.85 2.01 20.91C1.96 21.03 1.86 21.03 1.81 20.91ZM1.81 21.57C1.81 21.45 1.86 21.39 2.05 21.45C2.15 21.51 2.2 21.51 2.1 21.57C1.95 21.63 1.81 21.63 1.81 21.57ZM29.73 23.83C29.93 23.83 30.36 23.77 30.66 23.77C31.05 23.77 31.2 23.77 31.29 23.65C31.39 23.59 31.44 23.59 31.44 23.59C31.49 23.65 31.93 23.71 32.71 23.71C34.22 23.77 34.61 23.77 34.86 23.65C34.86 23.65 35.01 23.59 35.1 23.59C35.3 23.47 35.34 23.41 35.25 23.29C35.2 23.23 35.25 23.23 35.3 23.23C35.45 23.23 35.5 23.11 35.5 22.93C35.5 22.87 35.55 22.81 35.6 22.75C35.65 22.69 35.65 22.63 35.65 22.51C35.6 22.39 35.6 22.27 35.6 22.21C35.6 22.03 35.75 21.73 35.84 21.61C35.84 21.61 35.89 21.55 35.84 21.55C35.84 21.55 35.89 21.43 35.99 21.31C36.09 21.13 36.14 21.07 36.04 21.07C36.0067 21.03 35.99 20.99 35.99 20.95C36.04 20.71 36.14 20.59 36.23 20.59C36.23 20.59 36.33 20.53 36.33 20.47C36.43 20.35 36.57 19.69 36.57 19.63H36.62V19.51C36.62 19.45 36.62 19.33 36.67 19.27C36.67 19.23 36.6533 19.21 36.62 19.21C36.62 19.21 36.52 19.15 36.47 19.15C36.42 19.09 36.32 19.03 36.23 18.97C36.13 18.97 36.13 18.91 36.13 18.85C36.18 18.79 36.18 18.73 35.98 18.55C35.88 18.37 35.2 18.31 34.42 18.43C34.18 18.43 33.83 18.49 33.64 18.49C33.49 18.49 33.25 18.55 33.15 18.55C33.05 18.55 32.95 18.61 32.91 18.61C32.87 18.61 32.81 18.67 32.71 18.67C32.61 18.73 32.37 18.73 31.83 18.67C31.1 18.67 30.51 18.67 29.44 18.73C29.28 18.8 29.24 18.83 29.19 18.84C29.16 18.82 29.15 18.81 29.14 18.79C27.78 17.1 27.3 16.5 27.27 16.47C27.19 16.29 26.03 14.96 25.53 14.48C25.27 14.28 25.1 14.08 25.05 13.93C25.05 13.93 24.81 13.65 24.56 13.46C24.26 13.21 23.91 12.81 23.73 12.6C23.71 12.58 23.69 12.55 23.64 12.5C23.48 12.7 23.22 12.99 23.08 13.18C22.92 13.4 22.7 13.61 22.57 13.68C22.45 13.75 22.15 14.05 21.21 15.36C20.93 15.77 20.57 16.29 20.19 16.83C19.92 17.23 19.69 17.57 19.57 17.74C19.37 18.02 18.99 18.65 18.68 19.08C18.04 20.07 17.76 20.46 17.83 20.57C17.85 20.64 17.74 20.8 17.66 20.81C17.53 20.78 17.12 21.56 17.22 21.63C17.22 21.74 17.22 21.73 17.17 21.7C17.12 21.66 17.08 21.72 17.04 21.78C16.99 21.85 16.9 21.87 16.89 21.89C16.85 21.91 16.82 21.93 16.78 21.96C16.67 21.82 16.57 21.73 16.47 21.66C16.45 21.65 16.46 21.66 16.42 21.62L16.21 21.45C16.09 21.36 15.97 21.27 15.84 21.17C15.62 21.01 15.47 20.92 15.4 20.92C15.36 20.89 15.25 20.79 15.1 20.67C15.03 20.53 14.69 20.32 14.5 20.16C14.27 20.05 14.01 19.9 13.98 19.87C13.91 19.81 13.68 19.69 13.53 19.57C13.3 19.46 13.27 19.35 13.23 19.32C13.23 19.24 13.19 19.13 12.96 18.93C12.7 18.71 12.53 18.48 12.46 18.43C12.4 18.38 12.15 18.17 11.82 17.93C11.75 17.93 11.68 17.94 11.58 17.95C11.09 17.98 10.86 18 10.53 18C10.4 18 10.24 18 9.98 17.99C9.85 17.99 9.67 17.97 9.44 17.96C8.85 17.9 8.46 17.9 8.17 17.96C7.63 18.02 7.53 18.02 7.39 17.96C7.1 17.96 5.78 18.08 5.53 18.14C5.04 18.32 4.06 18.44 2.84 18.5C2.55 18.5 2.25 18.56 2.21 18.56C2.11 18.62 2.06 18.62 1.92 18.56H1.58C1.48 18.62 1.24 18.62 1.04 18.62C0.749998 18.56 0.699998 18.62 0.599998 18.74C0.549998 18.8 0.449998 18.92 0.399998 18.92C0.249998 18.92 0.109998 19.16 0.109998 19.46C0.109998 19.58 0.0599982 19.76 0.0599982 19.88C0.00999825 20 0.0599982 20.06 0.109998 20.12C0.209998 20.18 0.209998 20.24 0.209998 20.3C0.209998 20.36 0.259998 20.42 0.309998 20.42C0.359998 20.48 0.359998 20.54 0.359998 20.6V20.66C0.409998 20.72 0.459998 20.72 0.459998 20.78C0.459998 20.9 0.799998 21.26 0.999998 21.32C1.2 21.38 1.44 21.5 1.39 21.62C1.39 21.68 1.44 21.68 1.59 21.68C1.74 21.68 1.74 21.68 1.69 21.68L1.54 21.74L1.69 21.86C1.74 21.92 1.84 21.98 1.89 21.98C1.94 21.98 2.04 21.98 2.04 22.04C2.04 22.1 2.63 22.28 2.97 22.28C3.17 22.28 3.26 22.34 3.36 22.4C3.46 22.52 3.56 22.58 3.6 22.58C3.7 22.58 3.89 22.58 4.04 22.64C4.24 22.7 4.48 22.7 4.77 22.64C4.97 22.64 5.8 22.58 6.58 22.58C7.85 22.58 7.95 22.58 8.24 22.46C8.44 22.34 8.58 22.34 9.07 22.34C9.34 22.34 9.56 22.34 9.83 22.36C9.89 22.36 9.96 22.37 10.05 22.38C10.06 22.38 10.08 22.4 10.09 22.41C10.11 22.44 10.14 22.47 10.15 22.51C10.15 22.51 10.15 22.51 10.16 22.51C10.16 22.53 10.18 22.57 10.19 22.6V22.62V22.63L10.27 22.71L10.62 23.04C11.1 23.49 11.61 23.96 11.99 24.28C13.09 25.17 13.73 25.69 14.17 26.05C14.83 26.59 15.12 26.81 15.37 26.99C15.77 27.29 16.67 28.03 17.66 28.87C18.52 27.67 19.48 26.36 20 25.69C20.52 24.97 20.8 24.58 21.17 24.06C21.26 23.83 21.44 23.47 21.61 23.24C21.7 23.01 21.85 22.81 21.8 22.77C21.83 22.73 21.89 22.65 21.94 22.57C22.15 22.48 23.01 21.29 23.27 20.82C23.31 20.74 23.37 20.63 23.45 20.51C23.53 20.39 23.6 20.29 23.67 20.18C23.7 20.13 23.75 20.09 23.79 20.09C23.79 20.08 23.86 19.99 23.93 19.9C23.97 19.9 23.99 19.88 24.02 19.87C24.05 19.93 24.07 19.98 24.08 20.03C24.09 20.04 24.1 20.15 24.1 20.23C24.1 20.23 24.1 20.33 24.12 20.34C24.13 20.36 24.1 20.41 24.1 20.41C24.11 20.42 24.04 20.34 24.34 20.59C24.5 20.77 24.82 21.14 25.05 21.4C25.3 21.69 25.48 21.9 25.52 21.94C25.61 21.87 26.44 22.72 26.41 22.77C26.37 22.82 26.81 23.32 26.9 23.33L27.07 23.53H27.09C27.16 23.59 27.7 23.65 28.26 23.71C28.74 23.71 29.22 23.77 29.22 23.77H29.77L29.73 23.83Z" fill="#6C2BD9"/>
</g>
</g>
<defs>
<clipPath id="clip0_540_239">
<rect width="50.4" height="45.5" fill="white"/>
</clipPath>
</defs>
</svg>
