<svg width="46" height="47" viewBox="0 0 46 47" fill="none" xmlns="http://www.w3.org/2000/svg">
<g clip-path="url(#clip0_542_252)">
<path d="M34.59 44.3295C35.1 44.3895 35.1 44.4495 34.59 44.5095C34.08 44.5695 33.75 44.4495 33.75 44.3295C33.92 44.2095 34.09 44.2095 34.59 44.3295ZM25.15 43.9695C25.3767 43.9695 25.4333 43.9695 25.32 43.9695H24.81H25.15ZM30.55 43.8495H30.72H30.38C30.21 43.8495 30.38 43.8495 30.55 43.8495ZM23.64 43.6695C23.8667 43.7495 23.8667 43.8095 23.64 43.8495C23.3 43.9095 22.8 43.7895 22.8 43.6695C22.63 43.5495 23.31 43.5495 23.64 43.6695ZM32.41 43.4895C32.58 43.4895 32.58 43.5495 32.58 43.5495C32.58 43.5895 32.5233 43.6095 32.41 43.6095C32.41 43.6095 32.24 43.6095 32.24 43.5495L32.41 43.4895ZM32.75 43.3095C32.92 43.4295 32.75 43.4895 32.41 43.4295C32.07 43.4295 32.07 43.3695 32.07 43.3095C32.24 43.1895 32.58 43.1895 32.74 43.3095H32.75ZM32.75 42.6495C32.75 42.7695 32.58 42.8295 31.91 42.7695C31.57 42.7095 31.4 42.7095 31.74 42.6495C32.25 42.5895 32.75 42.5895 32.75 42.6495ZM39.74 22.2195C39.75 22.8595 39.78 24.4595 39.8 25.4195C39.8 26.7695 39.8 27.2695 39.92 27.6095C39.98 27.9495 39.98 28.1195 39.98 28.1195C39.92 28.2895 39.86 29.8095 39.86 32.4995C39.8 37.7295 39.8 39.0795 39.92 39.9195C39.92 39.9195 39.93 40.0595 39.95 40.2195C39.95 40.3095 39.96 40.4095 39.97 40.4895C39.97 40.5395 39.97 40.5795 39.97 40.6095C40.07 40.8295 40.09 40.9195 40.25 40.8195C40.32 40.7695 40.31 40.8295 40.29 40.8995C40.24 41.0895 40.31 41.1995 40.47 41.2795C40.52 41.2995 40.55 41.4095 40.55 41.5195C40.55 41.6295 40.6 41.6595 40.7 41.7295C40.85 41.7095 40.96 41.7595 41.01 41.7995C41.17 41.8795 41.23 42.3795 41.09 42.6795C41.09 42.6795 41.03 42.8295 41.13 42.7195C41.13 42.7195 41.13 42.9095 40.95 43.1995C40.81 43.5395 40.67 43.6795 40.96 43.4895C41.13 43.4395 41.13 43.4395 41.17 43.4895C41.18 43.7795 40.93 44.1195 40.57 44.2695C40.57 44.2695 40.23 44.4695 40.25 44.5295C39.95 44.7795 39.38 45.5195 39.36 45.5795H39.12C39.12 45.5795 39.12 45.6495 39.12 45.7095C39.12 45.7695 39.13 45.8895 38.88 45.9595C38.88 46.0195 38.88 46.0195 39.14 46.0095C39.4 46.0095 39.66 46.0195 39.92 45.9795C40.19 45.9895 40.72 45.9195 41.24 45.7495C41.73 45.5195 41.75 45.5495 41.78 45.6095C41.57 45.7795 41.6 45.9095 42.65 45.3895C42.91 45.2795 43.97 44.6095 44.69 43.0295C44.86 42.6395 45.01 42.1995 45.1 41.7195C45.14 41.4795 45.18 41.2295 45.19 40.9795C45.19 40.8495 45.2 40.7195 45.21 40.5895V40.3495C45.2 39.7395 45.18 39.0895 45.15 38.4195C45.13 37.6295 45.1 36.3495 45.09 35.7195C45.09 35.2095 45.03 34.3695 45.03 34.0295C45.03 33.6895 44.97 33.3595 44.97 33.1895C44.97 33.0195 44.91 32.8495 44.91 32.5195C44.85 32.1795 44.85 31.3395 44.91 29.4795C44.91 26.9495 44.91 24.9295 44.85 21.2195C44.73 17.1695 44.73 16.3295 44.73 15.3195C44.77 10.8795 44.8 8.12953 44.81 6.46953C44.81 6.36953 44.81 6.26953 44.81 6.16953C44.81 6.01953 44.81 5.87953 44.8 5.73953C44.8 5.45953 44.74 5.19953 44.71 4.96953C44.62 4.50953 44.5 4.14953 44.39 3.87953C44.16 3.33953 44.02 3.11953 43.98 3.05953C43.88 2.81953 43.06 1.47953 41.49 0.749531C40.73 0.379531 39.82 0.169531 39 0.169531C38.43 0.169531 38.03 0.189531 37.68 0.199531C37.01 0.259531 36.5 0.259531 36.33 0.199531C36.33 0.199531 35.66 0.199531 34.98 0.259531C34.14 0.319531 33.13 0.319531 32.62 0.319531C32.17 0.309531 31.05 0.269531 30.6 0.259531C30.09 0.259531 29.42 0.199531 29.08 0.139531C28.74 0.0795313 27.9 0.0195312 25.03 0.0195312C23.04 0.0395312 20.46 0.0695312 19.3 0.0795312C18.14 0.0895312 15.56 0.119531 13.74 0.139531C9.68999 0.199531 8.00999 0.199531 7.83999 0.319531C7.66999 0.379531 6.99999 0.379531 6.82999 0.319531C6.78999 0.289531 6.56999 0.269531 6.25999 0.269531C6.05999 0.259531 5.26999 0.269531 4.67999 0.429531C3.40999 0.719531 2.44999 1.55953 2.49999 1.60953C2.30999 1.79953 1.74999 2.36953 1.70999 2.33953C1.68999 2.31953 1.33999 2.64953 0.959994 3.28953C0.569994 3.91953 0.209994 4.91953 0.189994 6.00953C0.169994 7.32953 0.139994 9.27953 0.119994 9.93953C-5.69224e-06 16.0095 -5.69224e-06 26.9695 0.179994 27.8095V29.1595C0.119994 29.6695 0.179994 31.0095 0.179994 31.8595C0.239994 32.6995 0.299994 33.7095 0.299994 33.8795C0.299994 34.2195 0.359994 35.0595 0.359994 35.7295C0.419994 36.5695 0.359994 36.9095 0.359994 37.0795C0.299994 37.2495 0.239994 37.7495 0.239994 38.2595C0.239994 38.9295 0.179994 39.4395 0.179994 39.6095C0.179994 39.6895 0.179994 39.9295 0.179994 40.3095C0.179994 40.3995 0.179994 40.5095 0.179994 40.6195C0.189994 40.7795 0.199994 40.9495 0.219994 41.1295C0.269994 41.4895 0.349994 41.8695 0.479994 42.2495C0.999994 43.6395 1.53999 44.1995 2.26999 44.8695C2.64999 45.1895 3.11999 45.5295 3.81999 45.8195C4.16999 45.9595 4.57999 46.0995 5.06999 46.1695C5.30999 46.2195 5.56999 46.2295 5.84999 46.2495C6.02999 46.2495 6.22999 46.2495 6.43999 46.2595C8.45999 46.3195 9.80999 46.3195 10.82 46.2595C12.67 46.1995 13.01 46.1995 13.52 46.2595C14.53 46.2595 19.08 46.1395 19.93 46.0795C21.62 45.8995 24.99 45.7795 29.2 45.7195C30.21 45.7195 31.22 45.6595 31.39 45.6595C31.73 45.5995 31.9 45.5995 32.4 45.6595H33.58C33.92 45.5995 34.76 45.5995 35.43 45.5995C36.44 45.6595 36.61 45.5995 36.95 45.4795C37.12 45.4195 37.46 45.2995 37.62 45.2995C38.13 45.2995 38.63 45.0595 38.63 44.7595C38.63 44.6395 38.8 44.4595 38.8 44.3395C38.97 44.2195 38.8 44.1595 38.63 44.0995C38.29 44.0395 38.29 43.9795 38.29 43.9195C38.29 43.8595 38.12 43.7995 37.95 43.7995C37.78 43.7395 37.78 43.6795 37.78 43.6195V43.5595C37.61 43.4995 37.44 43.4995 37.44 43.4395C37.44 43.3195 36.26 42.9595 35.59 42.8995C34.92 42.8395 34.07 42.7195 34.24 42.5995C34.24 42.5395 34.07 42.5395 33.57 42.5395C33.07 42.5395 33.06 42.5395 33.23 42.5395L33.74 42.4795L33.23 42.3595C33.06 42.2995 32.72 42.2395 32.56 42.2395C32.4 42.2395 32.05 42.2395 32.05 42.1795C32.05 42.1495 31.54 42.0895 30.89 42.0395C30.24 41.9895 29.44 41.9395 28.85 41.9395C28.18 41.9395 27.84 41.8795 27.5 41.8195C27.16 41.6995 26.83 41.6395 26.66 41.6395C26.32 41.6395 25.65 41.6395 25.14 41.5795C24.47 41.5195 23.62 41.5195 22.61 41.5795C21.94 41.5795 19.03 41.6095 16.37 41.6395C11.99 41.6395 11.65 41.6395 10.64 41.7595C9.96999 41.8795 9.45999 41.8795 7.76999 41.8795C7.30999 41.8795 6.88999 41.8795 6.45999 41.8795C6.26999 41.8795 5.97999 41.8795 5.86999 41.8695C5.78999 41.8695 5.70999 41.8495 5.61999 41.8295C5.30999 41.7495 4.89999 41.4495 4.79999 40.8995C4.79999 40.8195 4.75999 40.7195 4.77999 40.5895C4.77999 40.2195 4.79999 39.8095 4.79999 39.3495C4.81999 38.3695 4.83999 37.2195 4.85999 36.0395C4.87999 33.6195 4.90999 31.0595 4.92999 29.3195C4.86999 21.3895 4.86999 19.8795 4.80999 18.6995C4.77999 17.6895 4.76999 15.2395 4.76999 12.6895C4.76999 11.4195 4.76999 10.1195 4.77999 8.94953C4.77999 8.36953 4.77999 7.82953 4.78999 7.32953C4.78999 7.08953 4.78999 6.85953 4.78999 6.63953C4.78999 6.52953 4.78999 6.42953 4.78999 6.32953C4.78999 6.23953 4.78999 6.10953 4.78999 6.10953C4.82999 5.54953 5.12999 5.27953 5.47999 5.12953C5.52999 5.08953 5.59999 5.05953 5.67999 5.02953C5.71999 5.01953 5.75999 4.99953 5.80999 4.99953L5.88999 4.97953H6.09999C6.66999 4.94953 7.25999 4.92953 7.76999 4.92953C8.60999 4.86953 9.45999 4.86953 9.45999 4.80953H10.3C10.97 4.92953 16.03 4.92953 17.89 4.86953C19.07 4.80953 22.44 4.80953 23.96 4.86953H29.19C31.72 4.92953 34.25 4.92953 34.75 4.98953C35.26 4.98953 36.27 5.04953 36.94 5.10953C37.18 5.10953 37.73 5.12953 38.42 5.13953H38.68C38.77 5.13953 38.88 5.13953 38.88 5.15953C38.93 5.15953 38.98 5.16953 39.03 5.17953C39.13 5.20953 39.22 5.23953 39.31 5.28953C39.65 5.47953 39.7 5.82953 39.71 5.85953C39.71 5.85953 39.73 5.90953 39.75 5.98953C39.77 6.03953 39.77 6.05953 39.78 6.15953C39.78 6.35953 39.8 6.59953 39.81 6.87953V12.7795C39.93 12.7795 39.99 14.9695 39.93 14.9695C39.87 14.9695 39.87 16.1495 39.93 16.3195V16.8295C39.87 16.9995 39.81 18.0095 39.75 19.0195C39.75 19.8595 39.69 20.7095 39.69 20.7095V22.2295L39.74 22.2195Z" fill="#6C2BD9"/>
<path d="M3.26 13.9697C3.13 13.9097 3.13 13.8497 3.26 13.7897C3.39 13.7297 3.47 13.8497 3.47 13.9697C3.43 14.0897 3.38 14.0897 3.26 13.9697ZM5.66 14.3297C5.6 14.3297 5.58667 14.3297 5.62 14.3297H5.75H5.66ZM4.29 14.4497H4.25H4.34C4.34 14.4497 4.34 14.4497 4.3 14.4497H4.29ZM6.04 14.6297C5.98 14.5497 5.98 14.4897 6.04 14.4497C6.13 14.3897 6.25 14.5097 6.25 14.6297C6.29 14.7497 6.12 14.7497 6.04 14.6297ZM3.81 14.8097L3.77 14.7497C3.77 14.7097 3.78333 14.6897 3.81 14.6897C3.81 14.6897 3.85 14.6897 3.85 14.7497L3.81 14.8097ZM3.72 14.9897C3.68 14.8697 3.72 14.8097 3.81 14.8697C3.9 14.8697 3.9 14.9297 3.9 14.9897C3.86 15.1097 3.77 15.1097 3.73 14.9897H3.72ZM3.72 15.6497C3.72 15.5297 3.76 15.4697 3.93 15.5297C4.02 15.5897 4.06 15.5897 3.97 15.6497C3.84 15.7097 3.71 15.7097 3.71 15.6497H3.72ZM35.99 16.9097C36.16 16.9097 36.55 16.8497 36.8 16.8497C37.14 16.8497 37.27 16.8497 37.36 16.7297C37.45 16.6697 37.49 16.6697 37.49 16.6697C37.53 16.7297 37.92 16.7897 38.6 16.7897C39.93 16.8497 40.27 16.8497 40.48 16.7297C40.48 16.7297 40.61 16.6697 40.69 16.6697C40.86 16.5497 40.9 16.4897 40.82 16.3697C40.78 16.3097 40.82 16.3097 40.86 16.3097C40.99 16.3097 41.03 16.1897 41.03 16.0097C41.03 15.9497 41.07 15.8897 41.12 15.8297C41.16 15.7697 41.16 15.7097 41.16 15.5897C41.12 15.4697 41.12 15.3497 41.12 15.2897C41.12 15.1097 41.25 14.8097 41.33 14.6897C41.33 14.6897 41.37 14.6297 41.33 14.6297C41.33 14.6297 41.37 14.5097 41.46 14.3897C41.55 14.2097 41.59 14.1497 41.5 14.1497C41.4733 14.1097 41.46 14.0697 41.46 14.0297C41.5 13.7897 41.59 13.6697 41.67 13.6697C41.67 13.6697 41.76 13.6097 41.76 13.5497C41.85 13.4297 41.97 12.7697 41.97 12.7097H42.01V12.5897C42.01 12.5297 42.01 12.4097 42.05 12.3497C42.05 12.3097 42.0367 12.2897 42.01 12.2897C42.01 12.2897 41.92 12.2297 41.88 12.2297C41.84 12.1697 41.75 12.1097 41.67 12.0497C41.58 12.0497 41.58 11.9897 41.58 11.9297C41.62 11.8697 41.62 11.8097 41.45 11.6297C41.36 11.4497 40.77 11.3897 40.08 11.5097C39.87 11.5097 39.57 11.5697 39.4 11.5697C39.27 11.5697 39.06 11.6297 38.97 11.6297C38.88 11.6297 38.8 11.6897 38.76 11.6897C38.72 11.6897 38.67 11.7497 38.59 11.7497C38.5 11.8097 38.29 11.8097 37.82 11.7497C37.18 11.7497 36.66 11.7497 35.72 11.8097C34.69 11.9297 34.48 11.9297 34.22 11.9297C31.95 11.8697 31.44 11.8097 31.4 11.8097C31.31 11.7497 30.5 11.7497 30.16 11.8097C29.99 11.8697 29.86 11.8697 29.82 11.8097C29.82 11.8097 29.65 11.8097 29.48 11.8697C29.27 11.9297 29.01 11.9297 28.88 11.9297C28.75 11.9297 28.49 11.8697 28.37 11.8697C28.25 11.8697 28.07 11.8097 27.98 11.7497C27.89 11.6897 27.68 11.6297 26.95 11.6297C26.44 11.6297 25.79 11.6897 25.49 11.6897C25.19 11.6897 24.55 11.7497 24.08 11.7497C23.05 11.8097 22.62 11.8097 22.58 11.9297C22.54 11.9897 22.37 11.9897 22.32 11.9297C22.28 11.8097 21.51 11.9297 21.51 12.0497C21.47 12.1097 21.34 12.1097 21.34 12.0497C21.34 11.9897 21.04 11.9897 20.7 11.9897C20.36 11.9897 19.89 11.9297 19.72 11.9297C18.18 11.8097 15.4 11.8097 15.18 11.9897H14.84C14.71 11.9297 14.37 11.9897 14.16 11.9897C13.95 12.0497 13.69 12.1097 13.65 12.1097C13.56 12.1097 13.35 12.1697 13.18 12.1697C12.97 12.2297 12.88 12.1697 12.84 12.1697C12.8 12.1097 12.67 12.0497 12.54 12.0497C12.37 12.0497 12.24 11.9897 12.2 11.9897C12.16 11.9897 11.94 11.9897 11.69 12.0497C11.3767 12.0897 10.95 12.0897 10.41 12.0497C9.9 11.9897 9.55 11.9897 9.3 12.0497C8.83 12.1097 8.74 12.1097 8.62 12.0497C8.36 12.0497 7.21 12.1697 6.99 12.2297C6.56 12.4097 5.71 12.5297 4.64 12.5897C4.38 12.5897 4.13 12.6497 4.08 12.6497C3.99 12.7097 3.95 12.7097 3.82 12.6497H3.52C3.43 12.7097 3.22 12.7097 3.05 12.7097C2.79 12.6497 2.75 12.7097 2.66 12.8297C2.62 12.8897 2.53 13.0097 2.49 13.0097C2.36 13.0097 2.23 13.2497 2.23 13.5497C2.23 13.6697 2.19 13.8497 2.19 13.9697C2.15 14.0897 2.19 14.1497 2.23 14.2097C2.32 14.2697 2.32 14.3297 2.32 14.3897C2.32 14.4497 2.36 14.5097 2.41 14.5097C2.45 14.5697 2.45 14.6297 2.45 14.6897V14.7497C2.49 14.8097 2.54 14.8097 2.54 14.8697C2.54 14.9897 2.84 15.3497 3.01 15.4097C3.18 15.4697 3.4 15.5897 3.35 15.7097C3.35 15.7697 3.39 15.7697 3.52 15.7697C3.65 15.7697 3.65 15.7697 3.61 15.7697L3.48 15.8297L3.61 15.9497C3.65 16.0097 3.74 16.0697 3.78 16.0697C3.82 16.0697 3.91 16.0697 3.91 16.1297C3.91 16.1897 4.42 16.3697 4.72 16.3697C4.89 16.3697 4.98 16.4297 5.06 16.4897C5.15 16.6097 5.23 16.6697 5.27 16.6697C5.36 16.6697 5.53 16.6697 5.66 16.7297C5.83 16.7897 6.05 16.7897 6.3 16.7297C6.47 16.7297 7.2 16.6697 7.88 16.6697C8.99 16.6697 9.08 16.6697 9.34 16.5497C9.51 16.4297 9.64 16.4297 10.07 16.4297C10.54 16.4297 10.84 16.4297 11.7 16.6097C12.21 16.6697 13.93 16.7897 14.82 16.7897C16.83 16.7297 17.22 16.7297 17.52 16.6697C18.03 16.6097 20 16.6097 20.73 16.6697H21.8C22.01 16.6097 22.36 16.5497 22.61 16.5497C22.82 16.4897 23.04 16.4897 23.04 16.4297H23.25C23.42 16.5497 24.71 16.5497 25.18 16.4897C25.48 16.4297 26.34 16.4297 26.72 16.4897H28.05C28.69 16.5497 29.33 16.5497 29.46 16.6097C29.59 16.6097 29.85 16.6697 30.02 16.7297C30.15 16.7297 30.58 16.7897 30.96 16.7897C31.3 16.7897 31.6 16.8497 31.64 16.8497C31.64 16.8497 31.85 16.8497 32.11 16.7897H33.61C33.61 16.6697 34.17 16.6097 34.17 16.6697C34.17 16.7297 34.47 16.7297 34.51 16.6697H34.64C34.68 16.7297 34.94 16.7897 35.2 16.8497C35.41 16.8497 35.63 16.9097 35.63 16.9097H36.02H35.99Z" fill="#6C2BD9"/>
<path d="M7.81999 24.1591C7.78999 24.0991 7.78999 24.0391 7.81999 23.9791C7.84999 23.9191 7.85999 24.0391 7.85999 24.1591C7.85999 24.2791 7.83999 24.2791 7.81999 24.1591ZM8.30999 24.5191H8.33999H8.31999H8.30999ZM8.38999 24.8191C8.37666 24.7391 8.37666 24.6791 8.38999 24.6391C8.40999 24.5791 8.42999 24.6991 8.42999 24.8191C8.42999 24.9391 8.39999 24.9391 8.38999 24.8191ZM7.93999 24.9391C7.93999 24.8991 7.93999 24.8791 7.93999 24.8791C7.93999 24.8791 7.93999 24.8791 7.93999 24.9391ZM7.91999 25.1791C7.91999 25.0591 7.91999 24.9991 7.93999 25.0591C7.95999 25.0591 7.95999 25.1191 7.95999 25.1791C7.95999 25.2991 7.92999 25.2991 7.92999 25.1791H7.91999ZM7.91999 25.8391C7.91999 25.7191 7.91999 25.6591 7.95999 25.7191C7.97999 25.7791 7.98999 25.7791 7.95999 25.8391C7.92999 25.8991 7.90999 25.8991 7.90999 25.8391H7.91999ZM14.5 27.0991C14.5 27.0991 14.61 27.0392 14.67 27.0392C14.74 27.0392 14.77 27.0391 14.78 26.9191C14.8 26.8591 14.81 26.8591 14.81 26.8591C14.81 26.9191 14.9 26.9791 15.04 26.9791C15.31 27.0391 15.38 27.0391 15.42 26.9191C15.42 26.9191 15.45 26.8591 15.46 26.8591C15.49 26.7391 15.5 26.6791 15.49 26.5591C15.49 26.4991 15.49 26.4991 15.49 26.4991C15.52 26.4991 15.52 26.3792 15.52 26.1992C15.52 26.1392 15.52 26.0791 15.54 26.0191C15.56 25.9591 15.54 25.8992 15.54 25.7792C15.54 25.6592 15.54 25.5391 15.54 25.4791C15.54 25.2991 15.57 24.9991 15.58 24.8791V24.8191C15.58 24.8191 15.58 24.6991 15.61 24.5791C15.63 24.3991 15.64 24.3391 15.61 24.3391C15.61 24.2991 15.61 24.2591 15.61 24.2191C15.61 23.9791 15.64 23.8591 15.65 23.8591C15.65 23.8591 15.67 23.7991 15.67 23.7391C15.69 23.6191 15.71 22.9591 15.71 22.8991V22.7792C15.71 22.7192 15.71 22.5992 15.71 22.5392C15.71 22.4992 15.71 22.4791 15.71 22.4791C15.71 22.4791 15.69 22.4191 15.68 22.4191C15.68 22.3591 15.65 22.2991 15.64 22.2391C15.62 22.2391 15.62 22.1792 15.62 22.1192C15.62 22.0592 15.62 21.9991 15.59 21.8191C15.57 21.6391 15.45 21.5792 15.31 21.6992C15.27 21.6992 15.21 21.7591 15.17 21.7591C15.14 21.7591 15.1 21.8191 15.08 21.8191C15.06 21.8191 15.05 21.8791 15.04 21.8791C15.03 21.8791 15.02 21.9391 15.01 21.9391C14.99 21.9991 14.95 21.9991 14.85 21.9391C14.72 21.9391 14.61 21.9391 14.42 21.9991C14.21 22.1191 14.17 22.1192 14.11 22.1192C13.65 22.0592 13.54 21.9991 13.53 21.9991C13.51 21.9391 13.35 21.9391 13.28 21.9991C13.25 22.0591 13.22 22.0591 13.21 21.9991C13.21 21.9991 13.18 21.9991 13.14 22.0591C13.1 22.1191 13.04 22.1192 13.02 22.1192C13 22.1192 12.94 22.0591 12.92 22.0591C12.9 22.0591 12.86 21.9991 12.84 21.9391C12.82 21.8791 12.78 21.8191 12.63 21.8191C12.53 21.8191 12.39 21.8791 12.33 21.8791C12.27 21.8791 12.14 21.9391 12.04 21.9391C11.83 21.9991 11.74 21.9992 11.73 22.1192C11.73 22.1792 11.69 22.1792 11.68 22.1192C11.68 21.9992 11.51 22.1191 11.51 22.2391C11.51 22.2991 11.48 22.2991 11.48 22.2391C11.48 22.1791 11.42 22.1791 11.35 22.1791C11.28 22.1791 11.18 22.1192 11.15 22.1192C10.84 21.9992 10.27 21.9991 10.23 22.1791H10.16C10.13 22.1191 10.06 22.1791 10.02 22.1791C9.97999 22.2391 9.91999 22.2991 9.91999 22.2991C9.89999 22.2991 9.85999 22.3591 9.81999 22.3591C9.77999 22.4191 9.75999 22.3591 9.74999 22.3591C9.74999 22.2991 9.71999 22.2391 9.68999 22.2391C9.65999 22.2391 9.62999 22.1791 9.61999 22.1791C9.60999 22.1791 9.56999 22.1791 9.51999 22.2391C9.45332 22.2791 9.36666 22.2791 9.25999 22.2391C9.15999 22.1791 9.08999 22.1791 9.02999 22.2391C8.92999 22.2991 8.91999 22.2991 8.88999 22.2391C8.83999 22.2391 8.59999 22.3591 8.55999 22.4191C8.46999 22.5991 8.29999 22.7192 8.07999 22.7792C8.02999 22.7792 7.97999 22.8391 7.96999 22.8391C7.94999 22.8991 7.93999 22.8991 7.91999 22.8391H7.85999C7.83999 22.8991 7.79999 22.8991 7.75999 22.8991C7.70999 22.8391 7.69999 22.8991 7.67999 23.0191C7.67999 23.0791 7.64999 23.1992 7.64999 23.1992C7.61999 23.1992 7.59999 23.4391 7.59999 23.7391C7.59999 23.8591 7.59999 24.0391 7.59999 24.1591C7.59999 24.2791 7.59999 24.3391 7.59999 24.3991C7.61999 24.4591 7.61999 24.5191 7.61999 24.5791C7.61999 24.6391 7.61999 24.6992 7.63999 24.6992C7.63999 24.7592 7.63999 24.8191 7.63999 24.8791V24.9391C7.63999 24.9991 7.65999 24.9991 7.65999 25.0591C7.65999 25.1791 7.71999 25.5391 7.75999 25.5991C7.78999 25.6591 7.83999 25.7791 7.82999 25.8991C7.82999 25.9591 7.82999 25.9591 7.85999 25.9591C7.88999 25.9591 7.88999 25.9591 7.87999 25.9591L7.84999 26.0191L7.87999 26.1391C7.87999 26.1991 7.90999 26.2591 7.90999 26.2591C7.90999 26.2591 7.93999 26.2591 7.93999 26.3191C7.93999 26.3791 8.03999 26.5591 8.10999 26.5591C8.13999 26.5591 8.15999 26.6191 8.17999 26.6791C8.19999 26.7991 8.20999 26.8591 8.21999 26.8591C8.23999 26.8591 8.26999 26.8591 8.29999 26.9191C8.32999 26.9791 8.37999 26.9791 8.42999 26.9191C8.45999 26.9191 8.60999 26.8591 8.74999 26.8591C8.97999 26.8591 8.98999 26.8591 9.04999 26.7391C9.07999 26.6191 9.10999 26.6192 9.19999 26.6192C9.29999 26.6192 9.35999 26.6191 9.52999 26.7991C9.62999 26.8591 9.97999 26.9791 10.17 26.9791C10.58 26.9191 10.66 26.9191 10.72 26.8591C10.82 26.7991 11.23 26.7991 11.37 26.8591H11.59C11.63 26.7991 11.7 26.7391 11.76 26.7391C11.8 26.6791 11.85 26.6792 11.85 26.6192H11.89C11.92 26.7392 12.19 26.7391 12.28 26.6791C12.34 26.6191 12.52 26.6191 12.59 26.6791H12.86C12.99 26.7391 13.12 26.7391 13.15 26.7991C13.18 26.7991 13.23 26.8591 13.26 26.9191C13.29 26.9191 13.37 26.9791 13.45 26.9791C13.52 26.9791 13.58 27.0392 13.59 27.0392C13.59 27.0392 13.63 27.0391 13.69 26.9791H14C14 26.8591 14.11 26.7991 14.11 26.8591C14.11 26.9191 14.17 26.9191 14.18 26.8591H14.21C14.21 26.9191 14.27 26.9792 14.32 27.0392C14.36 27.0392 14.41 27.0991 14.41 27.0991H14.49H14.5Z" fill="#6C2BD9"/>
<path d="M18.09 23.9297C18.06 23.8697 18.06 23.8097 18.09 23.7497C18.12 23.6897 18.13 23.8097 18.13 23.9297C18.13 24.0497 18.11 24.0497 18.09 23.9297ZM18.58 24.2897H18.61H18.59H18.58ZM18.66 24.5897C18.6467 24.5097 18.6467 24.4497 18.66 24.4097C18.68 24.3497 18.7 24.4697 18.7 24.5897C18.7 24.7097 18.67 24.7097 18.66 24.5897ZM18.21 24.7097C18.21 24.6697 18.21 24.6497 18.21 24.6497C18.21 24.6497 18.21 24.6497 18.21 24.7097ZM18.19 24.9497C18.19 24.8297 18.19 24.7697 18.21 24.8297C18.23 24.8297 18.23 24.8897 18.23 24.9497C18.23 25.0697 18.2 25.0697 18.2 24.9497H18.19ZM18.19 25.6097C18.19 25.4897 18.19 25.4297 18.23 25.4897C18.25 25.5497 18.26 25.5497 18.23 25.6097C18.2 25.6697 18.18 25.6697 18.18 25.6097H18.19ZM24.77 26.8697C24.77 26.8697 24.88 26.8097 24.94 26.8097C25.01 26.8097 25.04 26.8097 25.05 26.6897C25.07 26.6297 25.08 26.6297 25.08 26.6297C25.08 26.6897 25.17 26.7497 25.31 26.7497C25.58 26.8097 25.65 26.8097 25.69 26.6897C25.69 26.6897 25.72 26.6297 25.73 26.6297C25.76 26.5097 25.77 26.4497 25.76 26.3297C25.76 26.2697 25.76 26.2697 25.76 26.2697C25.79 26.2697 25.79 26.1497 25.79 25.9697C25.79 25.9097 25.79 25.8497 25.81 25.7897C25.81 25.7297 25.81 25.6697 25.81 25.5497C25.81 25.4297 25.81 25.3097 25.81 25.2497C25.81 25.0697 25.84 24.7697 25.85 24.6497V24.5897C25.85 24.5897 25.85 24.4697 25.88 24.3497C25.9 24.1697 25.91 24.1097 25.88 24.1097C25.88 24.0697 25.88 24.0297 25.88 23.9897C25.88 23.7497 25.91 23.6297 25.92 23.6297C25.92 23.6297 25.94 23.5697 25.94 23.5097C25.96 23.3897 25.98 22.7297 25.98 22.6697V22.5497C25.98 22.4897 25.98 22.3697 25.98 22.3097C25.98 22.2697 25.98 22.2497 25.98 22.2497C25.98 22.2497 25.96 22.1897 25.95 22.1897C25.95 22.1297 25.92 22.0697 25.91 22.0097C25.89 22.0097 25.89 21.9497 25.89 21.8897C25.89 21.8297 25.89 21.7697 25.86 21.5897C25.84 21.4097 25.72 21.3497 25.58 21.4697C25.54 21.4697 25.48 21.5297 25.44 21.5297C25.41 21.5297 25.37 21.5897 25.35 21.5897C25.33 21.5897 25.32 21.6497 25.31 21.6497C25.3 21.6497 25.29 21.7097 25.28 21.7097C25.26 21.7697 25.22 21.7697 25.12 21.7097C24.99 21.7097 24.88 21.7097 24.69 21.7697C24.48 21.8897 24.44 21.8897 24.38 21.8897C23.92 21.8297 23.81 21.7697 23.8 21.7697C23.78 21.7097 23.62 21.7097 23.55 21.7697C23.52 21.8297 23.49 21.8297 23.48 21.7697C23.48 21.7697 23.45 21.7697 23.41 21.8297C23.37 21.8897 23.31 21.8897 23.29 21.8897C23.27 21.8897 23.21 21.8297 23.19 21.8297C23.17 21.8297 23.13 21.7697 23.11 21.7097C23.09 21.6497 23.05 21.5897 22.9 21.5897C22.8 21.5897 22.66 21.6497 22.6 21.6497C22.54 21.6497 22.41 21.7097 22.31 21.7097C22.1 21.7697 22.01 21.7697 22 21.8897C22 21.9497 21.96 21.9497 21.95 21.8897C21.95 21.7697 21.78 21.8897 21.78 22.0097C21.78 22.0697 21.75 22.0697 21.75 22.0097C21.75 21.9497 21.69 21.9497 21.62 21.9497C21.55 21.9497 21.45 21.8897 21.42 21.8897C21.11 21.7697 20.54 21.7697 20.5 21.9497H20.43C20.4 21.8897 20.33 21.9497 20.29 21.9497C20.25 22.0097 20.19 22.0697 20.19 22.0697C20.17 22.0697 20.13 22.1297 20.09 22.1297C20.05 22.1897 20.03 22.1297 20.02 22.1297C20.02 22.0697 19.99 22.0097 19.96 22.0097C19.93 22.0097 19.9 21.9497 19.89 21.9497C19.88 21.9497 19.84 21.9497 19.79 22.0097C19.7233 22.0497 19.6367 22.0497 19.53 22.0097C19.43 21.9497 19.36 21.9497 19.3 22.0097C19.2 22.0697 19.19 22.0697 19.16 22.0097C19.11 22.0097 18.87 22.1297 18.83 22.1897C18.74 22.3697 18.57 22.4897 18.35 22.5497C18.3 22.5497 18.25 22.6097 18.24 22.6097C18.22 22.6697 18.21 22.6697 18.19 22.6097H18.13C18.11 22.6697 18.07 22.6697 18.03 22.6697C17.98 22.6097 17.97 22.6697 17.95 22.7897C17.95 22.8497 17.92 22.9697 17.92 22.9697C17.89 22.9697 17.87 23.2097 17.87 23.5097C17.87 23.6297 17.87 23.8097 17.87 23.9297C17.87 24.0497 17.87 24.1097 17.87 24.1697C17.89 24.2297 17.89 24.2897 17.89 24.3497C17.89 24.4097 17.89 24.4697 17.91 24.4697C17.91 24.5297 17.91 24.5897 17.91 24.6497V24.7097C17.91 24.7697 17.93 24.7697 17.93 24.8297C17.93 24.9497 17.99 25.3097 18.03 25.3697C18.07 25.4297 18.11 25.5497 18.1 25.6697C18.1 25.7297 18.1 25.7297 18.13 25.7297C18.16 25.7297 18.16 25.7297 18.15 25.7297L18.12 25.7897L18.15 25.9097C18.15 25.9697 18.18 26.0297 18.18 26.0297C18.18 26.0297 18.21 26.0297 18.21 26.0897C18.21 26.1497 18.31 26.3297 18.38 26.3297C18.41 26.3297 18.43 26.3897 18.45 26.4497C18.47 26.5697 18.48 26.6297 18.49 26.6297C18.51 26.6297 18.54 26.6297 18.57 26.6897C18.6 26.7497 18.65 26.7497 18.7 26.6897C18.73 26.6897 18.88 26.6297 19.02 26.6297C19.25 26.6297 19.26 26.6297 19.32 26.5097C19.35 26.3897 19.38 26.3897 19.47 26.3897C19.57 26.3897 19.63 26.3897 19.8 26.5697C19.9 26.6297 20.25 26.7497 20.44 26.7497C20.85 26.6897 20.93 26.6897 20.99 26.6297C21.09 26.5697 21.5 26.5697 21.64 26.6297H21.86C21.9 26.5697 21.97 26.5097 22.03 26.5097C22.07 26.4497 22.12 26.4497 22.12 26.3897H22.16C22.19 26.5097 22.46 26.5097 22.55 26.4497C22.61 26.3897 22.79 26.3897 22.86 26.4497H23.13C23.26 26.5097 23.39 26.5097 23.42 26.5697C23.45 26.5697 23.5 26.6297 23.53 26.6897C23.56 26.6897 23.64 26.7497 23.72 26.7497C23.79 26.7497 23.85 26.8097 23.86 26.8097C23.86 26.8097 23.9 26.8097 23.96 26.7497H24.27C24.27 26.6297 24.38 26.5697 24.38 26.6297C24.38 26.6897 24.44 26.6897 24.45 26.6297H24.48C24.48 26.6897 24.54 26.7497 24.59 26.8097C24.63 26.8097 24.68 26.8697 24.68 26.8697H24.76H24.77Z" fill="#6C2BD9"/>
<path d="M28.93 23.9297C28.9 23.8697 28.9 23.8097 28.93 23.7497C28.96 23.6897 28.97 23.8097 28.97 23.9297C28.97 24.0497 28.95 24.0497 28.93 23.9297ZM29.42 24.2897H29.45H29.43H29.42ZM29.5 24.5897C29.4867 24.5097 29.4867 24.4497 29.5 24.4097C29.52 24.3497 29.54 24.4697 29.54 24.5897C29.54 24.7097 29.51 24.7097 29.5 24.5897ZM29.05 24.7097C29.05 24.6697 29.05 24.6497 29.05 24.6497C29.05 24.6497 29.05 24.6497 29.05 24.7097ZM29.03 24.9497C29.03 24.8297 29.03 24.7697 29.05 24.8297C29.07 24.8297 29.07 24.8897 29.07 24.9497C29.07 25.0697 29.04 25.0697 29.04 24.9497H29.03ZM29.03 25.6097C29.03 25.4897 29.03 25.4297 29.07 25.4897C29.09 25.5497 29.1 25.5497 29.07 25.6097C29.04 25.6697 29.02 25.6697 29.02 25.6097H29.03ZM35.61 26.8697C35.61 26.8697 35.72 26.8097 35.78 26.8097C35.85 26.8097 35.88 26.8097 35.89 26.6897C35.91 26.6297 35.92 26.6297 35.92 26.6297C35.92 26.6897 36.01 26.7497 36.15 26.7497C36.42 26.8097 36.49 26.8097 36.53 26.6897C36.53 26.6897 36.56 26.6297 36.57 26.6297C36.6 26.5097 36.61 26.4497 36.6 26.3297C36.6 26.2697 36.6 26.2697 36.6 26.2697C36.63 26.2697 36.63 26.1497 36.63 25.9697C36.63 25.9097 36.63 25.8497 36.65 25.7897C36.65 25.7297 36.65 25.6697 36.65 25.5497C36.65 25.4297 36.65 25.3097 36.65 25.2497C36.65 25.0697 36.68 24.7697 36.69 24.6497V24.5897C36.69 24.5897 36.69 24.4697 36.72 24.3497C36.74 24.1697 36.75 24.1097 36.72 24.1097C36.72 24.0697 36.72 24.0297 36.72 23.9897C36.72 23.7497 36.75 23.6297 36.76 23.6297C36.76 23.6297 36.78 23.5697 36.78 23.5097C36.8 23.3897 36.82 22.7297 36.82 22.6697V22.5497C36.82 22.4897 36.82 22.3697 36.82 22.3097C36.82 22.2697 36.82 22.2497 36.82 22.2497C36.82 22.2497 36.8 22.1897 36.79 22.1897C36.79 22.1297 36.76 22.0697 36.75 22.0097C36.73 22.0097 36.73 21.9497 36.73 21.8897C36.73 21.8297 36.73 21.7697 36.7 21.5897C36.68 21.4097 36.56 21.3497 36.42 21.4697C36.38 21.4697 36.32 21.5297 36.28 21.5297C36.25 21.5297 36.21 21.5897 36.19 21.5897C36.17 21.5897 36.16 21.6497 36.15 21.6497C36.14 21.6497 36.13 21.7097 36.12 21.7097C36.1 21.7697 36.06 21.7697 35.96 21.7097C35.83 21.7097 35.72 21.7097 35.53 21.7697C35.32 21.8897 35.28 21.8897 35.22 21.8897C34.76 21.8297 34.65 21.7697 34.64 21.7697C34.62 21.7097 34.46 21.7097 34.39 21.7697C34.36 21.8297 34.33 21.8297 34.32 21.7697C34.32 21.7697 34.29 21.7697 34.25 21.8297C34.21 21.8897 34.15 21.8897 34.13 21.8897C34.11 21.8897 34.05 21.8297 34.03 21.8297C34.01 21.8297 33.97 21.7697 33.95 21.7097C33.93 21.6497 33.89 21.5897 33.74 21.5897C33.64 21.5897 33.5 21.6497 33.44 21.6497C33.38 21.6497 33.25 21.7097 33.15 21.7097C32.94 21.7697 32.85 21.7697 32.84 21.8897C32.84 21.9497 32.8 21.9497 32.79 21.8897C32.79 21.7697 32.62 21.8897 32.62 22.0097C32.62 22.0697 32.59 22.0697 32.59 22.0097C32.59 21.9497 32.53 21.9497 32.46 21.9497C32.39 21.9497 32.29 21.8897 32.26 21.8897C31.95 21.7697 31.38 21.7697 31.34 21.9497H31.27C31.24 21.8897 31.17 21.9497 31.13 21.9497C31.09 22.0097 31.03 22.0697 31.03 22.0697C31.01 22.0697 30.97 22.1297 30.93 22.1297C30.89 22.1897 30.87 22.1297 30.86 22.1297C30.86 22.0697 30.83 22.0097 30.8 22.0097C30.77 22.0097 30.74 21.9497 30.73 21.9497C30.72 21.9497 30.68 21.9497 30.63 22.0097C30.5633 22.0497 30.4767 22.0497 30.37 22.0097C30.27 21.9497 30.2 21.9497 30.14 22.0097C30.04 22.0697 30.03 22.0697 30 22.0097C29.95 22.0097 29.71 22.1297 29.67 22.1897C29.58 22.3697 29.41 22.4897 29.19 22.5497C29.14 22.5497 29.09 22.6097 29.08 22.6097C29.06 22.6697 29.05 22.6697 29.03 22.6097H28.97C28.95 22.6697 28.91 22.6697 28.87 22.6697C28.82 22.6097 28.81 22.6697 28.79 22.7897C28.79 22.8497 28.76 22.9697 28.76 22.9697C28.73 22.9697 28.71 23.2097 28.71 23.5097C28.71 23.6297 28.71 23.8097 28.71 23.9297C28.71 24.0497 28.71 24.1097 28.71 24.1697C28.73 24.2297 28.73 24.2897 28.73 24.3497C28.73 24.4097 28.73 24.4697 28.75 24.4697C28.75 24.5297 28.75 24.5897 28.75 24.6497V24.7097C28.75 24.7697 28.77 24.7697 28.77 24.8297C28.77 24.9497 28.83 25.3097 28.87 25.3697C28.91 25.4297 28.95 25.5497 28.94 25.6697C28.94 25.7297 28.94 25.7297 28.97 25.7297C29 25.7297 29 25.7297 28.99 25.7297L28.96 25.7897L28.99 25.9097C28.99 25.9697 29.02 26.0297 29.02 26.0297C29.02 26.0297 29.05 26.0297 29.05 26.0897C29.05 26.1497 29.15 26.3297 29.22 26.3297C29.25 26.3297 29.27 26.3897 29.29 26.4497C29.31 26.5697 29.32 26.6297 29.33 26.6297C29.35 26.6297 29.38 26.6297 29.41 26.6897C29.44 26.7497 29.49 26.7497 29.54 26.6897C29.57 26.6897 29.72 26.6297 29.86 26.6297C30.09 26.6297 30.1 26.6297 30.16 26.5097C30.19 26.3897 30.22 26.3897 30.31 26.3897C30.41 26.3897 30.47 26.3897 30.64 26.5697C30.74 26.6297 31.09 26.7497 31.28 26.7497C31.69 26.6897 31.77 26.6897 31.83 26.6297C31.93 26.5697 32.34 26.5697 32.48 26.6297H32.7C32.74 26.5697 32.81 26.5097 32.87 26.5097C32.91 26.4497 32.96 26.4497 32.96 26.3897H33C33.03 26.5097 33.3 26.5097 33.39 26.4497C33.45 26.3897 33.63 26.3897 33.7 26.4497H33.97C34.1 26.5097 34.23 26.5097 34.26 26.5697C34.29 26.5697 34.34 26.6297 34.37 26.6897C34.4 26.6897 34.48 26.7497 34.56 26.7497C34.63 26.7497 34.69 26.8097 34.7 26.8097C34.7 26.8097 34.74 26.8097 34.8 26.7497H35.11C35.11 26.6297 35.22 26.5697 35.22 26.6297C35.22 26.6897 35.28 26.6897 35.29 26.6297H35.32C35.32 26.6897 35.38 26.7497 35.43 26.8097C35.47 26.8097 35.52 26.8697 35.52 26.8697H35.6H35.61Z" fill="#6C2BD9"/>
<path d="M7.81999 32.8691C7.78999 32.8091 7.78999 32.7491 7.81999 32.6891C7.84999 32.6291 7.85999 32.7491 7.85999 32.8691C7.85999 32.9891 7.83999 32.9891 7.81999 32.8691ZM8.30999 33.2291H8.33999H8.31999H8.30999ZM8.38999 33.5291C8.37666 33.4491 8.37666 33.3891 8.38999 33.3491C8.40999 33.2891 8.42999 33.4091 8.42999 33.5291C8.42999 33.6491 8.39999 33.6491 8.38999 33.5291ZM7.93999 33.6491C7.93999 33.6091 7.93999 33.5891 7.93999 33.5891C7.93999 33.5891 7.93999 33.5891 7.93999 33.6491ZM7.91999 33.8891C7.91999 33.7691 7.91999 33.7091 7.93999 33.7691C7.95999 33.7691 7.95999 33.8291 7.95999 33.8891C7.95999 34.0091 7.92999 34.0091 7.92999 33.8891H7.91999ZM7.91999 34.5491C7.91999 34.4291 7.91999 34.3691 7.95999 34.4291C7.97999 34.4891 7.98999 34.4891 7.95999 34.5491C7.92999 34.6091 7.90999 34.6091 7.90999 34.5491H7.91999ZM14.5 35.8091C14.5 35.8091 14.61 35.7491 14.67 35.7491C14.74 35.7491 14.77 35.7491 14.78 35.6291C14.8 35.5691 14.81 35.5691 14.81 35.5691C14.81 35.6291 14.9 35.6891 15.04 35.6891C15.31 35.7491 15.38 35.7491 15.42 35.6291C15.42 35.6291 15.45 35.5691 15.46 35.5691C15.49 35.4491 15.5 35.3891 15.49 35.2691C15.49 35.2091 15.49 35.2091 15.49 35.2091C15.52 35.2091 15.52 35.0891 15.52 34.9091C15.52 34.8491 15.52 34.7891 15.54 34.7291C15.56 34.6691 15.54 34.6091 15.54 34.4891C15.54 34.3691 15.54 34.2491 15.54 34.1891C15.54 34.0091 15.57 33.7091 15.58 33.5891V33.5291C15.58 33.5291 15.58 33.4091 15.61 33.2891C15.63 33.1091 15.64 33.0491 15.61 33.0491C15.61 33.0091 15.61 32.9691 15.61 32.9291C15.61 32.6891 15.64 32.5691 15.65 32.5691C15.65 32.5691 15.67 32.5091 15.67 32.4491C15.69 32.3291 15.71 31.6691 15.71 31.6091V31.4891C15.71 31.4291 15.71 31.3091 15.71 31.2491C15.71 31.2091 15.71 31.1891 15.71 31.1891C15.71 31.1891 15.69 31.1291 15.68 31.1291C15.68 31.0691 15.65 31.0091 15.64 30.9491C15.62 30.9491 15.62 30.8891 15.62 30.8291C15.62 30.7691 15.62 30.7091 15.59 30.5291C15.57 30.3491 15.45 30.2891 15.31 30.4091C15.27 30.4091 15.21 30.4691 15.17 30.4691C15.14 30.4691 15.1 30.5291 15.08 30.5291C15.06 30.5291 15.05 30.5891 15.04 30.5891C15.03 30.5891 15.02 30.6491 15.01 30.6491C14.99 30.7091 14.95 30.7091 14.85 30.6491C14.72 30.6491 14.61 30.6491 14.42 30.7091C14.21 30.8291 14.17 30.8291 14.11 30.8291C13.65 30.7691 13.54 30.7091 13.53 30.7091C13.51 30.6491 13.35 30.6491 13.28 30.7091C13.25 30.7691 13.22 30.7691 13.21 30.7091C13.21 30.7091 13.18 30.7091 13.14 30.7691C13.1 30.8291 13.04 30.8291 13.02 30.8291C13 30.8291 12.94 30.7691 12.92 30.7691C12.9 30.7691 12.86 30.7091 12.84 30.6491C12.82 30.5891 12.78 30.5291 12.63 30.5291C12.53 30.5291 12.39 30.5891 12.33 30.5891C12.27 30.5891 12.14 30.6491 12.04 30.6491C11.83 30.7091 11.74 30.7091 11.73 30.8291C11.73 30.8891 11.69 30.8891 11.68 30.8291C11.68 30.7091 11.51 30.8291 11.51 30.9491C11.51 31.0091 11.48 31.0091 11.48 30.9491C11.48 30.8891 11.42 30.8891 11.35 30.8891C11.28 30.8891 11.18 30.8291 11.15 30.8291C10.84 30.7091 10.27 30.7091 10.23 30.8891H10.16C10.13 30.8291 10.06 30.8891 10.02 30.8891C9.97999 30.9491 9.91999 31.0091 9.91999 31.0091C9.89999 31.0091 9.85999 31.0691 9.81999 31.0691C9.77999 31.1291 9.75999 31.0691 9.74999 31.0691C9.74999 31.0091 9.71999 30.9491 9.68999 30.9491C9.65999 30.9491 9.62999 30.8891 9.61999 30.8891C9.60999 30.8891 9.56999 30.8891 9.51999 30.9491C9.45332 30.9891 9.36666 30.9891 9.25999 30.9491C9.15999 30.8891 9.08999 30.8891 9.02999 30.9491C8.92999 31.0091 8.91999 31.0091 8.88999 30.9491C8.83999 30.9491 8.59999 31.0691 8.55999 31.1291C8.46999 31.3091 8.29999 31.4291 8.07999 31.4891C8.02999 31.4891 7.97999 31.5491 7.96999 31.5491C7.94999 31.6091 7.93999 31.6091 7.91999 31.5491H7.85999C7.83999 31.6091 7.79999 31.6091 7.75999 31.6091C7.70999 31.5491 7.69999 31.6091 7.67999 31.7291C7.67999 31.7891 7.64999 31.9091 7.64999 31.9091C7.61999 31.9091 7.59999 32.1491 7.59999 32.4491C7.59999 32.5691 7.59999 32.7491 7.59999 32.8691C7.59999 32.9891 7.59999 33.0491 7.59999 33.1091C7.61999 33.1691 7.61999 33.2291 7.61999 33.2891C7.61999 33.3491 7.61999 33.4091 7.63999 33.4091C7.63999 33.4691 7.63999 33.5291 7.63999 33.5891V33.6491C7.63999 33.7091 7.65999 33.7091 7.65999 33.7691C7.65999 33.8891 7.71999 34.2491 7.75999 34.3091C7.78999 34.3691 7.83999 34.4891 7.82999 34.6091C7.82999 34.6691 7.82999 34.6691 7.85999 34.6691C7.88999 34.6691 7.88999 34.6691 7.87999 34.6691L7.84999 34.7291L7.87999 34.8491C7.87999 34.9091 7.90999 34.9691 7.90999 34.9691C7.90999 34.9691 7.93999 34.9691 7.93999 35.0291C7.93999 35.0891 8.03999 35.2691 8.10999 35.2691C8.13999 35.2691 8.15999 35.3291 8.17999 35.3891C8.19999 35.5091 8.20999 35.5691 8.21999 35.5691C8.23999 35.5691 8.26999 35.5691 8.29999 35.6291C8.32999 35.6891 8.37999 35.6891 8.42999 35.6291C8.45999 35.6291 8.60999 35.5691 8.74999 35.5691C8.97999 35.5691 8.98999 35.5691 9.04999 35.4491C9.07999 35.3291 9.10999 35.3291 9.19999 35.3291C9.29999 35.3291 9.35999 35.3291 9.52999 35.5091C9.62999 35.5691 9.97999 35.6891 10.17 35.6891C10.58 35.6291 10.66 35.6291 10.72 35.5691C10.82 35.5091 11.23 35.5091 11.37 35.5691H11.59C11.63 35.5091 11.7 35.4491 11.76 35.4491C11.8 35.3891 11.85 35.3891 11.85 35.3291H11.89C11.92 35.4491 12.19 35.4491 12.28 35.3891C12.34 35.3291 12.52 35.3291 12.59 35.3891H12.86C12.99 35.4491 13.12 35.4491 13.15 35.5091C13.18 35.5091 13.23 35.5691 13.26 35.6291C13.29 35.6291 13.37 35.6891 13.45 35.6891C13.52 35.6891 13.58 35.7491 13.59 35.7491C13.59 35.7491 13.63 35.7491 13.69 35.6891H14C14 35.5691 14.11 35.5091 14.11 35.5691C14.11 35.6291 14.17 35.6291 14.18 35.5691H14.21C14.21 35.6291 14.27 35.6891 14.32 35.7491C14.36 35.7491 14.41 35.8091 14.41 35.8091H14.49H14.5Z" fill="#6C2BD9"/>
<path d="M18.09 32.6396C18.06 32.5796 18.06 32.5196 18.09 32.4596C18.12 32.3996 18.13 32.5196 18.13 32.6396C18.13 32.7596 18.11 32.7596 18.09 32.6396ZM18.58 32.9996H18.61H18.59H18.58ZM18.66 33.2996C18.6467 33.2196 18.6467 33.1596 18.66 33.1196C18.68 33.0596 18.7 33.1796 18.7 33.2996C18.7 33.4196 18.67 33.4196 18.66 33.2996ZM18.21 33.4196C18.21 33.3796 18.21 33.3596 18.21 33.3596C18.21 33.3596 18.21 33.3596 18.21 33.4196ZM18.19 33.6596C18.19 33.5396 18.19 33.4796 18.21 33.5396C18.23 33.5396 18.23 33.5996 18.23 33.6596C18.23 33.7796 18.2 33.7796 18.2 33.6596H18.19ZM18.19 34.3196C18.19 34.1996 18.19 34.1396 18.23 34.1996C18.25 34.2596 18.26 34.2596 18.23 34.3196C18.2 34.3796 18.18 34.3796 18.18 34.3196H18.19ZM24.77 35.5796C24.77 35.5796 24.88 35.5196 24.94 35.5196C25.01 35.5196 25.04 35.5196 25.05 35.3996C25.07 35.3396 25.08 35.3396 25.08 35.3396C25.08 35.3996 25.17 35.4596 25.31 35.4596C25.58 35.5196 25.65 35.5196 25.69 35.3996C25.69 35.3996 25.72 35.3396 25.73 35.3396C25.76 35.2196 25.77 35.1596 25.76 35.0396C25.76 34.9796 25.76 34.9796 25.76 34.9796C25.79 34.9796 25.79 34.8596 25.79 34.6796C25.79 34.6196 25.79 34.5596 25.81 34.4996C25.83 34.4396 25.81 34.3796 25.81 34.2596C25.81 34.1396 25.81 34.0196 25.81 33.9596C25.81 33.7796 25.84 33.4796 25.85 33.3596V33.2996C25.85 33.2996 25.85 33.1796 25.88 33.0596C25.9 32.8796 25.91 32.8196 25.88 32.8196C25.88 32.7796 25.88 32.7396 25.88 32.6996C25.88 32.4596 25.91 32.3396 25.92 32.3396C25.92 32.3396 25.94 32.2796 25.94 32.2196C25.96 32.0996 25.98 31.4396 25.98 31.3796V31.2596C25.98 31.1996 25.98 31.0796 25.98 31.0196C25.98 30.9796 25.98 30.9596 25.98 30.9596C25.98 30.9596 25.96 30.8996 25.95 30.8996C25.95 30.8396 25.92 30.7796 25.91 30.7196C25.89 30.7196 25.89 30.6596 25.89 30.5996C25.89 30.5396 25.89 30.4796 25.86 30.2996C25.84 30.1196 25.72 30.0596 25.58 30.1796C25.54 30.1796 25.48 30.2396 25.44 30.2396C25.41 30.2396 25.37 30.2996 25.35 30.2996C25.33 30.2996 25.32 30.3596 25.31 30.3596C25.3 30.3596 25.29 30.4196 25.28 30.4196C25.26 30.4796 25.22 30.4796 25.12 30.4196C24.99 30.4196 24.88 30.4196 24.69 30.4796C24.48 30.5996 24.44 30.5996 24.38 30.5996C23.92 30.5396 23.81 30.4796 23.8 30.4796C23.78 30.4196 23.62 30.4196 23.55 30.4796C23.52 30.5396 23.49 30.5396 23.48 30.4796C23.48 30.4796 23.45 30.4796 23.41 30.5396C23.37 30.5996 23.31 30.5996 23.29 30.5996C23.27 30.5996 23.21 30.5396 23.19 30.5396C23.17 30.5396 23.13 30.4796 23.11 30.4196C23.09 30.3596 23.05 30.2996 22.9 30.2996C22.8 30.2996 22.66 30.3596 22.6 30.3596C22.54 30.3596 22.41 30.4196 22.31 30.4196C22.1 30.4796 22.01 30.4796 22 30.5996C22 30.6596 21.96 30.6596 21.95 30.5996C21.95 30.4796 21.78 30.5996 21.78 30.7196C21.78 30.7796 21.75 30.7796 21.75 30.7196C21.75 30.6596 21.69 30.6596 21.62 30.6596C21.55 30.6596 21.45 30.5996 21.42 30.5996C21.11 30.4796 20.54 30.4796 20.5 30.6596H20.43C20.4 30.5996 20.33 30.6596 20.29 30.6596C20.25 30.7196 20.19 30.7796 20.19 30.7796C20.17 30.7796 20.13 30.8396 20.09 30.8396C20.05 30.8996 20.03 30.8396 20.02 30.8396C20.02 30.7796 19.99 30.7196 19.96 30.7196C19.93 30.7196 19.9 30.6596 19.89 30.6596C19.88 30.6596 19.84 30.6596 19.79 30.7196C19.7233 30.7596 19.6367 30.7596 19.53 30.7196C19.43 30.6596 19.36 30.6596 19.3 30.7196C19.2 30.7796 19.19 30.7796 19.16 30.7196C19.11 30.7196 18.87 30.8396 18.83 30.8996C18.74 31.0796 18.57 31.1996 18.35 31.2596C18.3 31.2596 18.25 31.3196 18.24 31.3196C18.22 31.3796 18.21 31.3796 18.19 31.3196H18.13C18.11 31.3796 18.07 31.3796 18.03 31.3796C17.98 31.3196 17.97 31.3796 17.95 31.4996C17.95 31.5596 17.92 31.6796 17.92 31.6796C17.89 31.6796 17.87 31.9196 17.87 32.2196C17.87 32.3396 17.87 32.5196 17.87 32.6396C17.87 32.7596 17.87 32.8196 17.87 32.8796C17.89 32.9396 17.89 32.9996 17.89 33.0596C17.89 33.1196 17.89 33.1796 17.91 33.1796C17.91 33.2396 17.91 33.2996 17.91 33.3596V33.4196C17.91 33.4796 17.93 33.4796 17.93 33.5396C17.93 33.6596 17.99 34.0196 18.03 34.0796C18.07 34.1396 18.11 34.2596 18.1 34.3796C18.1 34.4396 18.1 34.4396 18.13 34.4396C18.16 34.4396 18.16 34.4396 18.15 34.4396L18.12 34.4996L18.15 34.6196C18.15 34.6796 18.18 34.7396 18.18 34.7396C18.18 34.7396 18.21 34.7396 18.21 34.7996C18.21 34.8596 18.31 35.0396 18.38 35.0396C18.41 35.0396 18.43 35.0996 18.45 35.1596C18.47 35.2796 18.48 35.3396 18.49 35.3396C18.51 35.3396 18.54 35.3396 18.57 35.3996C18.6 35.4596 18.65 35.4596 18.7 35.3996C18.73 35.3996 18.88 35.3396 19.02 35.3396C19.25 35.3396 19.26 35.3396 19.32 35.2196C19.35 35.0996 19.38 35.0996 19.47 35.0996C19.57 35.0996 19.63 35.0996 19.8 35.2796C19.9 35.3396 20.25 35.4596 20.44 35.4596C20.85 35.3996 20.93 35.3996 20.99 35.3396C21.09 35.2796 21.5 35.2796 21.64 35.3396H21.86C21.9 35.2796 21.97 35.2196 22.03 35.2196C22.07 35.1596 22.12 35.1596 22.12 35.0996H22.16C22.19 35.2196 22.46 35.2196 22.55 35.1596C22.61 35.0996 22.79 35.0996 22.86 35.1596H23.13C23.26 35.2196 23.39 35.2196 23.42 35.2796C23.45 35.2796 23.5 35.3396 23.53 35.3996C23.56 35.3996 23.64 35.4596 23.72 35.4596C23.79 35.4596 23.85 35.5196 23.86 35.5196C23.86 35.5196 23.9 35.5196 23.96 35.4596H24.27C24.27 35.3396 24.38 35.2796 24.38 35.3396C24.38 35.3996 24.44 35.3996 24.45 35.3396H24.48C24.48 35.3996 24.54 35.4596 24.59 35.5196C24.63 35.5196 24.68 35.5796 24.68 35.5796H24.76H24.77Z" fill="#6C2BD9"/>
<path d="M28.93 32.6396C28.9 32.5796 28.9 32.5196 28.93 32.4596C28.96 32.3996 28.97 32.5196 28.97 32.6396C28.97 32.7596 28.95 32.7596 28.93 32.6396ZM29.42 32.9996H29.45H29.43H29.42ZM29.5 33.2996C29.4867 33.2196 29.4867 33.1596 29.5 33.1196C29.52 33.0596 29.54 33.1796 29.54 33.2996C29.54 33.4196 29.51 33.4196 29.5 33.2996ZM29.05 33.4196C29.05 33.3796 29.05 33.3596 29.05 33.3596C29.05 33.3596 29.05 33.3596 29.05 33.4196ZM29.03 33.6596C29.03 33.5396 29.03 33.4796 29.05 33.5396C29.07 33.5396 29.07 33.5996 29.07 33.6596C29.07 33.7796 29.04 33.7796 29.04 33.6596H29.03ZM29.03 34.3196C29.03 34.1996 29.03 34.1396 29.07 34.1996C29.09 34.2596 29.1 34.2596 29.07 34.3196C29.04 34.3796 29.02 34.3796 29.02 34.3196H29.03ZM35.61 35.5796C35.61 35.5796 35.72 35.5196 35.78 35.5196C35.85 35.5196 35.88 35.5196 35.89 35.3996C35.91 35.3396 35.92 35.3396 35.92 35.3396C35.92 35.3996 36.01 35.4596 36.15 35.4596C36.42 35.5196 36.49 35.5196 36.53 35.3996C36.53 35.3996 36.56 35.3396 36.57 35.3396C36.6 35.2196 36.61 35.1596 36.6 35.0396C36.6 34.9796 36.6 34.9796 36.6 34.9796C36.63 34.9796 36.63 34.8596 36.63 34.6796C36.63 34.6196 36.63 34.5596 36.65 34.4996C36.65 34.4396 36.65 34.3796 36.65 34.2596C36.65 34.1396 36.65 34.0196 36.65 33.9596C36.65 33.7796 36.68 33.4796 36.69 33.3596V33.2996C36.69 33.2996 36.69 33.1796 36.72 33.0596C36.74 32.8796 36.75 32.8196 36.72 32.8196C36.72 32.7796 36.72 32.7396 36.72 32.6996C36.72 32.4596 36.75 32.3396 36.76 32.3396C36.76 32.3396 36.78 32.2796 36.78 32.2196C36.8 32.0996 36.82 31.4396 36.82 31.3796V31.2596C36.82 31.1996 36.82 31.0796 36.82 31.0196C36.82 30.9796 36.82 30.9596 36.82 30.9596C36.82 30.9596 36.8 30.8996 36.79 30.8996C36.79 30.8396 36.76 30.7796 36.75 30.7196C36.73 30.7196 36.73 30.6596 36.73 30.5996C36.73 30.5396 36.73 30.4796 36.7 30.2996C36.68 30.1196 36.56 30.0596 36.42 30.1796C36.38 30.1796 36.32 30.2396 36.28 30.2396C36.25 30.2396 36.21 30.2996 36.19 30.2996C36.17 30.2996 36.16 30.3596 36.15 30.3596C36.14 30.3596 36.13 30.4196 36.12 30.4196C36.1 30.4796 36.06 30.4796 35.96 30.4196C35.83 30.4196 35.72 30.4196 35.53 30.4796C35.32 30.5996 35.28 30.5996 35.22 30.5996C34.76 30.5396 34.65 30.4796 34.64 30.4796C34.62 30.4196 34.46 30.4196 34.39 30.4796C34.36 30.5396 34.33 30.5396 34.32 30.4796C34.32 30.4796 34.29 30.4796 34.25 30.5396C34.21 30.5996 34.15 30.5996 34.13 30.5996C34.11 30.5996 34.05 30.5396 34.03 30.5396C34.01 30.5396 33.97 30.4796 33.95 30.4196C33.93 30.3596 33.89 30.2996 33.74 30.2996C33.64 30.2996 33.5 30.3596 33.44 30.3596C33.38 30.3596 33.25 30.4196 33.15 30.4196C32.94 30.4796 32.85 30.4796 32.84 30.5996C32.84 30.6596 32.8 30.6596 32.79 30.5996C32.79 30.4796 32.62 30.5996 32.62 30.7196C32.62 30.7796 32.59 30.7796 32.59 30.7196C32.59 30.6596 32.53 30.6596 32.46 30.6596C32.39 30.6596 32.29 30.5996 32.26 30.5996C31.95 30.4796 31.38 30.4796 31.34 30.6596H31.27C31.24 30.5996 31.17 30.6596 31.13 30.6596C31.09 30.7196 31.03 30.7796 31.03 30.7796C31.01 30.7796 30.97 30.8396 30.93 30.8396C30.89 30.8996 30.87 30.8396 30.86 30.8396C30.86 30.7796 30.83 30.7196 30.8 30.7196C30.77 30.7196 30.74 30.6596 30.73 30.6596C30.72 30.6596 30.68 30.6596 30.63 30.7196C30.5633 30.7596 30.4767 30.7596 30.37 30.7196C30.27 30.6596 30.2 30.6596 30.14 30.7196C30.04 30.7796 30.03 30.7796 30 30.7196C29.95 30.7196 29.71 30.8396 29.67 30.8996C29.58 31.0796 29.41 31.1996 29.19 31.2596C29.14 31.2596 29.09 31.3196 29.08 31.3196C29.06 31.3796 29.05 31.3796 29.03 31.3196H28.97C28.95 31.3796 28.91 31.3796 28.87 31.3796C28.82 31.3196 28.81 31.3796 28.79 31.4996C28.79 31.5596 28.76 31.6796 28.76 31.6796C28.73 31.6796 28.71 31.9196 28.71 32.2196C28.71 32.3396 28.71 32.5196 28.71 32.6396C28.71 32.7596 28.71 32.8196 28.71 32.8796C28.73 32.9396 28.73 32.9996 28.73 33.0596C28.73 33.1196 28.73 33.1796 28.75 33.1796C28.75 33.2396 28.75 33.2996 28.75 33.3596V33.4196C28.75 33.4796 28.77 33.4796 28.77 33.5396C28.77 33.6596 28.83 34.0196 28.87 34.0796C28.91 34.1396 28.95 34.2596 28.94 34.3796C28.94 34.4396 28.94 34.4396 28.97 34.4396C29 34.4396 29 34.4396 28.99 34.4396L28.96 34.4996L28.99 34.6196C28.99 34.6796 29.02 34.7396 29.02 34.7396C29.02 34.7396 29.05 34.7396 29.05 34.7996C29.05 34.8596 29.15 35.0396 29.22 35.0396C29.25 35.0396 29.27 35.0996 29.29 35.1596C29.31 35.2796 29.32 35.3396 29.33 35.3396C29.35 35.3396 29.38 35.3396 29.41 35.3996C29.44 35.4596 29.49 35.4596 29.54 35.3996C29.57 35.3996 29.72 35.3396 29.86 35.3396C30.09 35.3396 30.1 35.3396 30.16 35.2196C30.19 35.0996 30.22 35.0996 30.31 35.0996C30.41 35.0996 30.47 35.0996 30.64 35.2796C30.74 35.3396 31.09 35.4596 31.28 35.4596C31.69 35.3996 31.77 35.3996 31.83 35.3396C31.93 35.2796 32.34 35.2796 32.48 35.3396H32.7C32.74 35.2796 32.81 35.2196 32.87 35.2196C32.91 35.1596 32.96 35.1596 32.96 35.0996H33C33.03 35.2196 33.3 35.2196 33.39 35.1596C33.45 35.0996 33.63 35.0996 33.7 35.1596H33.97C34.1 35.2196 34.23 35.2196 34.26 35.2796C34.29 35.2796 34.34 35.3396 34.37 35.3996C34.4 35.3996 34.48 35.4596 34.56 35.4596C34.63 35.4596 34.69 35.5196 34.7 35.5196C34.7 35.5196 34.74 35.5196 34.8 35.4596H35.11C35.11 35.3396 35.22 35.2796 35.22 35.3396C35.22 35.3996 35.28 35.3996 35.29 35.3396H35.32C35.32 35.3996 35.38 35.4596 35.43 35.5196C35.47 35.5196 35.52 35.5796 35.52 35.5796H35.6H35.61Z" fill="#6C2BD9"/>
</g>
<defs>
<clipPath id="clip0_542_252">
<rect width="45.18" height="46.29" fill="white"/>
</clipPath>
</defs>
</svg>
