<svg width="49" height="49" viewBox="0 0 49 49" fill="none" xmlns="http://www.w3.org/2000/svg">
<g clip-path="url(#clip0_542_246)">
<path d="M23.24 10.0503C23.24 9.49027 23.83 9.03027 24.4 9.03027C24.97 9.03027 25.52 9.49027 25.52 10.0503V12.8903C28.79 13.2903 30.97 15.2703 31.8 17.8503C31.87 18.0803 31.9 18.3103 31.9 18.5103C31.9 19.4403 31.17 19.9303 30.38 19.9303C29.72 19.9303 29.19 19.4703 28.99 18.8403C28.53 17.1503 26.68 15.6703 24.2 15.6703C21.19 15.6703 19.61 17.4903 19.61 19.3403C19.58 21.5903 21.53 22.5803 23.48 23.0703L26.42 23.8003C31.24 24.9903 31.97 27.8003 31.97 29.7503C31.97 33.2503 29.03 35.7303 25.53 36.1003V38.5503C25.53 39.1103 24.97 39.5703 24.41 39.5703C23.85 39.5703 23.29 39.1103 23.29 38.5503V36.0703C20.35 35.6703 18.27 33.9203 17.54 31.3403C17.47 31.1103 17.44 30.8403 17.44 30.5803C17.44 29.8503 17.8 29.1903 18.96 29.1903C19.52 29.1903 20.15 29.4203 20.38 30.2503C20.94 32.3703 22.56 33.2203 24.64 33.2203C26.85 33.2203 28.9 31.8703 28.9 29.7803C28.9 28.7903 28.54 27.3003 25.66 26.6103L22.69 25.8803C18.79 24.9203 16.54 22.7403 16.54 19.6303C16.54 16.1903 18.95 13.2203 23.25 12.8203V10.0403L23.24 10.0503Z" fill="#6C2BD9"/>
<path d="M25.61 10.0602C25.61 9.84018 25.57 9.73018 25.59 9.73018C25.59 9.73018 25.67 9.83018 25.69 10.0602C25.72 10.4602 25.67 10.7202 25.62 10.7202C25.57 10.5902 25.57 10.4502 25.62 10.0602H25.61ZM29.65 14.7102C29.45 14.5302 29.45 14.5402 29.55 14.6202L29.85 14.8802L29.65 14.7102ZM25.78 13.0502L25.64 13.0302C25.78 13.0502 25.93 13.0802 25.93 13.0802C26.07 13.1002 25.93 13.0802 25.79 13.0602L25.78 13.0502ZM30.38 15.6302C30.25 15.4002 30.25 15.4002 30.44 15.5802C30.63 15.7602 30.81 16.1202 30.77 16.1402C30.8 16.2702 30.51 15.8502 30.38 15.6202V15.6302ZM25.26 11.7802C25.26 11.6502 25.29 11.6502 25.29 11.6502C25.29 11.6502 25.2967 11.6935 25.31 11.7802C25.31 11.7802 25.31 11.9102 25.29 11.9102L25.26 11.7802ZM25.19 11.5102C25.24 11.3802 25.26 11.5102 25.24 11.7802C25.24 12.0302 25.22 12.0902 25.19 12.0802C25.14 11.8902 25.14 11.6602 25.19 11.5202V11.5102ZM24.92 11.5102C24.92 11.5102 24.96 11.5402 24.97 11.6402C24.97 11.7602 24.97 11.8502 24.97 12.2902C24.94 12.6902 24.94 12.9002 24.92 12.5002C24.89 11.8002 24.89 11.5402 24.92 11.5002V11.5102ZM19.7 23.3802C19.32 23.1302 18.57 22.4702 18.27 21.9102C17.85 21.1802 17.83 20.8502 17.72 20.6602C17.64 20.4602 17.64 20.3502 17.64 20.3502C17.64 20.3002 17.61 20.0302 17.62 19.5402C17.64 19.0502 17.71 18.3402 18.03 17.5102C18.71 15.9202 19.68 15.2802 20.27 14.9002C20.9 14.5302 21.25 14.4002 21.51 14.2802C21.51 14.2802 21.83 14.1502 22.06 14.0902C22.51 13.9402 22.62 13.8902 22.38 13.8902C22.26 13.8902 22.38 13.8702 22.49 13.8402C23.18 13.7202 23.39 13.6602 23.34 13.5902C23.32 13.5702 23.53 13.5102 23.71 13.4602C23.9 13.4102 23.87 13.3902 23.82 13.3402C23.57 13.3202 23.53 13.2802 23.51 13.2602C23.49 13.2402 23.51 13.2202 23.54 13.1902L23.6 13.1502C23.6 13.1502 23.58 13.0602 23.57 13.0102C23.52 12.8002 23.48 12.5702 23.45 12.4102C23.45 12.4102 23.43 12.2402 23.43 12.4002C23.43 12.4002 23.38 12.2202 23.33 11.9302C23.26 11.6502 23.23 11.5302 23.23 11.7902C23.2 11.9202 23.2 11.9202 23.18 11.9202C23.08 11.7902 23.03 11.5202 23.03 11.2602C23.03 11.2602 23.01 10.9902 22.98 10.9902C22.93 10.7202 22.65 10.3302 22.63 10.3302V10.2002H22.58C22.58 10.2002 22.51 10.2002 22.48 10.0702C22.48 10.0702 22.47 10.1135 22.45 10.2002C22.45 10.2002 22.43 10.5502 22.43 10.6002C22.4 10.7302 22.38 11.0002 22.36 11.2602C22.36 11.5302 22.33 11.5302 22.31 11.5302C22.3 11.4602 22.28 11.4302 22.27 11.4802C22.27 11.5002 22.25 11.5502 22.24 11.6202C22.24 11.6602 22.23 11.7002 22.22 11.7502C22.22 11.7902 22.2 11.8802 22.19 11.8602C22.15 11.8602 22.13 11.8802 22.12 11.8602C22.19 11.8402 22.02 11.8802 21.91 11.9002C21.67 11.9502 21.42 12.0002 21.16 12.0902C20.64 12.2502 20.09 12.4602 19.56 12.7702C18.87 13.1102 18.02 13.7902 17.6 14.2602C17.26 14.5902 16.82 15.2302 16.66 15.4902C16.5 15.7602 16.38 16.0402 16.3 16.1802C16.27 16.2502 16.13 16.6202 16.08 16.7502C16.02 17.0502 15.64 17.7602 15.55 19.4302C15.51 20.5702 15.74 21.6602 16.29 22.7302C16.86 23.7902 17.81 24.8102 19.23 25.6002C20.79 26.4402 21.81 26.6202 22.49 26.8102C23.17 26.9702 23.5 27.0502 23.88 27.1402C24.72 27.3602 25.55 27.5302 26.11 27.7302C26.7 27.9302 27.15 28.1902 27.42 28.4702C27.71 28.7402 27.83 29.0102 27.89 29.2902C27.96 29.5602 27.94 29.8702 27.92 30.0702C27.74 30.9202 27.39 31.1002 27.4 31.1502C27.32 31.2002 26.99 31.5902 26.41 31.8402C25.85 32.1202 25.11 32.2302 24.68 32.2402C24.22 32.2702 23.89 32.2102 23.78 32.1702C23.78 32.1702 23.35 32.1002 22.96 31.9702C22.47 31.8102 22.03 31.4302 21.86 31.1902C21.67 30.9702 21.42 30.4102 21.34 30.0802C21.32 30.0302 21.28 29.8502 21.21 29.6902C21.15 29.5302 21.07 29.3602 20.96 29.2102C20.76 28.8902 20.47 28.6502 20.27 28.5202C20.08 28.4002 19.67 28.1602 18.94 28.1402C18.62 28.1402 18.17 28.1402 17.53 28.4602C17.21 28.6402 16.89 28.9202 16.67 29.3202C16.45 29.7302 16.37 30.1602 16.37 30.5802C16.35 31.1002 16.53 31.7502 16.68 32.1502C16.86 32.6102 17.06 33.0702 17.32 33.4702C17.81 34.2902 18.42 34.9002 18.84 35.2502C19.25 35.6002 19.96 36.0902 20.8 36.4402C21.22 36.6102 21.67 36.7602 22.11 36.8702L22.23 36.8902C22.23 36.8902 22.28 36.8902 22.27 36.9202V36.9802C22.27 37.1202 22.27 37.2602 22.27 37.3902C22.27 37.7302 22.27 38.0402 22.27 38.3302V38.5502C22.27 38.7002 22.3 38.8402 22.33 38.9802C22.4 39.2502 22.52 39.4802 22.65 39.6602C22.92 40.0202 23.24 40.2402 23.57 40.3702C24.22 40.6402 24.77 40.5202 25.09 40.4002C25.42 40.2702 25.57 40.1302 25.61 40.0902C25.7 40.0102 25.93 39.8202 26.1 39.5702C26.27 39.3302 26.37 39.0402 26.4 38.9302C26.41 38.9002 26.44 38.8102 26.45 38.6702C26.46 38.6002 26.46 38.5202 26.46 38.4202C26.46 38.3602 26.46 38.3102 26.46 38.2502C26.46 38.0202 26.46 37.7502 26.46 37.3902C26.46 37.3202 26.46 37.2402 26.46 37.1602V37.0602V37.0402L26.44 36.9702C26.44 36.9702 26.42 36.8802 26.4 36.8702C26.37 36.8102 26.49 36.8202 26.5 36.8402C26.5 36.8402 26.52 36.8402 26.54 36.8402H26.58C26.58 36.8402 26.58 36.8402 26.61 36.8402L26.75 36.8102C27.15 36.7302 27.68 36.5702 28.22 36.3402C29.34 35.9302 30.67 34.9002 31.05 34.4202C31.52 33.9202 31.97 33.3002 32.31 32.5602C32.65 31.8202 32.86 30.9802 32.9 30.1202C32.96 29.2702 32.86 28.4002 32.59 27.5402C32.32 26.6902 31.83 25.9102 31.25 25.3002C30.08 24.0702 28.7 23.5302 27.71 23.1902C26.68 22.8802 26.05 22.7602 25.88 22.7302C25.75 22.7002 25.36 22.6002 24.85 22.4802C24.47 22.3502 23.41 22.1502 22.88 21.9502C22.3 21.7902 21.7 21.4702 21.62 21.4102C21.43 21.3002 21 20.9802 20.79 20.6602C20.51 20.2702 20.52 20.0502 20.49 19.9702C20.49 19.8702 20.47 19.5802 20.49 19.2702C20.51 18.8702 20.62 18.6102 20.66 18.5202C20.69 18.4302 20.86 17.9702 21.29 17.5402C21.69 17.1502 21.97 17.0202 22.34 16.8702C22.72 16.7402 23.23 16.5502 24.34 16.5702C25.71 16.6502 26.5 17.1302 27.01 17.5002C27.48 17.8602 27.68 18.1502 27.8 18.3502C27.92 18.5502 27.97 18.6702 28.01 18.8102C28.05 18.8902 28.06 18.9702 28.13 19.1402C28.22 19.4102 28.35 19.6802 28.58 19.9602C28.81 20.2302 29.13 20.5002 29.53 20.6502C29.93 20.8102 30.4 20.8302 30.77 20.7602C31.56 20.6602 32.35 20.0302 32.56 19.3202C32.8 18.6102 32.62 18.1602 32.6 17.9402C32.4 17.1002 31.95 16.1502 31.06 15.0702C30.18 14.0202 28.78 13.0202 27.05 12.5402C26.87 12.4802 26.58 12.4202 26.49 12.4002C26.41 12.3802 26.34 12.3802 26.27 12.3702C26.09 12.3902 26.14 12.2402 26.13 12.2202C26.12 12.1702 26.11 12.1202 26.11 12.0702C26.11 12.0302 26.11 11.9502 26.13 11.7802V10.8502C26.12 10.7202 26.11 10.4802 26.11 10.2202V9.99018C26.11 9.87018 26.08 9.75018 26.05 9.64018C25.98 9.41018 25.86 9.21018 25.73 9.06018C25.33 8.59018 24.95 8.51018 24.71 8.45018C24.46 8.41018 24.3 8.44018 24.11 8.49018C23.91 8.54018 23.58 8.73018 23.44 8.84018C22.94 9.14018 22.84 9.80018 22.99 9.81018C23.03 9.83018 23.08 10.0002 23.14 10.0002C23.19 10.1502 23.2 10.0002 23.26 9.88018C23.36 9.64018 23.41 9.67018 23.42 9.68018C23.44 9.69018 23.52 9.60018 23.6 9.52018C23.7 9.46018 23.72 9.48018 23.73 9.50018L23.75 9.52018C23.85 9.47018 23.94 9.42018 23.95 9.44018C23.96 9.46018 24.15 9.41018 24.34 9.45018C24.54 9.48018 24.72 9.62018 24.82 9.74018C24.93 9.85018 24.96 9.99018 24.93 10.0602C24.91 10.2602 24.88 10.4002 24.86 10.3302C24.84 10.3302 24.84 10.4602 24.84 10.8602C24.84 11.2602 24.84 11.2602 24.84 11.1302L24.82 10.7302L24.77 11.1302C24.74 11.2602 24.72 11.5302 24.72 11.6602C24.72 11.7202 24.72 11.7802 24.72 11.9102C24.72 11.9902 24.72 12.1502 24.7 12.1302C24.7 12.1302 24.68 12.3002 24.67 12.5902C24.67 12.7502 24.66 12.9202 24.65 13.1002V13.4102C24.65 13.5102 24.59 13.6702 24.74 13.6502C25.17 13.7402 25.67 13.8202 26.17 13.9302C26.44 13.9902 26.65 14.0702 26.86 14.1302C27.31 14.2802 27.51 14.4002 27.71 14.5202C27.9 14.6602 28.08 14.8002 28.18 14.8502C28.37 14.9702 28.75 15.2202 28.99 15.4702C29.32 15.7802 29.71 16.1802 30.09 16.7302C30.21 16.9102 30.53 17.4402 30.77 18.1402C30.79 18.2802 30.8 18.3902 30.83 18.5202C30.83 18.6202 30.81 18.6802 30.79 18.7202C30.76 18.7902 30.6 18.9002 30.35 18.9002C30.24 18.9002 30.17 18.8502 30.09 18.7702C30.05 18.7302 30.02 18.6802 29.99 18.6202L29.96 18.5502C29.93 18.4702 29.91 18.4002 29.89 18.3302C29.67 17.7002 29.39 17.2902 29.17 16.9902C28.7 16.4102 28.44 16.2102 28.05 15.9302C27.78 15.7602 27.54 15.6202 27.19 15.4402C26.84 15.2702 26.37 15.0502 25.61 14.8802C24.77 14.7102 24.08 14.6902 23.23 14.7802C22.8 14.8202 22.33 14.9202 21.78 15.1002C21.24 15.2902 20.6 15.5802 19.97 16.1502C19.6 16.4802 19.04 17.1202 18.73 18.0802C18.57 18.5602 18.5 19.1202 18.54 19.6702C18.57 20.2302 18.72 20.8602 19.03 21.4202C19.66 22.5702 20.77 23.2402 21.71 23.6302C22.19 23.8302 22.66 23.9802 23.1 24.1002C23.51 24.2002 23.89 24.3002 24.23 24.3802C24.98 24.5702 25.66 24.7302 26.27 24.8802C26.83 25.0302 27.32 25.1902 27.73 25.3602C28.55 25.7002 29.1 26.0702 29.46 26.3902C30.18 27.0402 30.34 27.4402 30.52 27.7602C30.65 28.0502 30.85 28.5602 30.9 29.2602C30.96 29.9802 30.88 30.7902 30.57 31.5602C29.98 33.1502 28.36 34.1902 27.45 34.5302C27.16 34.6502 26.89 34.7402 26.64 34.8102C26.52 34.8502 26.39 34.8702 26.28 34.9002C26.23 34.9102 25.86 34.9902 25.65 35.0202C25.41 35.0602 25.17 35.1002 24.94 35.1302C24.74 35.2002 24.36 35.1102 24.47 35.4302V36.8902C24.48 37.3102 24.49 37.7702 24.5 38.1802C24.5 38.4902 24.51 38.4202 24.5 38.4602C24.5 38.4902 24.48 38.5102 24.45 38.5302C24.39 38.6202 24.27 38.5602 24.26 38.5802C24.24 38.5802 24.18 38.5202 24.18 38.5102C24.21 38.5102 24.1 38.5402 24.09 38.5302C24.14 38.5302 23.98 38.5302 24.2 38.5302V38.5202V38.4502V38.3102C24.2 38.2002 24.2 38.0902 24.2 37.9802C24.2 37.2802 24.2 36.5002 24.21 35.6902V35.2502C24.09 35.2002 23.93 35.1902 23.79 35.1602L22.92 35.0002C22.79 34.9802 22.61 34.9302 22.54 34.9202C22.47 34.9002 22.41 34.8902 22.34 34.8702C22.21 34.8302 22.09 34.7902 21.96 34.7602C21.47 34.6002 21.08 34.3902 20.8 34.2402C20.45 34.0502 19.82 33.6002 19.34 32.9802C18.85 32.3602 18.53 31.5902 18.4 31.0902C18.38 31.0302 18.36 30.9602 18.34 30.7902C18.32 30.6202 18.33 30.4002 18.37 30.3102C18.42 30.2402 18.38 30.2202 18.61 30.1602C18.71 30.1402 18.91 30.1302 19.01 30.1402C19.12 30.1502 19.19 30.1902 19.23 30.2202C19.27 30.2502 19.31 30.3002 19.34 30.4002L19.42 30.6702C19.46 30.8102 19.5 30.9402 19.55 31.0802C19.75 31.6202 20.04 32.1102 20.37 32.5102C21.05 33.3002 21.77 33.6202 21.98 33.7302C22.43 33.9602 23.37 34.2002 23.99 34.2502C24.41 34.3102 26.07 34.3402 27.4 33.6302C28.61 33.0602 29.35 31.9502 29.41 31.7902C29.41 31.7902 29.52 31.5902 29.66 31.2602C29.78 30.9202 29.92 30.4202 29.91 29.8802C29.93 29.4602 29.88 28.7602 29.55 28.0602C29.22 27.3602 28.63 26.8002 28.13 26.4902C27.13 25.8502 26.39 25.7202 26.25 25.6602C26.25 25.6802 25.76 25.5702 25.36 25.4902C25.11 25.4302 24.92 25.3902 24.78 25.3602C24.62 25.3202 24.52 25.2902 24.52 25.2902C24.52 25.2702 23.62 25.0502 23.49 25.0402L23.1 24.9502C22.96 24.8902 22.26 24.6902 21.58 24.4302C21.01 24.2202 20.5 23.9302 20.5 23.9302C20.4 23.8702 20.08 23.7202 19.62 23.4002L19.7 23.3802Z" fill="#6C2BD9"/>
<path d="M37.44 6.80982C37.11 6.49982 37.14 6.44982 37.55 6.65982C37.95 6.86982 38.13 7.13982 38.05 7.23982C37.85 7.23982 37.74 7.15982 37.44 6.80982ZM42.81 13.0498C42.7033 12.8832 42.6767 12.8432 42.73 12.9298L42.97 13.2998L42.81 13.0498ZM39.81 9.47982L39.71 9.36982L39.91 9.57982C40.01 9.68982 39.91 9.57982 39.81 9.46982V9.47982ZM43.24 14.3198C43.21 13.9998 43.21 13.9998 43.4 14.2298C43.59 14.4598 43.68 14.9098 43.57 14.9598C43.53 15.1398 43.27 14.6298 43.24 14.3198ZM38.4 8.64982C38.29 8.55982 38.33 8.50982 38.33 8.50982C38.33 8.50982 38.38 8.52649 38.48 8.55982C38.48 8.55982 38.59 8.64982 38.55 8.69982L38.4 8.64982ZM38.07 8.59982C38.04 8.40982 38.19 8.45982 38.36 8.69982C38.58 8.88982 38.54 8.92982 38.5 8.97982C38.31 8.97982 38.1 8.78982 38.07 8.60982V8.59982ZM37.64 9.09982C37.72 9.00982 37.86 9.04982 38.24 9.45982C38.41 9.68982 38.51 9.77982 38.26 9.63982C37.91 9.40982 37.6 9.13982 37.63 9.09982H37.64ZM15.18 7.38982C15.39 7.27982 15.77 7.08982 16.19 6.86982C16.59 6.65982 17.06 6.50982 17.42 6.36982C18.38 5.97982 18.79 5.96982 19 5.75982C19.24 5.63982 19.36 5.59982 19.36 5.59982C19.43 5.61982 19.75 5.52982 20.32 5.47982C20.89 5.41982 21.69 5.24982 22.73 5.21982C24.75 5.11982 26.01 5.31982 26.85 5.42982C27.69 5.50982 28.1 5.64982 28.44 5.63982C28.44 5.63982 28.84 5.66982 29.09 5.71982C29.63 5.72982 29.77 5.74982 29.55 5.53982C29.44 5.43982 29.57 5.47982 29.69 5.52982C30.07 5.65982 30.23 5.58982 30.29 5.40982C30.31 5.34982 30.46 5.33982 30.61 5.32982C30.76 5.31982 30.78 5.25982 30.82 5.14982C30.73 4.98982 30.77 4.87982 30.79 4.81982C30.85 4.64982 31.35 4.49982 31.67 4.47982C31.67 4.47982 31.83 4.46982 31.69 4.41982C31.69 4.41982 31.88 4.33982 32.18 4.34982C32.51 4.29982 32.67 4.30982 32.4 4.18982C32.29 4.06982 32.29 4.06982 32.31 4.01982C32.53 3.85982 32.86 3.86982 33.13 3.98982C33.13 3.98982 33.43 4.05982 33.45 3.99982C33.77 4.00982 34.48 3.60982 34.51 3.55982L34.65 3.61982C34.65 3.61982 34.68 3.56982 34.7 3.50982C34.73 3.45982 34.78 3.34982 34.95 3.35982C34.97 3.32649 34.93 3.28649 34.83 3.23982C34.68 3.16982 34.56 3.05982 34.42 2.98982C34.3 2.86982 34.03 2.67982 33.76 2.49982C33.47 2.36982 33.49 2.30982 33.51 2.25982C33.68 2.26982 33.71 2.21982 33.18 1.77982C32.95 1.49982 30.78 0.589824 28.15 0.239824C27.33 0.139824 26.18 0.0198238 25.52 -0.000176201C25.02 -0.0201762 24.2 0.0198238 23.87 0.0098238C23.54 -0.0101762 23.21 0.0698238 23.05 0.0898238C22.89 0.0998238 22.73 0.169824 22.4 0.189824C22.08 0.279824 21.26 0.269824 19.48 0.539824C18.87 0.619824 18.31 0.779824 17.74 0.929824C17.18 1.08982 16.6 1.20982 16.02 1.44982C15.44 1.67982 14.81 1.87982 14.14 2.18982C13.49 2.51982 12.76 2.83982 11.98 3.29982C10.3 4.32982 9.4 5.09982 8.76 5.60982C8.12 6.11982 7.82 6.45982 7.45 6.77982C4.26 9.73982 3.09 12.2298 2.32 13.5998C1.66 15.0498 1.41 15.5298 1.4 15.6098C1.32 15.7598 1.04 16.5698 0.740004 17.5098C0.480004 18.4598 0.290004 19.5598 0.190004 20.2098C0.170004 20.8698 0.120004 21.3598 0.0400037 21.5098C0.0400037 21.5098 0.0300037 21.6498 3.72715e-06 21.9198C-0.0199963 22.1698 -0.0499963 22.4898 3.72715e-06 22.8198C0.0600037 23.6398 0.0100037 24.6198 0.0700037 25.1098C0.0900037 25.5298 0.160004 26.6398 0.180004 27.0698C0.260004 27.5498 0.330004 28.1998 0.330004 28.5398C0.330004 28.8698 0.350004 29.7198 1.29 32.3598C1.47 32.8198 1.67 33.2998 1.87 33.7898C2.1 34.2698 2.35 34.7298 2.59 35.1798C3.03 36.0898 3.58 36.8098 3.88 37.2998C4.46 38.2998 6.08 40.1598 7.36 41.4298C8.09 42.0898 8.74 42.6098 9.28 43.0698C9.85 43.4598 10.32 43.7898 10.71 44.0598C11.46 44.5898 11.89 44.7498 11.98 44.7398C12.15 44.7698 12.71 45.0898 12.82 45.2198C12.87 45.4798 15.6 46.5598 15.64 46.4398C15.8 46.4598 16.26 46.6098 16.24 46.6698C16.23 46.6998 16.49 46.7998 16.91 46.9498C17.33 47.0798 17.9 47.3198 18.53 47.4598C19.14 47.5998 19.89 47.7798 20.58 47.9498C21.27 48.0498 21.88 48.1398 22.19 48.1798C23.64 48.3798 25.41 48.4198 27.23 48.2598C28.14 48.1798 29.06 47.9998 29.97 47.8498C30.86 47.5998 31.76 47.4298 32.57 47.1198C35.89 46.0098 38.24 44.2798 38.52 43.9898C38.65 43.8898 39.04 43.5998 39.56 43.2098C40.01 42.9998 40.93 42.0598 41.53 41.4998C42.1 40.9098 42.65 40.0998 42.77 39.9898C42.99 39.7498 43.48 39.0998 43.83 38.5598C44.25 37.8698 44.49 37.6398 44.58 37.5098C44.74 37.4198 45.02 37.0198 45.27 36.5998C45.59 36.0398 45.89 35.6398 45.97 35.4998C46.07 35.3698 46.38 34.6098 46.73 33.6998C47.09 32.8798 47.15 32.4298 47.36 31.8598C47.45 31.5798 47.56 31.2498 47.71 30.8098C47.82 30.3698 47.95 29.7998 48.13 29.0498C48.53 27.1398 48.6 25.8298 48.52 24.8498C48.52 23.9598 48.46 23.4298 48.42 23.0698C48.39 22.7098 48.39 22.4998 48.39 22.2598C48.39 21.7698 48.11 20.4598 47.81 19.1798C47.42 17.9198 47.01 16.7098 46.8 16.3598C46.61 15.9998 46.39 15.5498 46.14 15.0198C45.81 14.4498 45.48 13.8698 45.14 13.2798C44.76 12.6398 44.27 11.9798 43.78 11.2498C43.23 10.5698 42.66 9.80982 41.99 9.08982C41.33 8.39982 40.65 7.74982 40.52 7.64982C40.24 7.48982 40.12 7.37982 39.81 7.02982C39.57 6.81982 39.21 6.50982 38.98 6.30982C38.7 6.14982 38.05 5.70982 37.54 5.33982C36.81 4.72982 36.62 4.72982 36.29 4.67982C36.12 4.64982 35.79 4.59982 35.66 4.52982C35.25 4.29982 34.74 4.27982 34.6 4.54982C34.54 4.65982 34.33 4.73982 34.28 4.84982C34.1 4.87982 34.2 5.00982 34.3 5.13982C34.53 5.33982 34.5 5.38982 34.47 5.43982C34.44 5.48982 34.54 5.61982 34.67 5.68982C34.77 5.80982 34.74 5.86982 34.71 5.91982L34.68 5.96982C34.78 6.08982 34.9 6.15982 34.87 6.21982C34.81 6.33982 35.51 7.08982 35.91 7.49982C36.33 7.86982 36.83 8.36982 36.64 8.38982C36.6 8.43982 36.72 8.50982 37.04 8.75982C37.2467 8.93982 37.3167 8.99982 37.25 8.93982L36.9 8.71982L37.13 9.07982C37.19 9.21982 37.36 9.43982 37.46 9.52982C37.56 9.61982 37.77 9.79982 37.73 9.83982C37.7 9.86982 38 10.1498 38.31 10.5698C38.63 10.9898 39.03 11.4698 39.35 11.8098C39.69 12.2198 39.8 12.4798 39.91 12.7198C39.98 12.9998 40.09 13.2398 40.17 13.3498C40.35 13.5398 40.61 14.0098 40.77 14.3598C40.88 14.5998 41.03 14.8498 41.21 15.1298C41.37 15.4098 41.54 15.7298 41.74 16.0598C42.02 16.4998 42.97 18.5298 43.44 20.5698C43.8 22.2398 43.82 23.1498 43.89 23.7398C43.96 24.3198 43.94 24.5898 44.01 24.9798C44.07 25.2398 44.1 25.4798 44.11 25.8098C44.11 26.1398 44.04 26.5598 43.98 27.2198C43.77 28.6398 43.63 29.5998 42.52 31.9698C42.19 32.6798 41.45 34.2298 40.32 35.6698C39.81 36.4298 39.12 37.0998 38.53 37.7698C38.2 38.0698 37.88 38.3598 37.58 38.6298C37.29 38.9098 37 39.1598 36.72 39.3498C36.11 39.8098 35.59 40.2498 35.04 40.5498C34.51 40.8698 34.06 41.1898 33.61 41.3798C33.17 41.5998 32.78 41.7898 32.44 41.9598C32.08 42.0998 31.77 42.2198 31.5 42.3198C30.41 42.7698 29.89 42.8398 29.46 43.0098C28.72 43.2698 26.83 43.5998 24.84 43.6298C22.84 43.6798 20.8 43.2198 19.73 42.9398C18.35 42.5298 17.59 42.2998 16.64 41.8398C16.33 41.7298 15.91 41.5998 15.51 41.4098C15.11 41.2098 14.7 40.9898 14.36 40.7898C13.74 40.5398 13.23 40.1098 13.18 40.1698C13.07 40.0898 12.85 39.9398 12.64 39.7898C12.07 39.2698 11.45 38.7198 10.69 38.0298C10.26 37.5798 9.82 37.1198 9.41 36.6898C9.05 36.2298 8.72 35.8298 8.48 35.5498C8.14 35.2298 7.7 34.4398 7.18 33.6698C6.77 32.8398 6.29 31.9998 6.14 31.4198C6.09 31.2998 5.9 30.7998 5.63 30.1098C5.45 29.3898 5.1 28.4898 4.97 27.5098C4.77 26.5398 4.75 25.5498 4.69 24.7598C4.69 23.9698 4.73 23.3798 4.76 23.1898C4.73 22.7898 4.92 22.0198 5.02 21.5098C5.02 21.1198 5.34 19.8498 5.65 18.7398C5.81 18.2798 5.97 17.8298 6.1 17.4398C6.23 17.0898 6.38 16.8698 6.39 16.8098C6.39 16.8098 6.65 16.2198 6.91 15.4798C7.25 14.9298 7.83 13.7598 8.41 13.0598C8.91 12.3098 9.36 11.8298 9.45 11.7398C9.35 11.6598 10.44 10.3498 10.52 10.4298C10.56 10.4698 11.23 9.85982 11.29 9.71982C11.39 9.62982 11.48 9.53982 11.58 9.45982C11.72 9.42982 12.39 9.00982 13.04 8.58982C13.58 8.23982 14.17 7.95982 14.17 7.95982C14.29 7.90982 14.59 7.65982 15.19 7.39982L15.18 7.38982Z" fill="#6C2BD9"/>
</g>
<defs>
<clipPath id="clip0_542_246">
<rect width="48.56" height="48.35" fill="white"/>
</clipPath>
</defs>
</svg>
