<svg width="44" height="49" viewBox="0 0 44 49" fill="none" xmlns="http://www.w3.org/2000/svg">
<g clip-path="url(#clip0_542_262)">
<path d="M14.53 31.8996C14.59 31.9596 14.59 32.0196 14.53 32.0796C14.46 32.1396 14.43 32.0196 14.44 31.8996C14.47 31.7796 14.49 31.7796 14.54 31.8996H14.53ZM13.44 31.4196C13.44 31.4196 13.48 31.4196 13.46 31.4196H13.4C13.4 31.4196 13.4 31.4096 13.44 31.4196ZM14.08 31.3896H14.1H14.06C14.04 31.3896 14.06 31.3896 14.08 31.3896ZM13.32 31.0996C13.34 31.2196 13.34 31.2196 13.29 31.2796C13.24 31.3296 13.2 31.1996 13.23 31.0896C13.23 30.9696 13.31 30.9796 13.32 31.1096V31.0996ZM14.33 31.0596L14.34 31.1196C14.34 31.1596 14.3333 31.1796 14.32 31.1796C14.32 31.1796 14.3 31.1796 14.31 31.1196L14.33 31.0596ZM14.38 30.8796C14.38 30.9996 14.37 31.0596 14.33 30.9996C14.29 30.9996 14.3 30.9396 14.3 30.8796C14.33 30.7596 14.36 30.7696 14.37 30.8796H14.38ZM14.43 30.2196C14.43 30.3396 14.4 30.3996 14.33 30.3296C14.3 30.2696 14.28 30.2596 14.33 30.2096C14.39 30.1596 14.44 30.1596 14.43 30.2196ZM13.02 24.8896C13.02 24.8896 13.18 24.7796 13.26 24.7596C13.37 24.7296 13.41 24.7196 13.41 24.5996C13.42 24.5296 13.44 24.5296 13.44 24.5296C13.47 24.5796 13.61 24.6196 13.84 24.5796C14.3 24.5696 14.41 24.5796 14.48 24.4396C14.48 24.4396 14.52 24.3796 14.55 24.3796C14.6 24.2596 14.62 24.1996 14.58 24.0796C14.56 24.0196 14.58 24.0196 14.59 24.0196C14.64 24.0196 14.65 23.8996 14.64 23.7196C14.64 23.6596 14.65 23.5996 14.66 23.5396C14.67 23.4796 14.67 23.4196 14.66 23.2996C14.64 23.1796 14.63 23.0596 14.63 22.9996C14.63 22.8196 14.66 22.5196 14.7 22.3996C14.7 22.3996 14.72 22.3396 14.7 22.3396C14.7 22.3396 14.71 22.2196 14.75 22.0996C14.78 21.9196 14.8 21.8596 14.76 21.8596C14.74 21.7996 14.74 21.7996 14.74 21.7396C14.75 21.4996 14.79 21.3796 14.84 21.3796C14.84 21.3796 14.88 21.3196 14.88 21.2596C14.92 21.1396 14.98 20.4796 14.98 20.4196H15C15 20.4196 15 20.3596 15 20.2996C15 20.2396 15 20.1196 15.02 20.0596C15.02 20.0196 15.0133 19.9996 15 19.9996C15 19.9996 14.95 19.9396 14.93 19.9396C14.91 19.8796 14.86 19.8196 14.81 19.7596C14.76 19.7596 14.76 19.6996 14.76 19.6396C14.78 19.5796 14.78 19.5196 14.68 19.3396C14.63 19.1696 14.26 19.0996 13.86 19.2696C13.73 19.2796 13.56 19.3596 13.46 19.3696C13.38 19.3696 13.26 19.4496 13.21 19.4596C13.16 19.4596 13.12 19.5396 13.09 19.5396C13.06 19.5396 13.05 19.6096 13 19.6196C12.96 19.6896 12.84 19.7096 12.55 19.6996C12.18 19.7896 11.87 19.8496 11.35 20.0896C10.8 20.3996 10.69 20.4596 10.55 20.5196C9.91 20.7596 9.51 20.9596 9.28 21.0796C9.08 21.1796 8.95 21.2396 8.95 21.2496C8.87 21.2196 8.44 21.5296 8.3 21.7296C8.25 21.8496 8.19 21.8996 8.12 21.8696C8.12 21.8696 8.03 21.9496 7.99 22.0696C7.93 22.2096 7.8 22.3296 7.74 22.3896C7.68 22.4396 7.51 22.5296 7.46 22.5996C7.4 22.6696 7.28 22.7196 7.19 22.7196C7.11 22.7296 6.95 22.7796 6.65 23.2396C6.42 23.5396 6.26 24.0196 6.16 24.2196C6.06 24.4196 5.94 24.9196 5.84 25.2696C5.7 26.0696 5.73 26.4096 5.84 26.4496C5.9 26.4896 5.89 26.6196 5.83 26.6496C5.69 26.6796 5.85 27.2796 5.97 27.2696C6.03 27.2996 6.04 27.3896 5.98 27.3996C5.92 27.3996 5.93 27.6396 5.99 27.8896C6.04 28.1396 6.07 28.5096 6.12 28.6296C6.24 29.2096 6.59 29.9496 6.98 30.4596C7.37 30.9696 7.77 31.2996 7.88 31.2696C7.9 31.2896 7.96 31.3496 8.04 31.4196C8.06 31.5196 8.27 31.6296 8.38 31.7096C8.53 31.7496 8.69 31.7996 8.71 31.8196C8.75 31.8496 8.89 31.8896 8.98 31.9496C9.12 31.9696 9.13 32.0496 9.16 32.0596C9.15 32.1196 9.18 32.2196 9.25 32.2596C9.34 32.3196 9.38 32.4096 9.4 32.4296C9.42 32.4496 9.54 32.5196 9.7 32.5396C9.98 32.6196 9.98 32.6296 10.39 32.8896C10.65 33.0696 10.84 33.1496 11 33.1496C11.28 33.1796 11.33 33.1996 11.38 33.2796C11.52 33.3396 12.21 33.3996 12.34 33.3696C12.62 33.2596 13.11 33.2396 13.7 33.2496C13.84 33.2696 13.99 33.2196 14.01 33.2196C14.06 33.1696 14.08 33.1696 14.15 33.2296C14.2 33.2296 14.27 33.2296 14.31 33.2396C14.36 33.1796 14.48 33.1896 14.57 33.1896C14.71 33.2596 14.73 33.1896 14.78 33.0796C14.8 33.0196 14.85 32.8996 14.87 32.8996C14.94 32.8996 15.01 32.6596 15.01 32.3596C15.01 32.2396 15.03 32.0596 15.03 31.9396C15.05 31.8196 15.03 31.7596 15.01 31.6996C14.97 31.6396 14.97 31.5796 14.97 31.5196C14.97 31.4596 14.95 31.3996 14.93 31.3996C14.91 31.3396 14.91 31.2796 14.91 31.2196V31.1596C14.89 31.0996 14.87 31.0996 14.87 31.0396C14.87 30.9196 14.75 30.5596 14.68 30.4896C14.61 30.4296 14.53 30.2996 14.56 30.1896C14.56 30.1296 14.55 30.1296 14.5 30.1296C14.4667 30.1296 14.4567 30.1296 14.47 30.1296L14.52 30.0696L14.48 29.9496C14.47 29.8896 14.44 29.8296 14.42 29.8296C14.4 29.8296 14.37 29.8296 14.38 29.7596C14.38 29.6996 14.21 29.4996 14.1 29.4896C14.04 29.4896 14.01 29.4196 13.99 29.3596C13.98 29.2396 13.96 29.1696 13.94 29.1696C13.91 29.1696 13.85 29.1496 13.82 29.0896C13.77 29.0196 13.7 29.0096 13.6 29.0496C13.54 29.0496 13.29 29.0396 13.06 28.9796C12.71 28.8596 12.68 28.8496 12.56 28.9396C12.46 29.0296 12.42 29.0096 12.29 28.9496C12.14 28.8896 12.04 28.8396 11.89 28.5596C11.7 28.3596 11.34 27.9796 11.27 27.8996C10.86 27.5996 10.86 27.5296 10.77 27.5096C10.65 27.4496 10.48 27.1196 10.56 27.0096C10.53 26.9396 10.56 26.9096 10.54 26.8596C10.47 26.8296 10.41 26.7796 10.42 26.7396C10.36 26.6996 10.36 26.6696 10.3 26.6596C10.3 26.6596 10.3 26.6396 10.3 26.6196C10.43 26.6096 10.47 26.4196 10.45 26.3096C10.42 26.2396 10.49 26.0696 10.6 26.0296C10.62 26.0196 10.67 25.8996 10.79 25.7796C10.93 25.6896 11.07 25.5796 11.13 25.5996C11.16 25.5796 11.24 25.5696 11.32 25.5996C11.35 25.5796 11.48 25.5596 11.56 25.4896C11.64 25.4396 11.75 25.4396 11.76 25.4296C11.76 25.4296 11.81 25.3996 11.84 25.2996C11.89 25.2596 12.01 25.2096 12.09 25.1596C12.17 25.1196 12.23 25.0796 12.24 25.0796C12.19 24.9696 12.33 24.8496 12.35 24.8996C12.37 24.9596 12.46 24.9196 12.45 24.8596L12.49 24.8396C12.49 24.8396 12.62 24.9096 12.72 24.9396C12.79 24.9196 12.87 24.9496 12.87 24.9496C12.88 24.9496 12.92 24.9296 12.99 24.9096L13.02 24.8896Z" fill="#6C2BD9"/>
<path d="M25.78 42.3201C25.84 42.0701 25.9 42.0701 25.96 42.3201C26.02 42.5701 25.9 42.7401 25.78 42.7401C25.66 42.6601 25.66 42.5701 25.78 42.3201ZM23.85 45.6701C23.9567 45.6701 23.9833 45.6701 23.93 45.6701H23.69C23.69 45.6701 23.69 45.6701 23.85 45.6701ZM25.31 44.1901V44.1201C25.31 44.1901 25.31 44.2701 25.31 44.2701C25.31 44.3401 25.31 44.2701 25.31 44.2001V44.1901ZM23.11 45.3701C23.27 45.4901 23.27 45.4901 23.13 45.5501C22.99 45.6101 22.75 45.4901 22.74 45.3701C22.67 45.2501 22.97 45.2501 23.1 45.3701H23.11ZM24.95 43.3301C24.95 43.2701 25.01 43.2701 25.01 43.2701C25.05 43.2701 25.07 43.2934 25.07 43.3401C25.07 43.3401 25.07 43.4101 25.01 43.4001L24.95 43.3301ZM24.77 43.1901C24.89 43.1301 24.95 43.1901 24.89 43.3201C24.89 43.4501 24.83 43.4301 24.77 43.4201C24.65 43.3401 24.65 43.2401 24.77 43.1901ZM24.11 43.1601C24.23 43.1601 24.29 43.2201 24.23 43.3801C24.17 43.4501 24.17 43.4901 24.11 43.3901C24.05 43.2601 24.05 43.1601 24.11 43.1601ZM5.25 10.5501C5.25 10.5501 5.22 10.4901 5.25 10.4901C5.38 10.4901 5.45 10.4901 5.58 10.4801C5.75 10.4701 5.85 10.4401 5.93 10.3801C6.1 10.3201 6.18 10.3201 6.18 10.3201C6.26 10.3801 7.01 10.4401 8.34 10.4401C10.92 10.5001 11.59 10.5001 12 10.3801C12 10.3801 12.25 10.3201 12.42 10.3201C12.75 10.2001 12.84 10.1401 12.67 10.0201C12.59 9.96009 12.67 9.96009 12.75 9.96009C13 9.96009 13.08 9.84009 13.08 9.66009C13.08 9.60009 13.16 9.54009 13.25 9.48009C13.33 9.42009 13.33 9.36009 13.33 9.24009C13.25 9.12009 13.25 9.00009 13.25 8.94009C13.25 8.76009 13.5 8.46009 13.67 8.34009C13.67 8.34009 13.75 8.28009 13.67 8.28009C13.67 8.28009 13.75 8.16009 13.92 8.04009C14.09 7.86009 14.17 7.80009 14 7.80009C13.9467 7.76009 13.92 7.72009 13.92 7.68009C14 7.44009 14.17 7.32009 14.34 7.32009C14.34 7.32009 14.51 7.26009 14.51 7.20009C14.68 7.08009 14.93 6.42009 14.93 6.36009H15.01C15.01 6.36009 15.01 6.30009 15.01 6.24009C15.01 6.18009 15.01 6.06009 15.09 6.00009C15.09 5.96009 15.0633 5.94009 15.01 5.94009C14.93 5.94009 14.84 5.88009 14.76 5.88009C14.68 5.82009 14.51 5.76009 14.34 5.70009C14.17 5.70009 14.17 5.64009 14.17 5.58009C14.25 5.52009 14.25 5.46009 13.92 5.28009C13.75 5.10009 12.59 5.04009 11.26 5.16009C10.84 5.16009 10.26 5.22009 9.93 5.22009C9.68 5.22009 9.26 5.28009 9.1 5.28009C8.94 5.28009 8.77 5.34009 8.68 5.34009C8.6 5.34009 8.51 5.40009 8.35 5.40009C8.18 5.46009 7.77 5.46009 6.85 5.40009C6.16 5.40009 5.54 5.40009 4.82 5.40009C4.23 5.42009 3.56 5.36009 2.95 5.52009C2.35 5.66009 1.74 5.95009 1.18 6.52009C0.69 7.05009 0.48 7.59009 0.37 8.02009C0.26 8.46009 0.25 8.86009 0.25 9.12009C0.27 10.2601 0.27 10.5901 0.28 11.0101C0.24 13.1701 0.22 14.5301 0.21 15.3801C0.19 16.1601 0.18 16.4701 0.18 16.5001C0.12 16.6701 0.12 18.2501 0.18 18.9101C0.24 19.2401 0.24 19.4901 0.18 19.5801C0.18 19.5801 0.18 19.9101 0.24 20.2501C0.3 20.6701 0.3 21.1701 0.3 21.4201C0.3 21.6701 0.24 22.1701 0.24 22.4201C0.24 22.6701 0.18 23.0001 0.12 23.1701C0.06 23.3401 0 23.7501 0 25.1601C0.02 26.1001 0.05 27.4401 0.07 27.9901C0.08 28.5401 0.12 29.8801 0.14 30.7401C0.2 32.7401 0.21 33.5701 0.33 33.6501C0.39 33.7301 0.39 34.0701 0.33 34.1501C0.21 34.2301 0.33 35.7301 0.45 35.7301C0.51 35.8101 0.51 36.0601 0.45 36.0601C0.39 36.0601 0.39 36.6401 0.39 37.3101C0.39 37.9801 0.33 38.8901 0.33 39.2201C0.31 39.8701 0.3 40.5601 0.28 41.2601C0.28 42.1401 0.27 43.0301 0.26 43.8901C0.16 45.3501 0.56 46.4401 1.42 47.2001C2.26 47.9301 3.16 48.0801 3.95 48.0801C4.71 48.0601 5.23 48.0301 5.34 47.9901C5.42 47.9901 5.67 47.9901 6.01 47.9901C6.26 48.0501 6.93 47.9901 7.34 47.9901C7.76 47.9301 8.26 47.8701 8.34 47.8701C8.51 47.8701 8.92 47.8101 9.26 47.8101C9.68 47.7501 9.84 47.8101 9.93 47.8101C10.01 47.8701 10.26 47.9301 10.51 47.9301C10.84 47.9301 11.09 47.9901 11.18 47.9901C11.26 47.9901 11.68 47.9901 12.18 47.9301C12.7933 47.8901 13.6267 47.8901 14.68 47.9301C15.68 47.9901 16.35 47.9901 16.84 47.9301C17.76 47.8701 17.92 47.8701 18.17 47.9301C18.67 47.9301 20.92 47.8101 21.33 47.7501C21.54 47.7101 21.8 47.6601 22.1 47.6301C22.27 47.6101 22.43 47.5901 22.59 47.5801L22.87 47.5601L23.34 47.5401C23.97 47.5201 24.68 47.5001 25.28 47.2801C25.89 47.0801 26.53 46.5901 26.85 45.8901C27.15 45.2701 27.1 44.4701 27.1 44.3401C27.04 44.0601 27.04 43.9401 27.1 43.5601C27.1 43.3401 27.1 43.0201 27.1 42.8001C27.04 42.6301 27.04 42.2201 27.04 41.8801C27.1 41.3801 27.04 41.3001 26.92 41.1301C26.86 41.0501 26.74 40.8801 26.74 40.8001C26.74 40.5501 26.5 40.3001 26.2 40.3001C26.08 40.3001 25.9 40.2201 25.78 40.2201C25.66 40.1401 25.6 40.2201 25.54 40.3001C25.48 40.4701 25.42 40.4701 25.36 40.4701C25.3 40.4701 25.24 40.5501 25.24 40.6401C25.18 40.7201 25.12 40.7201 25.06 40.7201H25C24.94 40.8001 24.94 40.8901 24.88 40.8901C24.76 40.8901 24.4 41.4701 24.34 41.8101C24.28 42.1401 24.16 42.5601 24.04 42.4801C23.98 42.4801 23.98 42.5601 23.98 42.8101C23.98 42.9768 23.98 43.0334 23.98 42.9801L23.92 42.7301L23.8 42.9801C23.74 43.1101 23.68 43.1201 23.68 43.1501C23.68 43.1801 23.68 43.2301 23.62 43.2201C23.55 43.2301 23.4 43.4001 23.36 43.4901C23.33 43.5501 23.25 43.5201 23.18 43.4801C23.06 43.3801 23.01 43.3301 23 43.3301C22.99 43.3301 22.95 43.3301 22.91 43.2701C22.89 43.2401 22.87 43.2201 22.86 43.2201C22.86 43.2201 22.85 43.2201 22.84 43.2301C22.84 43.2301 22.84 43.2301 22.84 43.2401C22.79 43.2401 22.72 43.2501 22.66 43.2601C22.33 43.2601 20.91 43.3201 19.58 43.3201C17.42 43.3201 17.25 43.3201 16.75 43.4401C16.42 43.5601 16.17 43.5601 15.33 43.5601C14.41 43.5601 13.83 43.5601 12.17 43.3801C11.17 43.3201 7.84 43.2001 6.09 43.2001C5.81 43.2001 5.55 43.2001 5.31 43.2101C5.3 43.2101 5.28 43.2101 5.27 43.2201C5.08 43.2601 5.13 43.1201 5.07 43.1201C5.07 43.1001 5.06 43.1201 5.05 43.0501C5.05 42.8401 5.04 42.6001 5.03 42.3501C5.03 41.8201 5.03 41.2101 5.01 40.5801C5.01 39.3201 5.01 38.0101 5.05 37.3001C5.05 36.3801 5.05 35.8801 5.05 35.2201C4.99 34.8001 4.93 34.1401 4.93 33.6401C4.87 33.2201 4.87 32.8101 4.81 32.8101C4.81 32.7301 4.81 32.5601 4.81 32.3901C4.93 32.0601 4.92 29.5601 4.86 28.6401C4.8 28.0601 4.8 26.3901 4.86 25.6401C4.86 25.4701 4.86 24.3101 4.86 23.0601C4.92 21.8101 4.91 20.5601 4.97 20.3101C4.97 20.0601 5.03 19.5601 5.09 19.2301C5.09 18.9801 5.15 18.1501 5.15 17.4001C5.15 16.7301 5.21 16.1501 5.21 16.0701C5.21 16.0701 5.21 15.6501 5.15 15.1501C5.15 14.7301 5.15 13.9001 5.15 13.3201C5.15 12.7401 5.15 12.3201 5.15 12.2401C5.03 12.2401 4.97 11.1601 5.03 11.1601C5.09 11.1801 5.09 10.5301 5.03 10.5401V10.5201H5.13C5.13 10.5201 5.18 10.5101 5.21 10.5201C5.21 10.5101 5.27 10.5501 5.27 10.5501H5.25Z" fill="#6C2BD9"/>
<path d="M35.78 40.75C36.17 40.81 36.17 40.87 35.78 40.93C35.39 40.99 35.13 40.87 35.13 40.75C35.26 40.63 35.39 40.63 35.78 40.75ZM28.51 40.39C28.6833 40.39 28.7267 40.39 28.64 40.39H28.25C28.25 40.39 28.25 40.39 28.51 40.39ZM32.66 40.27H32.79C32.66 40.27 32.53 40.27 32.53 40.27C32.4 40.27 32.53 40.27 32.66 40.27ZM27.34 40.09C27.5133 40.17 27.5133 40.23 27.34 40.27C27.08 40.33 26.69 40.21 26.69 40.09C26.56 39.97 27.08 39.97 27.34 40.09ZM34.09 39.91C34.22 39.91 34.22 39.97 34.22 39.97C34.22 40.01 34.1767 40.03 34.09 40.03C34.09 40.03 33.96 40.03 33.96 39.97L34.09 39.91ZM34.35 39.73C34.48 39.85 34.35 39.91 34.09 39.85C33.83 39.85 33.83 39.79 33.83 39.73C33.96 39.61 34.22 39.61 34.35 39.73ZM34.35 39.07C34.35 39.19 34.22 39.25 33.7 39.19C33.44 39.13 33.31 39.13 33.57 39.07C33.96 39.01 34.35 39.01 34.35 39.07ZM37.56 22.86C37.57 23.34 37.61 24.61 37.63 25.33C37.63 26.37 37.63 26.76 37.75 27.02C37.81 27.28 37.81 27.41 37.81 27.41C37.75 27.54 37.69 28.71 37.7 30.78C37.65 34.8 37.65 35.84 37.77 36.49C37.77 36.49 37.83 36.88 37.83 37.14C37.95 37.66 38.01 37.79 38.13 37.53C38.19 37.4 38.19 37.53 38.19 37.66C38.19 38.05 38.31 38.18 38.49 38.18C38.55 38.18 38.61 38.31 38.67 38.44C38.73 38.57 38.79 38.57 38.91 38.57C39.03 38.44 39.15 38.44 39.21 38.44C39.39 38.44 39.69 38.83 39.81 39.09C39.81 39.09 39.87 39.22 39.87 39.09C39.87 39.09 39.99 39.24 40.11 39.46C40.27 39.69 40.26 39.88 40.33 39.61C40.41 39.49 40.41 39.48 40.47 39.49C40.71 39.64 40.73 40.09 40.49 40.39C40.49 40.39 40.28 40.71 40.31 40.75C40.2 40.92 40.08 41.22 39.92 41.48C39.77 41.74 39.59 41.95 39.6 41.98L39.33 42.02C39.33 42.02 39.33 42.08 39.34 42.14C39.34 42.2 39.36 42.32 39.06 42.39C39.06 42.45 39.06 42.46 39.37 42.44C39.68 42.41 40 42.39 40.3 42.27C40.62 42.21 41.26 41.94 41.76 41.39C42.19 40.79 42.19 40.77 42.26 40.81C42.2 41 42.18 41.1 42.29 40.99C42.38 40.88 42.69 40.54 42.86 39.68C42.93 39.31 42.95 39.3 42.98 39.02C43.01 38.78 43.03 38.46 43.04 38.09C43.06 37.34 43.04 36.37 42.98 35.33C42.96 34.75 42.93 33.72 42.92 33.25C42.92 32.86 42.86 32.21 42.86 31.95C42.86 31.69 42.8 31.43 42.8 31.3C42.8 31.17 42.74 31.04 42.74 30.78C42.68 30.52 42.68 29.87 42.74 28.44C42.74 26.49 42.74 24.94 42.67 22.08C42.54 18.97 42.54 18.32 42.54 17.54C42.57 14.14 42.59 12.02 42.61 10.73C42.63 9.49 42.64 9.04 42.64 8.98C42.7 8.7 42.69 6.31 42.64 5.16C42.58 4.2 42.59 3.48 42.59 3.24C42.59 3.24 42.56 3.01 42.46 2.7C42.37 2.41 42.19 2.03 41.9 1.69C41.56 1.27 41.07 0.89 40.59 0.67C40.12 0.45 39.66 0.36 39.31 0.33C38.97 0.29 38.44 0.29 37.9 0.27C37.51 0.26 37.15 0.25 36.96 0.24C36.57 0.24 36.05 0.18 35.79 0.12C35.53 0.06 34.88 0 32.68 0C31.16 0.02 29.15 0.05 28.27 0.06C27.39 0.07 25.38 0.1 23.99 0.12C20.87 0.18 19.6 0.18 19.43 0.3C19.19 0.36 18.26 0.35 18.01 0.3C17.85 0.23 16.77 0.29 15.98 0.88C15.12 1.46 14.81 2.44 14.88 2.45C14.85 2.66 14.71 3.25 14.67 3.24C14.64 3.23 14.55 3.59 14.56 4.24C14.56 4.74 14.56 5.38 14.56 6.07C14.54 7.05 14.52 8.56 14.51 9.05C14.4 13.72 14.42 22.16 14.6 22.8C14.6 22.93 14.6 23.32 14.6 23.84C14.54 24.23 14.6 25.27 14.6 25.92C14.66 26.57 14.72 27.35 14.72 27.48C14.72 27.74 14.78 28.39 14.78 28.91C14.84 29.56 14.78 29.82 14.78 29.95C14.72 30.08 14.66 30.47 14.66 30.86C14.66 31.38 14.6 31.77 14.6 31.9C14.6 32.03 14.6 32.68 14.66 33.46C14.7 34.4133 14.7 35.71 14.66 37.35C14.65 37.94 14.64 38.45 14.63 38.89C14.61 39.49 14.67 40.01 14.81 40.41C15.06 41.22 15.65 41.82 16.19 42.12C17.18 42.67 17.93 42.61 18.45 42.63C18.95 42.63 19.28 42.65 19.57 42.68C20.35 42.68 23.85 42.56 24.5 42.5C25.8 42.32 28.39 42.2 31.64 42.14C32.42 42.14 33.2 42.08 33.33 42.08C33.59 42.02 33.72 42.02 34.11 42.08C34.37 42.08 34.76 42.08 35.02 42.08C35.28 42.02 35.93 42.02 36.45 42.02C37.23 42.08 37.36 42.02 37.62 41.9C37.75 41.84 38.01 41.72 38.14 41.72C38.53 41.72 38.92 41.48 38.92 41.18C38.92 41.06 39.05 40.88 39.05 40.76C39.18 40.64 39.05 40.58 38.92 40.52C38.66 40.46 38.66 40.4 38.66 40.34C38.66 40.28 38.53 40.22 38.4 40.22C38.27 40.16 38.27 40.1 38.27 40.04V39.98C38.14 39.92 38.01 39.92 38.01 39.86C38.01 39.74 37.1 39.38 36.58 39.32C36.06 39.26 35.41 39.14 35.54 39.02C35.54 38.96 35.41 38.96 35.02 38.96C34.76 38.96 34.6733 38.96 34.76 38.96L35.15 38.9L34.76 38.78C34.63 38.72 34.37 38.66 34.24 38.66C34.11 38.66 33.85 38.66 33.85 38.6C33.85 38.54 32.29 38.36 31.38 38.36C30.86 38.36 30.6 38.3 30.34 38.24C30.08 38.12 29.82 38.06 29.69 38.06C29.43 38.06 28.91 38.06 28.52 38C28 37.94 27.35 37.94 26.57 38C26.06 38 23.8 38.03 21.77 38.06C20.93 38.06 20.28 38.06 19.77 38.06C19.42 38.06 19.54 38.06 19.49 38.06C19.47 38.06 19.46 38.06 19.44 38.06C19.38 38.07 19.34 38.11 19.25 38.14C19.09 38.22 19.03 38.13 19.05 37.9C19.05 37.36 19.06 36.95 19.07 36.33C19.09 35.6 19.13 34.72 19.22 33.43C19.28 31.87 19.39 26.68 19.38 23.96C19.31 17.86 19.3 16.69 19.24 15.79C19.18 14.23 19.16 8.26 19.22 6.06C19.22 5.71 19.22 5.44 19.22 5.19C19.22 5.15 19.22 5.1 19.25 5.07C19.23 4.96 19.35 4.92 19.46 4.92C20.07 4.86 20.75 4.86 20.74 4.8C20.87 4.8 21.13 4.8 21.39 4.8C21.91 4.92 25.8 4.92 27.23 4.86C28.14 4.8 30.73 4.8 31.9 4.86C32.16 4.86 33.98 4.86 35.92 4.86C36.43 4.87 36.9 4.88 37.36 4.9H37.53H37.57H37.61L37.69 4.92C37.79 4.92 37.84 4.99 37.82 5.04C37.86 5.08 37.78 5.21 37.72 5.25C37.72 4.84 37.66 6.46 37.67 7.56C37.67 8.6 37.61 9.51 37.61 9.64C37.61 9.64 37.61 10.29 37.67 11.07C37.67 11.72 37.67 13.02 37.67 13.92C37.67 14.83 37.67 15.48 37.67 15.61C37.79 15.61 37.85 17.3 37.79 17.3C37.73 17.3 37.73 18.21 37.79 18.34V18.73C37.73 18.86 37.67 19.64 37.61 20.42C37.61 21.07 37.55 21.72 37.55 21.72C37.55 21.85 37.55 22.24 37.55 22.89L37.56 22.86Z" fill="#6C2BD9"/>
<path d="M29.94 17.23C29.83 17.16 29.83 17.1 29.96 17.05C30.09 17 30.16 17.13 30.14 17.25C30.09 17.37 30.05 17.36 29.94 17.23ZM32.02 18C31.9733 17.9867 31.96 17.9834 31.98 17.99L32.09 18.02L32.02 18ZM30.8 17.82H30.76H30.84C30.88 17.82 30.84 17.82 30.8 17.82ZM32.24 18.39C32.21 18.25 32.21 18.25 32.3 18.22C32.39 18.19 32.46 18.34 32.41 18.46C32.41 18.58 32.27 18.53 32.24 18.39ZM30.33 18.11L30.3 18.04C30.3 18 30.3133 17.9834 30.34 17.99C30.34 17.99 30.38 17.99 30.37 18.06L30.33 18.11ZM30.23 18.28C30.21 18.16 30.25 18.1 30.32 18.17C30.39 18.18 30.38 18.24 30.37 18.3C30.32 18.41 30.25 18.4 30.23 18.28ZM30.14 18.93C30.16 18.81 30.2 18.76 30.32 18.84C30.38 18.91 30.41 18.92 30.34 18.96C30.23 19 30.13 18.99 30.14 18.93ZM25.25 21.1C25.31 21.05 25.45 20.89 25.58 20.82C25.74 20.72 25.83 20.7 25.82 20.56C25.84 20.48 25.87 20.47 25.87 20.47C25.92 20.51 26.16 20.47 26.58 20.33C27.43 20.14 27.68 20.15 27.81 20C27.81 20 27.89 19.93 27.95 19.93C28.06 19.8 28.08 19.74 28.01 19.62C27.97 19.56 28.01 19.56 28.04 19.56C28.13 19.56 28.15 19.43 28.14 19.25C28.14 19.19 28.16 19.13 28.19 19.06C28.22 19 28.21 18.94 28.21 18.82C28.17 18.7 28.16 18.58 28.15 18.52C28.14 18.34 28.22 18.03 28.29 17.91C28.29 17.91 28.32 17.85 28.29 17.85C28.29 17.85 28.32 17.73 28.39 17.61C28.46 17.43 28.5 17.37 28.42 17.37C28.3933 17.33 28.38 17.29 28.38 17.25C28.41 17.01 28.49 16.89 28.57 16.88C28.57 16.88 28.65 16.82 28.65 16.76C28.73 16.64 28.85 15.97 28.85 15.91H28.89C28.89 15.91 28.89 15.85 28.89 15.79C28.89 15.73 28.89 15.61 28.93 15.55C28.93 15.51 28.9133 15.49 28.88 15.49C28.88 15.49 28.79 15.43 28.74 15.43C28.69 15.37 28.6 15.31 28.51 15.26C28.42 15.26 28.41 15.2 28.41 15.14C28.45 15.08 28.45 15.02 28.25 14.85C28.15 14.67 27.45 14.64 26.69 14.9C26.45 14.93 26.12 15.06 25.93 15.11C25.78 15.14 25.56 15.25 25.46 15.28C25.36 15.31 25.29 15.39 25.24 15.41C25.19 15.42 25.16 15.5 25.07 15.53C24.99 15.61 24.76 15.68 24.22 15.83C23.52 16.14 22.95 16.37 22.01 17.15C21.05 18.09 20.91 18.42 20.68 18.7C19.69 20.04 19.58 21.36 19.58 22.01C19.6 22.71 19.67 22.93 19.67 22.96C19.6 23.13 20.06 24.39 20.43 24.76C20.62 24.95 20.73 25.08 20.72 25.17C20.72 25.17 20.87 25.38 21.07 25.51C21.31 25.68 21.55 25.94 21.68 26.04C21.81 26.15 22.02 26.41 22.15 26.51C22.28 26.6 22.42 26.77 22.48 26.89C22.54 27 22.73 27.22 23.52 27.63C24.08 27.92 24.82 28.11 25.15 28.2C25.48 28.31 26.21 28.43 26.73 28.51C27.88 28.63 28.35 28.61 28.4 28.51C28.45 28.45 28.64 28.46 28.68 28.51C28.73 28.65 29.58 28.5 29.57 28.38C29.61 28.32 29.75 28.31 29.76 28.38C29.76 28.44 30.09 28.41 30.47 28.38C30.84 28.34 31.37 28.31 31.56 28.27C32.41 28.17 33.62 27.83 34.59 27.28C35.57 26.76 36.28 26.03 36.31 25.87C36.35 25.83 36.47 25.7 36.63 25.54C36.8 25.47 37.05 25.03 37.22 24.79C37.34 24.49 37.46 24.13 37.49 24.08C37.54 23.96 37.61 23.64 37.7 23.4C37.74 23.07 37.82 22.96 37.83 22.89C37.9 22.84 38.02 22.66 38.03 22.45C38.06 22.18 38.13 21.98 38.13 21.91C38.14 21.84 38.12 21.49 38.01 21.09C37.78 20.39 37.85 20.34 37.35 19.25C37.02 18.57 36.69 18.23 36.41 18.03C35.93 17.63 35.84 17.6 35.76 17.44C35.51 17.2 34.27 16.57 34.02 16.57C33.5 16.5 32.59 16.27 31.47 16.09C31.2 16.03 30.93 16.06 30.88 16.04C30.78 16.08 30.74 16.08 30.61 16C30.52 15.98 30.39 15.97 30.3 15.96C30.2 16.01 29.98 15.99 29.81 15.97C29.55 15.89 29.5 15.96 29.41 16.07C29.36 16.13 29.27 16.25 29.23 16.24C29.1 16.24 28.97 16.47 28.97 16.77C28.97 16.89 28.93 17.07 28.93 17.19C28.89 17.31 28.93 17.37 28.97 17.43C29.05 17.49 29.05 17.55 29.05 17.61C29.05 17.67 29.09 17.73 29.12 17.73C29.16 17.79 29.16 17.85 29.15 17.91V17.97C29.18 18.03 29.22 18.03 29.22 18.09C29.22 18.21 29.45 18.58 29.59 18.64C29.72 18.71 29.88 18.85 29.84 18.97C29.84 19.03 29.87 19.03 29.97 19.04C30.0367 19.04 30.06 19.04 30.04 19.04L29.93 19.09L30.01 19.22C30.04 19.28 30.09 19.35 30.12 19.35C30.15 19.35 30.21 19.37 30.21 19.43C30.21 19.5 30.55 19.71 30.75 19.77C30.87 19.8 30.91 19.87 30.96 19.94C30.99 20.07 31.03 20.14 31.06 20.15C31.11 20.17 31.22 20.2 31.29 20.28C31.38 20.37 31.51 20.41 31.68 20.42C31.79 20.45 32.23 20.59 32.57 20.79C33.07 21.14 33.05 21.17 33.22 21.16C33.37 21.13 33.41 21.18 33.51 21.32C33.59 21.45 33.68 21.59 33.51 21.76C33.47 21.81 33.46 21.86 33.39 21.93C33.27 22.07 33.16 22.19 33.1 22.26C32.84 22.57 32.55 22.79 32.36 22.9C32.18 23.03 32.07 23.07 32.01 23.15C31.88 23.25 31.51 23.41 31.09 23.53C30.66 23.64 30.2 23.71 29.94 23.7C29.61 23.73 29.43 23.75 29.19 23.75C29.04 23.82 28.79 23.87 28.61 23.87C28.45 23.93 28.3 23.92 28.29 23.97C28.26 23.97 28.2 23.97 28.14 23.95C28.02 23.84 27.13 23.69 26.8 23.66C26.58 23.66 26.02 23.48 25.83 23.31C25.78 23.29 25.42 23.13 25.12 22.92C24.83 22.67 24.65 22.45 24.65 22.37C24.6 22.33 24.61 22.21 24.61 22.14C24.59 22.1 24.57 21.97 24.56 21.92C24.54 21.87 24.6 21.84 24.59 21.83C24.59 21.83 24.61 21.82 24.53 21.8C24.54 21.78 24.53 21.75 24.55 21.72C24.57 21.68 24.58 21.65 24.58 21.64C24.48 21.6 24.5 21.43 24.55 21.46C24.6 21.49 24.66 21.42 24.62 21.37L24.64 21.33C24.69 21.36 24.82 21.33 24.92 21.29C24.99 21.23 25.11 21.21 25.11 21.21C25.12 21.2 25.16 21.16 25.26 21.1H25.25Z" fill="#6C2BD9"/>
</g>
<defs>
<clipPath id="clip0_542_262">
<rect width="43.06" height="48.09" fill="white"/>
</clipPath>
</defs>
</svg>
